<mxfile host="65bd71144e">
    <diagram id="FKBwvFwH8oCqUjFAkxZp" name="Page-1">
        <mxGraphModel dx="2778" dy="2483" grid="1" gridSize="10" guides="1" tooltips="1" connect="1" arrows="1" fold="1" page="1" pageScale="1" pageWidth="850" pageHeight="1100" math="0" shadow="0">
            <root>
                <mxCell id="0"/>
                <mxCell id="1" parent="0"/>
                <mxCell id="227" value="" style="rounded=0;whiteSpace=wrap;html=1;container=1;dropTarget=1;collapsible=0;recursiveResize=0;" vertex="1" parent="1">
                    <mxGeometry x="340" y="-360" width="820" height="1450" as="geometry"/>
                </mxCell>
                <mxCell id="2" value="main_start" style="rounded=0;whiteSpace=wrap;html=1;" vertex="1" parent="227">
                    <mxGeometry x="190" y="20" width="120" height="60" as="geometry"/>
                </mxCell>
                <mxCell id="3" value="store environment variables" style="rounded=0;whiteSpace=wrap;html=1;" vertex="1" parent="227">
                    <mxGeometry x="190" y="100" width="120" height="60" as="geometry"/>
                </mxCell>
                <mxCell id="9" style="edgeStyle=orthogonalEdgeStyle;html=1;exitX=0;exitY=1;exitDx=0;exitDy=0;entryX=0;entryY=0;entryDx=0;entryDy=0;fillColor=#60a917;strokeColor=#2D7600;" edge="1" parent="227" source="4" target="5">
                    <mxGeometry relative="1" as="geometry">
                        <Array as="points">
                            <mxPoint x="120" y="240"/>
                        </Array>
                    </mxGeometry>
                </mxCell>
                <mxCell id="10" style="edgeStyle=orthogonalEdgeStyle;html=1;exitX=1;exitY=1;exitDx=0;exitDy=0;entryX=1;entryY=0;entryDx=0;entryDy=0;fillColor=#f8cecc;strokeColor=#b85450;" edge="1" parent="227" source="4" target="6">
                    <mxGeometry relative="1" as="geometry">
                        <Array as="points">
                            <mxPoint x="390" y="240"/>
                        </Array>
                    </mxGeometry>
                </mxCell>
                <mxCell id="4" value="check if we are a tty" style="rounded=0;whiteSpace=wrap;html=1;" vertex="1" parent="227">
                    <mxGeometry x="190" y="180" width="120" height="60" as="geometry"/>
                </mxCell>
                <mxCell id="13" style="edgeStyle=none;html=1;exitX=0.5;exitY=1;exitDx=0;exitDy=0;entryX=0.5;entryY=0;entryDx=0;entryDy=0;" edge="1" parent="227" source="5" target="8">
                    <mxGeometry relative="1" as="geometry"/>
                </mxCell>
                <mxCell id="5" value="store current signal handlers" style="rounded=0;whiteSpace=wrap;html=1;" vertex="1" parent="227">
                    <mxGeometry x="120" y="260" width="120" height="60" as="geometry"/>
                </mxCell>
                <mxCell id="15" style="edgeStyle=orthogonalEdgeStyle;html=1;exitX=0.5;exitY=1;exitDx=0;exitDy=0;entryX=0.5;entryY=0;entryDx=0;entryDy=0;" edge="1" parent="227" source="6" target="7">
                    <mxGeometry relative="1" as="geometry">
                        <mxPoint x="250" y="420" as="targetPoint"/>
                    </mxGeometry>
                </mxCell>
                <mxCell id="6" value="not sure?" style="rounded=0;whiteSpace=wrap;html=1;" vertex="1" parent="227">
                    <mxGeometry x="270" y="260" width="120" height="60" as="geometry"/>
                </mxCell>
                <mxCell id="33" style="edgeStyle=orthogonalEdgeStyle;html=1;exitX=0.5;exitY=1;exitDx=0;exitDy=0;entryX=0.5;entryY=0;entryDx=0;entryDy=0;" edge="1" parent="227" source="7" target="32">
                    <mxGeometry relative="1" as="geometry"/>
                </mxCell>
                <mxCell id="7" value="readline loop start" style="rounded=0;whiteSpace=wrap;html=1;" vertex="1" parent="227">
                    <mxGeometry x="190" y="440" width="120" height="60" as="geometry"/>
                </mxCell>
                <mxCell id="14" style="edgeStyle=orthogonalEdgeStyle;html=1;exitX=0.5;exitY=1;exitDx=0;exitDy=0;entryX=0.5;entryY=0;entryDx=0;entryDy=0;" edge="1" parent="227" source="8" target="7">
                    <mxGeometry relative="1" as="geometry"/>
                </mxCell>
                <mxCell id="8" value="setup new signal handlers" style="rounded=0;whiteSpace=wrap;html=1;" vertex="1" parent="227">
                    <mxGeometry x="120" y="340" width="120" height="60" as="geometry"/>
                </mxCell>
                <mxCell id="11" value="we are a tty" style="text;html=1;align=center;verticalAlign=middle;whiteSpace=wrap;rounded=0;" vertex="1" parent="227">
                    <mxGeometry x="90" y="200" width="60" height="30" as="geometry"/>
                </mxCell>
                <mxCell id="12" value="not a tty" style="text;html=1;align=center;verticalAlign=middle;whiteSpace=wrap;rounded=0;" vertex="1" parent="227">
                    <mxGeometry x="350" y="210" width="60" height="30" as="geometry"/>
                </mxCell>
                <mxCell id="173" style="edgeStyle=none;html=1;exitX=0.5;exitY=1;exitDx=0;exitDy=0;entryX=0.5;entryY=0;entryDx=0;entryDy=0;" edge="1" parent="227" source="32" target="172">
                    <mxGeometry relative="1" as="geometry"/>
                </mxCell>
                <mxCell id="32" value="tokenise line read" style="rounded=0;whiteSpace=wrap;html=1;" vertex="1" parent="227">
                    <mxGeometry x="30" y="690" width="120" height="60" as="geometry"/>
                </mxCell>
                <mxCell id="220" style="edgeStyle=none;html=1;exitX=1;exitY=0.5;exitDx=0;exitDy=0;entryX=0;entryY=0.5;entryDx=0;entryDy=0;" edge="1" parent="227" source="172" target="217">
                    <mxGeometry relative="1" as="geometry"/>
                </mxCell>
                <mxCell id="172" value="validate tokens" style="rounded=0;whiteSpace=wrap;html=1;" vertex="1" parent="227">
                    <mxGeometry x="30" y="921" width="120" height="60" as="geometry"/>
                </mxCell>
                <mxCell id="221" style="edgeStyle=orthogonalEdgeStyle;html=1;exitX=0.5;exitY=1;exitDx=0;exitDy=0;entryX=0.5;entryY=0;entryDx=0;entryDy=0;fillColor=#d5e8d4;strokeColor=#82b366;" edge="1" parent="227" source="217" target="219">
                    <mxGeometry relative="1" as="geometry"/>
                </mxCell>
                <mxCell id="222" style="edgeStyle=none;html=1;exitX=0.5;exitY=0;exitDx=0;exitDy=0;fillColor=#f8cecc;strokeColor=#b85450;" edge="1" parent="227" source="217" target="218">
                    <mxGeometry relative="1" as="geometry"/>
                </mxCell>
                <mxCell id="217" value="are tokens valid" style="rounded=0;whiteSpace=wrap;html=1;" vertex="1" parent="227">
                    <mxGeometry x="230" y="921" width="120" height="60" as="geometry"/>
                </mxCell>
                <mxCell id="225" style="edgeStyle=none;html=1;exitX=1;exitY=0.5;exitDx=0;exitDy=0;entryX=0;entryY=0.5;entryDx=0;entryDy=0;fillColor=#f8cecc;strokeColor=#b85450;" edge="1" parent="227" source="218" target="223">
                    <mxGeometry relative="1" as="geometry"/>
                </mxCell>
                <mxCell id="226" style="edgeStyle=orthogonalEdgeStyle;html=1;exitX=0.5;exitY=0;exitDx=0;exitDy=0;entryX=0;entryY=0.5;entryDx=0;entryDy=0;fillColor=#d5e8d4;strokeColor=#82b366;" edge="1" parent="227" source="218" target="224">
                    <mxGeometry relative="1" as="geometry"/>
                </mxCell>
                <mxCell id="218" value="are tokens in a fixable state?" style="rounded=0;whiteSpace=wrap;html=1;" vertex="1" parent="227">
                    <mxGeometry x="230" y="810" width="120" height="60" as="geometry"/>
                </mxCell>
                <mxCell id="219" value="create AST" style="rounded=0;whiteSpace=wrap;html=1;" vertex="1" parent="227">
                    <mxGeometry x="230" y="1050" width="120" height="60" as="geometry"/>
                </mxCell>
                <mxCell id="223" value="READLINE SUBLOOP" style="rounded=0;whiteSpace=wrap;html=1;" vertex="1" parent="227">
                    <mxGeometry x="390" y="810" width="120" height="60" as="geometry"/>
                </mxCell>
                <mxCell id="228" style="edgeStyle=orthogonalEdgeStyle;html=1;exitX=0.5;exitY=0;exitDx=0;exitDy=0;entryX=1;entryY=1;entryDx=0;entryDy=0;" edge="1" parent="227" source="224" target="7">
                    <mxGeometry relative="1" as="geometry"/>
                </mxCell>
                <mxCell id="224" value="cleanup and return to prompt" style="rounded=0;whiteSpace=wrap;html=1;" vertex="1" parent="227">
                    <mxGeometry x="390" y="710" width="120" height="60" as="geometry"/>
                </mxCell>
                <mxCell id="31" style="edgeStyle=none;html=1;exitX=1;exitY=1;exitDx=0;exitDy=0;endArrow=none;endFill=0;entryX=0;entryY=1;entryDx=0;entryDy=0;entryPerimeter=0;dashed=1;" edge="1" parent="1" source="7" target="16">
                    <mxGeometry relative="1" as="geometry">
                        <mxPoint x="780" y="710" as="targetPoint"/>
                    </mxGeometry>
                </mxCell>
                <mxCell id="16" value="" style="whiteSpace=wrap;html=1;recursiveResize=0;collapsible=0;dropTarget=1;container=1;imageAspect=0;perimeter=none;resizeWidth=1;resizeHeight=1;" vertex="1" parent="1">
                    <mxGeometry x="1340" y="-310" width="470" height="310" as="geometry"/>
                </mxCell>
                <mxCell id="35" style="edgeStyle=none;html=1;exitX=1;exitY=0.5;exitDx=0;exitDy=0;entryX=0;entryY=0.5;entryDx=0;entryDy=0;" edge="1" parent="16" source="17" target="34">
                    <mxGeometry relative="1" as="geometry"/>
                </mxCell>
                <mxCell id="17" value="readline" style="rounded=0;whiteSpace=wrap;html=1;" vertex="1" parent="16">
                    <mxGeometry x="10" y="10" width="120" height="60" as="geometry"/>
                </mxCell>
                <mxCell id="21" style="edgeStyle=orthogonalEdgeStyle;html=1;exitX=0.5;exitY=1;exitDx=0;exitDy=0;entryX=0.5;entryY=0;entryDx=0;entryDy=0;fillColor=#f8cecc;strokeColor=#b85450;" edge="1" parent="16" source="18" target="20">
                    <mxGeometry relative="1" as="geometry"/>
                </mxCell>
                <mxCell id="26" style="edgeStyle=orthogonalEdgeStyle;html=1;exitX=1;exitY=0.5;exitDx=0;exitDy=0;entryX=0.5;entryY=0;entryDx=0;entryDy=0;fillColor=#d5e8d4;strokeColor=#82b366;" edge="1" parent="16" source="18" target="22">
                    <mxGeometry relative="1" as="geometry"/>
                </mxCell>
                <mxCell id="18" value="does the line read contain a newline?" style="rounded=0;whiteSpace=wrap;html=1;" vertex="1" parent="16">
                    <mxGeometry x="270" y="10" width="120" height="60" as="geometry"/>
                </mxCell>
                <mxCell id="20" value="return line read" style="rounded=0;whiteSpace=wrap;html=1;" vertex="1" parent="16">
                    <mxGeometry y="250" width="120" height="60" as="geometry"/>
                </mxCell>
                <mxCell id="25" style="edgeStyle=none;html=1;exitX=0.5;exitY=1;exitDx=0;exitDy=0;entryX=0.5;entryY=0;entryDx=0;entryDy=0;" edge="1" parent="16" source="22" target="23">
                    <mxGeometry relative="1" as="geometry"/>
                </mxCell>
                <mxCell id="22" value="ft_split newline" style="rounded=0;whiteSpace=wrap;html=1;" vertex="1" parent="16">
                    <mxGeometry x="340" y="110" width="120" height="60" as="geometry"/>
                </mxCell>
                <mxCell id="24" style="edgeStyle=orthogonalEdgeStyle;html=1;exitX=0.5;exitY=1;exitDx=0;exitDy=0;entryX=1;entryY=0.5;entryDx=0;entryDy=0;" edge="1" parent="16" source="23" target="20">
                    <mxGeometry relative="1" as="geometry"/>
                </mxCell>
                <mxCell id="23" value="store lines n+1...&lt;div&gt;in array somewhere&lt;/div&gt;" style="rounded=0;whiteSpace=wrap;html=1;" vertex="1" parent="16">
                    <mxGeometry x="340" y="180" width="120" height="60" as="geometry"/>
                </mxCell>
                <mxCell id="28" value="newline" style="text;html=1;align=center;verticalAlign=middle;whiteSpace=wrap;rounded=0;" vertex="1" parent="16">
                    <mxGeometry x="400" y="50" width="60" height="30" as="geometry"/>
                </mxCell>
                <mxCell id="29" value="no newline" style="text;html=1;align=center;verticalAlign=middle;whiteSpace=wrap;rounded=0;" vertex="1" parent="16">
                    <mxGeometry x="220" y="130" width="60" height="30" as="geometry"/>
                </mxCell>
                <mxCell id="36" style="edgeStyle=none;html=1;exitX=1;exitY=0.5;exitDx=0;exitDy=0;entryX=0;entryY=0.5;entryDx=0;entryDy=0;" edge="1" parent="16" source="34" target="18">
                    <mxGeometry relative="1" as="geometry"/>
                </mxCell>
                <mxCell id="34" value="store line read so we can add it to history" style="rounded=0;whiteSpace=wrap;html=1;" vertex="1" parent="16">
                    <mxGeometry x="140" y="10" width="120" height="60" as="geometry"/>
                </mxCell>
                <mxCell id="30" style="edgeStyle=none;html=1;exitX=1;exitY=0;exitDx=0;exitDy=0;entryX=0.001;entryY=0.011;entryDx=0;entryDy=0;entryPerimeter=0;endArrow=none;endFill=0;dashed=1;" edge="1" parent="1" source="7" target="16">
                    <mxGeometry relative="1" as="geometry"/>
                </mxCell>
                <mxCell id="40" style="edgeStyle=none;html=1;exitX=0;exitY=0;exitDx=0;exitDy=0;entryX=1;entryY=0;entryDx=0;entryDy=0;endArrow=none;endFill=0;dashed=1;" edge="1" parent="1" source="32" target="39">
                    <mxGeometry relative="1" as="geometry"/>
                </mxCell>
                <mxCell id="41" style="edgeStyle=none;html=1;exitX=0;exitY=1;exitDx=0;exitDy=0;entryX=1;entryY=1;entryDx=0;entryDy=0;endArrow=none;endFill=0;dashed=1;" edge="1" parent="1" source="32" target="39">
                    <mxGeometry relative="1" as="geometry"/>
                </mxCell>
                <mxCell id="39" value="" style="rounded=0;whiteSpace=wrap;html=1;container=1;dropTarget=1;collapsible=0;recursiveResize=0;" vertex="1" parent="1">
                    <mxGeometry x="-540" y="-359" width="620" height="530" as="geometry"/>
                </mxCell>
                <mxCell id="57" style="edgeStyle=none;html=1;exitX=0.5;exitY=1;exitDx=0;exitDy=0;entryX=0.5;entryY=0;entryDx=0;entryDy=0;" edge="1" parent="39" source="42" target="48">
                    <mxGeometry relative="1" as="geometry"/>
                </mxCell>
                <mxCell id="42" value="take ptr to start of string" style="rounded=0;whiteSpace=wrap;html=1;" vertex="1" parent="39">
                    <mxGeometry x="70" y="20" width="120" height="60" as="geometry"/>
                </mxCell>
                <mxCell id="60" style="edgeStyle=none;html=1;exitX=0.5;exitY=1;exitDx=0;exitDy=0;entryX=0.5;entryY=0;entryDx=0;entryDy=0;" edge="1" parent="39" source="43" target="46">
                    <mxGeometry relative="1" as="geometry"/>
                </mxCell>
                <mxCell id="43" value="increment end index until the end of token is found." style="rounded=0;whiteSpace=wrap;html=1;" vertex="1" parent="39">
                    <mxGeometry x="70" y="180" width="120" height="60" as="geometry"/>
                </mxCell>
                <mxCell id="63" style="edgeStyle=none;html=1;exitX=1;exitY=0.25;exitDx=0;exitDy=0;entryX=0;entryY=0.25;entryDx=0;entryDy=0;" edge="1" parent="39" source="46" target="47">
                    <mxGeometry relative="1" as="geometry"/>
                </mxCell>
                <mxCell id="46" value="copy the substring from index start to index end" style="rounded=0;whiteSpace=wrap;html=1;" vertex="1" parent="39">
                    <mxGeometry x="70" y="260" width="120" height="60" as="geometry"/>
                </mxCell>
                <mxCell id="64" style="edgeStyle=none;html=1;exitX=1;exitY=0.25;exitDx=0;exitDy=0;entryX=0;entryY=0.25;entryDx=0;entryDy=0;" edge="1" parent="39" source="47" target="51">
                    <mxGeometry relative="1" as="geometry"/>
                </mxCell>
                <mxCell id="47" value="check what type of token it is" style="rounded=0;whiteSpace=wrap;html=1;" vertex="1" parent="39">
                    <mxGeometry x="210" y="260" width="120" height="60" as="geometry"/>
                </mxCell>
                <mxCell id="58" style="edgeStyle=none;html=1;exitX=0.5;exitY=1;exitDx=0;exitDy=0;entryX=0.5;entryY=0;entryDx=0;entryDy=0;" edge="1" parent="39" source="48" target="43">
                    <mxGeometry relative="1" as="geometry"/>
                </mxCell>
                <mxCell id="48" value="create a start index and end index" style="rounded=0;whiteSpace=wrap;html=1;" vertex="1" parent="39">
                    <mxGeometry x="70" y="100" width="120" height="60" as="geometry"/>
                </mxCell>
                <mxCell id="62" style="edgeStyle=none;html=1;exitX=0.5;exitY=1;exitDx=0;exitDy=0;entryX=0.5;entryY=0;entryDx=0;entryDy=0;" edge="1" parent="39" source="50" target="53">
                    <mxGeometry relative="1" as="geometry"/>
                </mxCell>
                <mxCell id="50" value="set start index to end index, increment end index" style="rounded=0;whiteSpace=wrap;html=1;" vertex="1" parent="39">
                    <mxGeometry x="70" y="340" width="120" height="60" as="geometry"/>
                </mxCell>
                <mxCell id="65" style="edgeStyle=none;html=1;exitX=1;exitY=0.25;exitDx=0;exitDy=0;entryX=0;entryY=0.25;entryDx=0;entryDy=0;" edge="1" parent="39" source="51" target="52">
                    <mxGeometry relative="1" as="geometry"/>
                </mxCell>
                <mxCell id="51" value="create t_token with type and substring." style="rounded=0;whiteSpace=wrap;html=1;" vertex="1" parent="39">
                    <mxGeometry x="345" y="260" width="120" height="60" as="geometry"/>
                </mxCell>
                <mxCell id="66" style="edgeStyle=orthogonalEdgeStyle;html=1;exitX=0.25;exitY=1;exitDx=0;exitDy=0;entryX=0.75;entryY=0;entryDx=0;entryDy=0;" edge="1" parent="39" source="52" target="50">
                    <mxGeometry relative="1" as="geometry"/>
                </mxCell>
                <mxCell id="52" value="add new token to the token list" style="rounded=0;whiteSpace=wrap;html=1;" vertex="1" parent="39">
                    <mxGeometry x="480" y="260" width="120" height="60" as="geometry"/>
                </mxCell>
                <mxCell id="55" style="edgeStyle=orthogonalEdgeStyle;html=1;exitX=1;exitY=0.5;exitDx=0;exitDy=0;entryX=0.5;entryY=0;entryDx=0;entryDy=0;fillColor=#d5e8d4;strokeColor=#82b366;" edge="1" parent="39" source="53" target="54">
                    <mxGeometry relative="1" as="geometry"/>
                </mxCell>
                <mxCell id="53" value="have we reached the end of the string?" style="rounded=0;whiteSpace=wrap;html=1;" vertex="1" parent="39">
                    <mxGeometry x="70" y="420" width="120" height="60" as="geometry"/>
                </mxCell>
                <mxCell id="54" value="return token list" style="rounded=0;whiteSpace=wrap;html=1;" vertex="1" parent="39">
                    <mxGeometry x="500" y="470" width="120" height="60" as="geometry"/>
                </mxCell>
                <mxCell id="56" style="edgeStyle=orthogonalEdgeStyle;html=1;exitX=0;exitY=0.5;exitDx=0;exitDy=0;entryX=0;entryY=0.5;entryDx=0;entryDy=0;fillColor=#f8cecc;strokeColor=#b85450;" edge="1" parent="39" source="53" target="43">
                    <mxGeometry relative="1" as="geometry">
                        <mxPoint x="10" y="435" as="sourcePoint"/>
                        <mxPoint x="10" y="210" as="targetPoint"/>
                        <Array as="points">
                            <mxPoint x="20" y="450"/>
                            <mxPoint x="20" y="210"/>
                        </Array>
                    </mxGeometry>
                </mxCell>
                <mxCell id="70" value="not the end" style="text;html=1;align=center;verticalAlign=middle;whiteSpace=wrap;rounded=0;" vertex="1" parent="39">
                    <mxGeometry x="10" y="450" width="60" height="30" as="geometry"/>
                </mxCell>
                <mxCell id="71" value="end of string" style="text;html=1;align=center;verticalAlign=middle;whiteSpace=wrap;rounded=0;" vertex="1" parent="39">
                    <mxGeometry x="190" y="420" width="60" height="30" as="geometry"/>
                </mxCell>
                <mxCell id="44" value="token deliminators" style="rounded=0;whiteSpace=wrap;html=1;shape=table;startSize=30;container=1;collapsible=0;childLayout=tableLayout;fontSize=16;swimlaneLine=1;strokeColor=default;perimeterSpacing=1;" vertex="1" parent="1">
                    <mxGeometry x="-1430" y="-410" width="640" height="940" as="geometry"/>
                </mxCell>
                <mxCell id="80" value="" style="shape=tableRow;horizontal=0;startSize=0;swimlaneHead=0;swimlaneBody=0;strokeColor=default;top=0;left=0;bottom=0;right=0;collapsible=0;dropTarget=0;fillColor=none;points=[[0,0.5],[1,0.5]];portConstraint=eastwest;fontSize=16;swimlaneLine=0;perimeterSpacing=1;swimlaneFillColor=light-dark(transparent,#FFA3C4);" vertex="1" parent="44">
                    <mxGeometry y="30" width="640" height="70" as="geometry"/>
                </mxCell>
                <mxCell id="81" value="Token Type" style="shape=partialRectangle;html=1;whiteSpace=wrap;connectable=0;strokeColor=default;overflow=hidden;fillColor=none;top=0;left=0;bottom=0;right=0;pointerEvents=1;fontSize=16;swimlaneLine=0;perimeterSpacing=1;swimlaneFillColor=light-dark(transparent,#FFA3C4);" vertex="1" parent="80">
                    <mxGeometry width="213" height="70" as="geometry">
                        <mxRectangle width="213" height="70" as="alternateBounds"/>
                    </mxGeometry>
                </mxCell>
                <mxCell id="82" value="Token ends with" style="shape=partialRectangle;html=1;whiteSpace=wrap;connectable=0;strokeColor=default;overflow=hidden;fillColor=none;top=0;left=0;bottom=0;right=0;pointerEvents=1;fontSize=16;swimlaneLine=0;perimeterSpacing=1;swimlaneFillColor=light-dark(transparent,#FFA3C4);" vertex="1" parent="80">
                    <mxGeometry x="213" width="214" height="70" as="geometry">
                        <mxRectangle width="214" height="70" as="alternateBounds"/>
                    </mxGeometry>
                </mxCell>
                <mxCell id="83" value="Notes" style="shape=partialRectangle;html=1;whiteSpace=wrap;connectable=0;strokeColor=default;overflow=hidden;fillColor=none;top=0;left=0;bottom=0;right=0;pointerEvents=1;fontSize=16;swimlaneLine=0;perimeterSpacing=1;swimlaneFillColor=light-dark(transparent,#FFA3C4);" vertex="1" parent="80">
                    <mxGeometry x="427" width="213" height="70" as="geometry">
                        <mxRectangle width="213" height="70" as="alternateBounds"/>
                    </mxGeometry>
                </mxCell>
                <mxCell id="76" value="" style="shape=tableRow;horizontal=0;startSize=0;swimlaneHead=0;swimlaneBody=0;strokeColor=default;top=0;left=0;bottom=0;right=0;collapsible=0;dropTarget=0;fillColor=none;points=[[0,0.5],[1,0.5]];portConstraint=eastwest;fontSize=16;swimlaneLine=0;perimeterSpacing=1;swimlaneFillColor=light-dark(transparent,#FFA3C4);" vertex="1" parent="44">
                    <mxGeometry y="100" width="640" height="70" as="geometry"/>
                </mxCell>
                <mxCell id="77" value="TOK_WORD" style="shape=partialRectangle;html=1;whiteSpace=wrap;connectable=0;strokeColor=default;overflow=hidden;fillColor=none;top=0;left=0;bottom=0;right=0;pointerEvents=1;fontSize=16;swimlaneLine=0;perimeterSpacing=1;swimlaneFillColor=light-dark(transparent,#FFA3C4);" vertex="1" parent="76">
                    <mxGeometry width="213" height="70" as="geometry">
                        <mxRectangle width="213" height="70" as="alternateBounds"/>
                    </mxGeometry>
                </mxCell>
                <mxCell id="78" value="whitespace" style="shape=partialRectangle;html=1;whiteSpace=wrap;connectable=0;strokeColor=default;overflow=hidden;fillColor=none;top=0;left=0;bottom=0;right=0;pointerEvents=1;fontSize=16;swimlaneLine=0;perimeterSpacing=1;swimlaneFillColor=light-dark(transparent,#FFA3C4);" vertex="1" parent="76">
                    <mxGeometry x="213" width="214" height="70" as="geometry">
                        <mxRectangle width="214" height="70" as="alternateBounds"/>
                    </mxGeometry>
                </mxCell>
                <mxCell id="79" value="unless in quotes, or whitespace is escapes &quot; \ &quot;" style="shape=partialRectangle;html=1;whiteSpace=wrap;connectable=0;strokeColor=default;overflow=hidden;fillColor=none;top=0;left=0;bottom=0;right=0;pointerEvents=1;fontSize=16;swimlaneLine=0;perimeterSpacing=1;swimlaneFillColor=light-dark(transparent,#FFA3C4);" vertex="1" parent="76">
                    <mxGeometry x="427" width="213" height="70" as="geometry">
                        <mxRectangle width="213" height="70" as="alternateBounds"/>
                    </mxGeometry>
                </mxCell>
                <mxCell id="72" value="" style="shape=tableRow;horizontal=0;startSize=0;swimlaneHead=0;swimlaneBody=0;strokeColor=default;top=0;left=0;bottom=0;right=0;collapsible=0;dropTarget=0;fillColor=none;points=[[0,0.5],[1,0.5]];portConstraint=eastwest;fontSize=16;swimlaneLine=0;perimeterSpacing=1;swimlaneFillColor=light-dark(transparent,#FFA3C4);" vertex="1" parent="44">
                    <mxGeometry y="170" width="640" height="70" as="geometry"/>
                </mxCell>
                <mxCell id="73" value="TOK_PIPE" style="shape=partialRectangle;html=1;whiteSpace=wrap;connectable=0;strokeColor=default;overflow=hidden;fillColor=none;top=0;left=0;bottom=0;right=0;pointerEvents=1;fontSize=16;swimlaneLine=0;perimeterSpacing=1;swimlaneFillColor=light-dark(transparent,#FFA3C4);" vertex="1" parent="72">
                    <mxGeometry width="213" height="70" as="geometry">
                        <mxRectangle width="213" height="70" as="alternateBounds"/>
                    </mxGeometry>
                </mxCell>
                <mxCell id="74" value="Pipe &quot; | &quot;" style="shape=partialRectangle;html=1;whiteSpace=wrap;connectable=0;strokeColor=default;overflow=hidden;fillColor=none;top=0;left=0;bottom=0;right=0;pointerEvents=1;fontSize=16;swimlaneLine=0;perimeterSpacing=1;swimlaneFillColor=light-dark(transparent,#FFA3C4);" vertex="1" parent="72">
                    <mxGeometry x="213" width="214" height="70" as="geometry">
                        <mxRectangle width="214" height="70" as="alternateBounds"/>
                    </mxGeometry>
                </mxCell>
                <mxCell id="75" value="needs to have words left and right?" style="shape=partialRectangle;html=1;whiteSpace=wrap;connectable=0;strokeColor=default;overflow=hidden;fillColor=none;top=0;left=0;bottom=0;right=0;pointerEvents=1;fontSize=16;swimlaneLine=0;perimeterSpacing=1;swimlaneFillColor=light-dark(transparent,#FFA3C4);" vertex="1" parent="72">
                    <mxGeometry x="427" width="213" height="70" as="geometry">
                        <mxRectangle width="213" height="70" as="alternateBounds"/>
                    </mxGeometry>
                </mxCell>
                <mxCell id="92" value="" style="shape=tableRow;horizontal=0;startSize=0;swimlaneHead=0;swimlaneBody=0;strokeColor=default;top=0;left=0;bottom=0;right=0;collapsible=0;dropTarget=0;fillColor=none;points=[[0,0.5],[1,0.5]];portConstraint=eastwest;fontSize=16;swimlaneLine=0;perimeterSpacing=1;swimlaneFillColor=light-dark(transparent,#FFA3C4);" vertex="1" parent="44">
                    <mxGeometry y="240" width="640" height="70" as="geometry"/>
                </mxCell>
                <mxCell id="93" value="TOK_REDIR_OUT" style="shape=partialRectangle;html=1;whiteSpace=wrap;connectable=0;strokeColor=default;overflow=hidden;fillColor=none;top=0;left=0;bottom=0;right=0;pointerEvents=1;fontSize=16;swimlaneLine=0;perimeterSpacing=1;swimlaneFillColor=light-dark(transparent,#FFA3C4);" vertex="1" parent="92">
                    <mxGeometry width="213" height="70" as="geometry">
                        <mxRectangle width="213" height="70" as="alternateBounds"/>
                    </mxGeometry>
                </mxCell>
                <mxCell id="94" value="Greater than &quot; &amp;gt; &quot;" style="shape=partialRectangle;html=1;whiteSpace=wrap;connectable=0;strokeColor=default;overflow=hidden;fillColor=none;top=0;left=0;bottom=0;right=0;pointerEvents=1;fontSize=16;swimlaneLine=0;perimeterSpacing=1;swimlaneFillColor=light-dark(transparent,#FFA3C4);" vertex="1" parent="92">
                    <mxGeometry x="213" width="214" height="70" as="geometry">
                        <mxRectangle width="214" height="70" as="alternateBounds"/>
                    </mxGeometry>
                </mxCell>
                <mxCell id="95" value="needs to have words on left and right?" style="shape=partialRectangle;html=1;whiteSpace=wrap;connectable=0;strokeColor=default;overflow=hidden;fillColor=none;top=0;left=0;bottom=0;right=0;pointerEvents=1;fontSize=16;swimlaneLine=0;perimeterSpacing=1;swimlaneFillColor=light-dark(transparent,#FFA3C4);" vertex="1" parent="92">
                    <mxGeometry x="427" width="213" height="70" as="geometry">
                        <mxRectangle width="213" height="70" as="alternateBounds"/>
                    </mxGeometry>
                </mxCell>
                <mxCell id="88" value="" style="shape=tableRow;horizontal=0;startSize=0;swimlaneHead=0;swimlaneBody=0;strokeColor=default;top=0;left=0;bottom=0;right=0;collapsible=0;dropTarget=0;fillColor=none;points=[[0,0.5],[1,0.5]];portConstraint=eastwest;fontSize=16;swimlaneLine=0;perimeterSpacing=1;swimlaneFillColor=light-dark(transparent,#FFA3C4);" vertex="1" parent="44">
                    <mxGeometry y="310" width="640" height="70" as="geometry"/>
                </mxCell>
                <mxCell id="89" value="TOK_REDIR_APPEND" style="shape=partialRectangle;html=1;whiteSpace=wrap;connectable=0;strokeColor=default;overflow=hidden;fillColor=none;top=0;left=0;bottom=0;right=0;pointerEvents=1;fontSize=16;swimlaneLine=0;perimeterSpacing=1;swimlaneFillColor=light-dark(transparent,#FFA3C4);" vertex="1" parent="88">
                    <mxGeometry width="213" height="70" as="geometry">
                        <mxRectangle width="213" height="70" as="alternateBounds"/>
                    </mxGeometry>
                </mxCell>
                <mxCell id="90" value="Double greater than &quot; &amp;gt;&amp;gt; &quot;" style="shape=partialRectangle;html=1;whiteSpace=wrap;connectable=0;strokeColor=default;overflow=hidden;fillColor=none;top=0;left=0;bottom=0;right=0;pointerEvents=1;fontSize=16;swimlaneLine=0;perimeterSpacing=1;swimlaneFillColor=light-dark(transparent,#FFA3C4);" vertex="1" parent="88">
                    <mxGeometry x="213" width="214" height="70" as="geometry">
                        <mxRectangle width="214" height="70" as="alternateBounds"/>
                    </mxGeometry>
                </mxCell>
                <mxCell id="91" value="needs to have words left and right?" style="shape=partialRectangle;html=1;whiteSpace=wrap;connectable=0;strokeColor=default;overflow=hidden;fillColor=none;top=0;left=0;bottom=0;right=0;pointerEvents=1;fontSize=16;swimlaneLine=0;perimeterSpacing=1;swimlaneFillColor=light-dark(transparent,#FFA3C4);" vertex="1" parent="88">
                    <mxGeometry x="427" width="213" height="70" as="geometry">
                        <mxRectangle width="213" height="70" as="alternateBounds"/>
                    </mxGeometry>
                </mxCell>
                <mxCell id="84" value="" style="shape=tableRow;horizontal=0;startSize=0;swimlaneHead=0;swimlaneBody=0;strokeColor=default;top=0;left=0;bottom=0;right=0;collapsible=0;dropTarget=0;fillColor=none;points=[[0,0.5],[1,0.5]];portConstraint=eastwest;fontSize=16;swimlaneLine=0;perimeterSpacing=1;swimlaneFillColor=light-dark(transparent,#FFA3C4);" vertex="1" parent="44">
                    <mxGeometry y="380" width="640" height="70" as="geometry"/>
                </mxCell>
                <mxCell id="85" value="TOK_REDIR_IN" style="shape=partialRectangle;html=1;whiteSpace=wrap;connectable=0;strokeColor=default;overflow=hidden;fillColor=none;top=0;left=0;bottom=0;right=0;pointerEvents=1;fontSize=16;swimlaneLine=0;perimeterSpacing=1;swimlaneFillColor=light-dark(transparent,#FFA3C4);" vertex="1" parent="84">
                    <mxGeometry width="213" height="70" as="geometry">
                        <mxRectangle width="213" height="70" as="alternateBounds"/>
                    </mxGeometry>
                </mxCell>
                <mxCell id="86" value="Less than &quot; &amp;lt; &quot;" style="shape=partialRectangle;html=1;whiteSpace=wrap;connectable=0;strokeColor=default;overflow=hidden;fillColor=none;top=0;left=0;bottom=0;right=0;pointerEvents=1;fontSize=16;swimlaneLine=0;perimeterSpacing=1;swimlaneFillColor=light-dark(transparent,#FFA3C4);" vertex="1" parent="84">
                    <mxGeometry x="213" width="214" height="70" as="geometry">
                        <mxRectangle width="214" height="70" as="alternateBounds"/>
                    </mxGeometry>
                </mxCell>
                <mxCell id="87" value="needs to have words left and right&amp;nbsp;" style="shape=partialRectangle;html=1;whiteSpace=wrap;connectable=0;strokeColor=default;overflow=hidden;fillColor=none;top=0;left=0;bottom=0;right=0;pointerEvents=1;fontSize=16;swimlaneLine=0;perimeterSpacing=1;swimlaneFillColor=light-dark(transparent,#FFA3C4);" vertex="1" parent="84">
                    <mxGeometry x="427" width="213" height="70" as="geometry">
                        <mxRectangle width="213" height="70" as="alternateBounds"/>
                    </mxGeometry>
                </mxCell>
                <mxCell id="118" value="" style="shape=tableRow;horizontal=0;startSize=0;swimlaneHead=0;swimlaneBody=0;strokeColor=default;top=0;left=0;bottom=0;right=0;collapsible=0;dropTarget=0;fillColor=none;points=[[0,0.5],[1,0.5]];portConstraint=eastwest;fontSize=16;swimlaneLine=0;perimeterSpacing=1;swimlaneFillColor=light-dark(transparent,#FFA3C4);" vertex="1" parent="44">
                    <mxGeometry y="450" width="640" height="70" as="geometry"/>
                </mxCell>
                <mxCell id="119" value="TOK_HEREDOC" style="shape=partialRectangle;html=1;whiteSpace=wrap;connectable=0;strokeColor=default;overflow=hidden;fillColor=none;top=0;left=0;bottom=0;right=0;pointerEvents=1;fontSize=16;swimlaneLine=0;perimeterSpacing=1;swimlaneFillColor=light-dark(transparent,#FFA3C4);" vertex="1" parent="118">
                    <mxGeometry width="213" height="70" as="geometry">
                        <mxRectangle width="213" height="70" as="alternateBounds"/>
                    </mxGeometry>
                </mxCell>
                <mxCell id="120" value="Double less than &quot; &amp;lt;&amp;lt; &quot;" style="shape=partialRectangle;html=1;whiteSpace=wrap;connectable=0;strokeColor=default;overflow=hidden;fillColor=none;top=0;left=0;bottom=0;right=0;pointerEvents=1;fontSize=16;swimlaneLine=0;perimeterSpacing=1;swimlaneFillColor=light-dark(transparent,#FFA3C4);" vertex="1" parent="118">
                    <mxGeometry x="213" width="214" height="70" as="geometry">
                        <mxRectangle width="214" height="70" as="alternateBounds"/>
                    </mxGeometry>
                </mxCell>
                <mxCell id="121" value="needs to have words left and right" style="shape=partialRectangle;html=1;whiteSpace=wrap;connectable=0;strokeColor=default;overflow=hidden;fillColor=none;top=0;left=0;bottom=0;right=0;pointerEvents=1;fontSize=16;swimlaneLine=0;perimeterSpacing=1;swimlaneFillColor=light-dark(transparent,#FFA3C4);" vertex="1" parent="118">
                    <mxGeometry x="427" width="213" height="70" as="geometry">
                        <mxRectangle width="213" height="70" as="alternateBounds"/>
                    </mxGeometry>
                </mxCell>
                <mxCell id="114" value="" style="shape=tableRow;horizontal=0;startSize=0;swimlaneHead=0;swimlaneBody=0;strokeColor=default;top=0;left=0;bottom=0;right=0;collapsible=0;dropTarget=0;fillColor=none;points=[[0,0.5],[1,0.5]];portConstraint=eastwest;fontSize=16;swimlaneLine=0;perimeterSpacing=1;swimlaneFillColor=light-dark(transparent,#FFA3C4);" vertex="1" parent="44">
                    <mxGeometry y="520" width="640" height="70" as="geometry"/>
                </mxCell>
                <mxCell id="115" value="TOK_AFTER" style="shape=partialRectangle;html=1;whiteSpace=wrap;connectable=0;strokeColor=default;overflow=hidden;fillColor=none;top=0;left=0;bottom=0;right=0;pointerEvents=1;fontSize=16;swimlaneLine=0;perimeterSpacing=1;swimlaneFillColor=light-dark(transparent,#FFA3C4);" vertex="1" parent="114">
                    <mxGeometry width="213" height="70" as="geometry">
                        <mxRectangle width="213" height="70" as="alternateBounds"/>
                    </mxGeometry>
                </mxCell>
                <mxCell id="116" value="Semicolon &quot; ; &quot;" style="shape=partialRectangle;html=1;whiteSpace=wrap;connectable=0;strokeColor=default;overflow=hidden;fillColor=none;top=0;left=0;bottom=0;right=0;pointerEvents=1;fontSize=16;swimlaneLine=0;perimeterSpacing=1;swimlaneFillColor=light-dark(transparent,#FFA3C4);" vertex="1" parent="114">
                    <mxGeometry x="213" width="214" height="70" as="geometry">
                        <mxRectangle width="214" height="70" as="alternateBounds"/>
                    </mxGeometry>
                </mxCell>
                <mxCell id="117" value="needs only left word" style="shape=partialRectangle;html=1;whiteSpace=wrap;connectable=0;strokeColor=default;overflow=hidden;fillColor=none;top=0;left=0;bottom=0;right=0;pointerEvents=1;fontSize=16;swimlaneLine=0;perimeterSpacing=1;swimlaneFillColor=light-dark(transparent,#FFA3C4);" vertex="1" parent="114">
                    <mxGeometry x="427" width="213" height="70" as="geometry">
                        <mxRectangle width="213" height="70" as="alternateBounds"/>
                    </mxGeometry>
                </mxCell>
                <mxCell id="130" value="" style="shape=tableRow;horizontal=0;startSize=0;swimlaneHead=0;swimlaneBody=0;strokeColor=default;top=0;left=0;bottom=0;right=0;collapsible=0;dropTarget=0;fillColor=none;points=[[0,0.5],[1,0.5]];portConstraint=eastwest;fontSize=16;swimlaneLine=0;perimeterSpacing=1;swimlaneFillColor=light-dark(transparent,#FFA3C4);" vertex="1" parent="44">
                    <mxGeometry y="590" width="640" height="70" as="geometry"/>
                </mxCell>
                <mxCell id="131" value="TOK_AND_IF" style="shape=partialRectangle;html=1;whiteSpace=wrap;connectable=0;strokeColor=default;overflow=hidden;fillColor=none;top=0;left=0;bottom=0;right=0;pointerEvents=1;fontSize=16;swimlaneLine=0;perimeterSpacing=1;swimlaneFillColor=light-dark(transparent,#FFA3C4);" vertex="1" parent="130">
                    <mxGeometry width="213" height="70" as="geometry">
                        <mxRectangle width="213" height="70" as="alternateBounds"/>
                    </mxGeometry>
                </mxCell>
                <mxCell id="132" value="Double ampersand &quot; &amp;amp;&amp;amp; &quot;" style="shape=partialRectangle;html=1;whiteSpace=wrap;connectable=0;strokeColor=default;overflow=hidden;fillColor=none;top=0;left=0;bottom=0;right=0;pointerEvents=1;fontSize=16;swimlaneLine=0;perimeterSpacing=1;swimlaneFillColor=light-dark(transparent,#FFA3C4);" vertex="1" parent="130">
                    <mxGeometry x="213" width="214" height="70" as="geometry">
                        <mxRectangle width="214" height="70" as="alternateBounds"/>
                    </mxGeometry>
                </mxCell>
                <mxCell id="133" value="needs words left and right" style="shape=partialRectangle;html=1;whiteSpace=wrap;connectable=0;strokeColor=default;overflow=hidden;fillColor=none;top=0;left=0;bottom=0;right=0;pointerEvents=1;fontSize=16;swimlaneLine=0;perimeterSpacing=1;swimlaneFillColor=light-dark(transparent,#FFA3C4);" vertex="1" parent="130">
                    <mxGeometry x="427" width="213" height="70" as="geometry">
                        <mxRectangle width="213" height="70" as="alternateBounds"/>
                    </mxGeometry>
                </mxCell>
                <mxCell id="126" value="" style="shape=tableRow;horizontal=0;startSize=0;swimlaneHead=0;swimlaneBody=0;strokeColor=default;top=0;left=0;bottom=0;right=0;collapsible=0;dropTarget=0;fillColor=none;points=[[0,0.5],[1,0.5]];portConstraint=eastwest;fontSize=16;swimlaneLine=0;perimeterSpacing=1;swimlaneFillColor=light-dark(transparent,#FFA3C4);" vertex="1" parent="44">
                    <mxGeometry y="660" width="640" height="70" as="geometry"/>
                </mxCell>
                <mxCell id="127" value="TOK_OR_IF" style="shape=partialRectangle;html=1;whiteSpace=wrap;connectable=0;strokeColor=default;overflow=hidden;fillColor=none;top=0;left=0;bottom=0;right=0;pointerEvents=1;fontSize=16;swimlaneLine=0;perimeterSpacing=1;swimlaneFillColor=light-dark(transparent,#FFA3C4);" vertex="1" parent="126">
                    <mxGeometry width="213" height="70" as="geometry">
                        <mxRectangle width="213" height="70" as="alternateBounds"/>
                    </mxGeometry>
                </mxCell>
                <mxCell id="128" value="Double pipe &quot; || &quot;" style="shape=partialRectangle;html=1;whiteSpace=wrap;connectable=0;strokeColor=default;overflow=hidden;fillColor=none;top=0;left=0;bottom=0;right=0;pointerEvents=1;fontSize=16;swimlaneLine=0;perimeterSpacing=1;swimlaneFillColor=light-dark(transparent,#FFA3C4);" vertex="1" parent="126">
                    <mxGeometry x="213" width="214" height="70" as="geometry">
                        <mxRectangle width="214" height="70" as="alternateBounds"/>
                    </mxGeometry>
                </mxCell>
                <mxCell id="129" value="needs words left and right" style="shape=partialRectangle;html=1;whiteSpace=wrap;connectable=0;strokeColor=default;overflow=hidden;fillColor=none;top=0;left=0;bottom=0;right=0;pointerEvents=1;fontSize=16;swimlaneLine=0;perimeterSpacing=1;swimlaneFillColor=light-dark(transparent,#FFA3C4);" vertex="1" parent="126">
                    <mxGeometry x="427" width="213" height="70" as="geometry">
                        <mxRectangle width="213" height="70" as="alternateBounds"/>
                    </mxGeometry>
                </mxCell>
                <mxCell id="122" value="" style="shape=tableRow;horizontal=0;startSize=0;swimlaneHead=0;swimlaneBody=0;strokeColor=default;top=0;left=0;bottom=0;right=0;collapsible=0;dropTarget=0;fillColor=none;points=[[0,0.5],[1,0.5]];portConstraint=eastwest;fontSize=16;swimlaneLine=0;perimeterSpacing=1;swimlaneFillColor=light-dark(transparent,#FFA3C4);" vertex="1" parent="44">
                    <mxGeometry y="730" width="640" height="70" as="geometry"/>
                </mxCell>
                <mxCell id="123" value="TOK_LPAREN" style="shape=partialRectangle;html=1;whiteSpace=wrap;connectable=0;strokeColor=default;overflow=hidden;fillColor=none;top=0;left=0;bottom=0;right=0;pointerEvents=1;fontSize=16;swimlaneLine=0;perimeterSpacing=1;swimlaneFillColor=light-dark(transparent,#FFA3C4);" vertex="1" parent="122">
                    <mxGeometry width="213" height="70" as="geometry">
                        <mxRectangle width="213" height="70" as="alternateBounds"/>
                    </mxGeometry>
                </mxCell>
                <mxCell id="124" value="Left parenthesis &quot; ( &quot;" style="shape=partialRectangle;html=1;whiteSpace=wrap;connectable=0;strokeColor=default;overflow=hidden;fillColor=none;top=0;left=0;bottom=0;right=0;pointerEvents=1;fontSize=16;swimlaneLine=0;perimeterSpacing=1;swimlaneFillColor=light-dark(transparent,#FFA3C4);" vertex="1" parent="122">
                    <mxGeometry x="213" width="214" height="70" as="geometry">
                        <mxRectangle width="214" height="70" as="alternateBounds"/>
                    </mxGeometry>
                </mxCell>
                <mxCell id="125" value="needs a matching RPAREN token to follow." style="shape=partialRectangle;html=1;whiteSpace=wrap;connectable=0;strokeColor=default;overflow=hidden;fillColor=none;top=0;left=0;bottom=0;right=0;pointerEvents=1;fontSize=16;swimlaneLine=0;perimeterSpacing=1;swimlaneFillColor=light-dark(transparent,#FFA3C4);" vertex="1" parent="122">
                    <mxGeometry x="427" width="213" height="70" as="geometry">
                        <mxRectangle width="213" height="70" as="alternateBounds"/>
                    </mxGeometry>
                </mxCell>
                <mxCell id="110" value="" style="shape=tableRow;horizontal=0;startSize=0;swimlaneHead=0;swimlaneBody=0;strokeColor=default;top=0;left=0;bottom=0;right=0;collapsible=0;dropTarget=0;fillColor=none;points=[[0,0.5],[1,0.5]];portConstraint=eastwest;fontSize=16;swimlaneLine=0;perimeterSpacing=1;swimlaneFillColor=light-dark(transparent,#FFA3C4);" vertex="1" parent="44">
                    <mxGeometry y="800" width="640" height="70" as="geometry"/>
                </mxCell>
                <mxCell id="111" value="TOK_RPAREN" style="shape=partialRectangle;html=1;whiteSpace=wrap;connectable=0;strokeColor=default;overflow=hidden;fillColor=none;top=0;left=0;bottom=0;right=0;pointerEvents=1;fontSize=16;swimlaneLine=0;perimeterSpacing=1;swimlaneFillColor=light-dark(transparent,#FFA3C4);" vertex="1" parent="110">
                    <mxGeometry width="213" height="70" as="geometry">
                        <mxRectangle width="213" height="70" as="alternateBounds"/>
                    </mxGeometry>
                </mxCell>
                <mxCell id="112" value="Right parenthesis &quot; ) &quot;" style="shape=partialRectangle;html=1;whiteSpace=wrap;connectable=0;strokeColor=default;overflow=hidden;fillColor=none;top=0;left=0;bottom=0;right=0;pointerEvents=1;fontSize=16;swimlaneLine=0;perimeterSpacing=1;swimlaneFillColor=light-dark(transparent,#FFA3C4);" vertex="1" parent="110">
                    <mxGeometry x="213" width="214" height="70" as="geometry">
                        <mxRectangle width="214" height="70" as="alternateBounds"/>
                    </mxGeometry>
                </mxCell>
                <mxCell id="113" value="needs to be preceded by LPAREN" style="shape=partialRectangle;html=1;whiteSpace=wrap;connectable=0;strokeColor=default;overflow=hidden;fillColor=none;top=0;left=0;bottom=0;right=0;pointerEvents=1;fontSize=16;swimlaneLine=0;perimeterSpacing=1;swimlaneFillColor=light-dark(transparent,#FFA3C4);" vertex="1" parent="110">
                    <mxGeometry x="427" width="213" height="70" as="geometry">
                        <mxRectangle width="213" height="70" as="alternateBounds"/>
                    </mxGeometry>
                </mxCell>
                <mxCell id="142" value="" style="shape=tableRow;horizontal=0;startSize=0;swimlaneHead=0;swimlaneBody=0;strokeColor=default;top=0;left=0;bottom=0;right=0;collapsible=0;dropTarget=0;fillColor=none;points=[[0,0.5],[1,0.5]];portConstraint=eastwest;fontSize=16;swimlaneLine=0;perimeterSpacing=1;swimlaneFillColor=light-dark(transparent,#FFA3C4);" vertex="1" parent="44">
                    <mxGeometry y="870" width="640" height="70" as="geometry"/>
                </mxCell>
                <mxCell id="143" value="TOK_AMP" style="shape=partialRectangle;html=1;whiteSpace=wrap;connectable=0;strokeColor=default;overflow=hidden;fillColor=none;top=0;left=0;bottom=0;right=0;pointerEvents=1;fontSize=16;swimlaneLine=0;perimeterSpacing=1;swimlaneFillColor=light-dark(transparent,#FFA3C4);" vertex="1" parent="142">
                    <mxGeometry width="213" height="70" as="geometry">
                        <mxRectangle width="213" height="70" as="alternateBounds"/>
                    </mxGeometry>
                </mxCell>
                <mxCell id="144" value="Ampersand &quot; &amp;amp; &quot;" style="shape=partialRectangle;html=1;whiteSpace=wrap;connectable=0;strokeColor=default;overflow=hidden;fillColor=none;top=0;left=0;bottom=0;right=0;pointerEvents=1;fontSize=16;swimlaneLine=0;perimeterSpacing=1;swimlaneFillColor=light-dark(transparent,#FFA3C4);" vertex="1" parent="142">
                    <mxGeometry x="213" width="214" height="70" as="geometry">
                        <mxRectangle width="214" height="70" as="alternateBounds"/>
                    </mxGeometry>
                </mxCell>
                <mxCell id="145" value="needs word to left&amp;nbsp;" style="shape=partialRectangle;html=1;whiteSpace=wrap;connectable=0;strokeColor=default;overflow=hidden;fillColor=none;top=0;left=0;bottom=0;right=0;pointerEvents=1;fontSize=16;swimlaneLine=0;perimeterSpacing=1;swimlaneFillColor=light-dark(transparent,#FFA3C4);" vertex="1" parent="142">
                    <mxGeometry x="427" width="213" height="70" as="geometry">
                        <mxRectangle width="213" height="70" as="alternateBounds"/>
                    </mxGeometry>
                </mxCell>
                <mxCell id="67" style="edgeStyle=none;html=1;exitX=0;exitY=0;exitDx=0;exitDy=0;entryX=1;entryY=0;entryDx=0;entryDy=0;endArrow=none;endFill=0;dashed=1;" edge="1" parent="1" source="43" target="44">
                    <mxGeometry relative="1" as="geometry"/>
                </mxCell>
                <mxCell id="68" style="edgeStyle=none;html=1;exitX=0;exitY=1;exitDx=0;exitDy=0;entryX=1;entryY=1;entryDx=0;entryDy=0;endArrow=none;endFill=0;dashed=1;" edge="1" parent="1" source="43" target="44">
                    <mxGeometry relative="1" as="geometry"/>
                </mxCell>
                <mxCell id="174" value="" style="shape=image;verticalLabelPosition=bottom;labelBackgroundColor=default;verticalAlign=top;aspect=fixed;imageAspect=0;image=data:image/png,iVBORw0KGgoAAAANSUhEUgAAAeAAAACRCAYAAAAb3WtFAAAABHNCSVQICAgIfAhkiAAAABl0RVh0U29mdHdhcmUAZ25vbWUtc2NyZWVuc2hvdO8Dvz4AAAAtdEVYdENyZWF0aW9uIFRpbWUAVGh1IDA4IE1heSAyMDI1IDAxOjE2OjEzIFBNIEJTVPnYmGAAACAASURBVHic7J15VBRX9vg/TbPYLEJgkBZRYQiDCyjuxnFEQpDFLQhOUBRmUdGoiB5RozlqnJkzRHMkSsh3UBxIHGMENeaYHCVD0ImKGqPBDYMGEQONQCCCAray/P4w1M+2ka4mJJjkfc6pw6Hq1rv3vqVv1auqdxVKpVlLU9MDBAKBQCAQ/HSYdLUBAoFAIBD8GhEBWCAQCASCLkAEYIFAIBAIugARgAUCgUAg6AJEABYIBAKBoAvQCcDz589nzZo17Z6wcOFCVq1a9aMaJfj5Y6gfCQQCwa8d06424GnC09OTadOm8bvf/Q6AK1eukJaWRmVlpewyHB0dmTlzJu7u7qjVanJycvjXv/7VIXueffZZZsyYgYeHBwBFRUUkJCTQ0NDQofKee+45li5dyrlz50hISOhQGXJRKBQ/6PzJkycTEhKCra0tVVVVvPHGGxQXFxstIxAIBE8rIgB/z+jRo5kzZw67du0iKSkJhULBlClTWL16NfHx8TQ2Nsoqx9zcnNraWjIzM5k+fXqH7enduzfr16/niy++IDExkfr6evr06dPh8nr06MHMmTO5efNmh8swRGudPf/886jValJTU9FoNOzYscOowOjm5sbs2bNJTEzkypUrODs7U19fb7SMQCAQPM20GYDDwsIIDg5GoVCQnZ3N7t27dY4rlUpiYmIYO3Ys9+7d4/Dhw+zbt09HJiAggIiICBITE4mKisLFxYXa2lo2bdpEYWEhAOPGjWPq1Kmo1WqqqqrIzs7m4MGDtLS0SOUYkhk/fjwvv/yyng87d+7k4MGDssqxsbEhJiaGhIQECgoKpHN27drF4MGDGThwIOfPnwfAzs6OyMhIfHx8sLS0pKSkhIyMDM6ePQtAaWkpaWlpAEyZMuWJFW+ofsLCwigoKODNN9+UznnUtlYmTpxIUFAQ9vb23L17l/z8fLZs2aLXXkuWLOE///kPEyZMeKJNKpUKS0tLamtrefDA+MVZ/Pz8mDRpEuvWrePPf/4zmzdvZsCAATQ1NRlVjqmpKS0tLeTl5dHQ0MDt27c7JCMQCARPM3oB2NPTE41Gw4YNG/D29iY6Opq8vDyuXLkiyXh7e5OVlcXKlSvx8PAgJiaGsrIycnNzdcqysLDgpZdeIiUlhZKSElxdXaXpU39/f6KiokhNTaWgoABnZ2cWLFjAgwcPOHTokGyZzz77jBMnTkg6R44cycKFC3XsNVSOr68v+fn5FBQUoFKpiIqKYsCAARQXF1NVVYVareb8+fNYWFjw2muvcf/+fbZu3UplZSVubm6o1eoOVX579ePl5cWhQ4eIj4/H09OT6upqPvnkE7Kzs3XaISoqisTERK5evYqtrS1Dhw7V0xMREUFZWRmnT59uNwBPmjSJ6dOns2nTJs6cOWO0P+7u7ly/fh2NRgNAQ0ODdGFiDF9//TU3b95k2rRp7Nq1q8MyAoFA8DSjF4Dr6upIT0+npaWFmzdvMnHiRDw8PHQC2p07d3j33XdpampCo9Hg4+NDYGCgXgA2NzcnPT1duuN99A4uPDyc/fv3c+zYMQAqKir46KOP8Pf3l4KrHJnm5maam5sB6NWrF/PmzSMtLY2vv/5atq7+/fuTl5cHwJw5c7C0tGTjxo306dOHxYsXc+nSJQDGjBlDjx49iI2NlZ4L37p1q2M13079KJVKunfvzuTJk/nwww/JzMxkwIABzJ07l4aGBumCQ61Wo9Vq+fLLL9FqtVRXV1NUVKSjY/Dgwfz+979n+fLlHbbTxsaG6OhofHx80Gq1HDt2jE8//ZT6+nrGjx/PpUuXKC4u5vz58yxdupTQ0FCsrKxQKpVG3/3Cw5mDxsZGxowZQ1FRkdSvevbsiYmJCaWlpbJkBAKB4GlGLwBrNBqdKeDa2lqsra11ZEpLS3V+WIuLixk4cKBe4Y2NjVy/fl1vv62tLQ4ODkRGRhIZGalzTKvVypZ5FJVKRXx8PLm5ufz3v/81SpednR3ffvstCoWCkSNHsnLlSjQaDaWlpYwePVqSd3V1paKiwqiXstrjSfVjYvLw5fRr167xwQcfAHDjxg0GDx6Mn5+fFIDPnDnD1KlTeeutt7hw4QKFhYXk5uZK07Hdu3dn4cKFJCUlyXo+mpmZSWZmpt5+Hx8f6SUnW1tbxo0bR1JSEiYmJly8eJGjR48C8Pnnn7N582YmTJhA3759SUtL49SpU+zcuZM7d+7IqhNPT09CQ0NZsmQJjo6OvPrqq5SXl1NYWEhQUBDNzc2cOnXKoMw777wjS59AIBB0FXoBuPVu8lEef6P10QDd1vFWGhoa9GQfRc5UpxwZhUJBbGwsdXV17Nixo0PltAY9hUKh8/zz/v37Onra88dYnlQ/Dx48oKGhQe8urry8HG9vb+n/27dvExcXx4ABA+jfvz9BQUGEhYWxbNkyampq6Nu3L3Z2djqfjZmaPmzyXbt2ERcXJ+ti4sSJEzr94vTp01hZWaFQKLh7966O7JkzZzhz5gxr1qzh/fffZ968eSxYsICNGzfKqpPhw4dTUFBATU0NNTU17NmzhxUrVvDKK69gb29Pfn6+LBmBQCB42unQQhwuLi4olUrp/z59+kjP/eRQU1NDdXW1TjDpiEwr06dPx93dnTfeeEPvbWU55VRWVuLk5ERLSwtnz55lypQpKJVKevfuzYgRIyS5oqIinJyccHR0lOHlD+P69ev07NlTZ5+joyNVVVU6+xobG7lw4QJ79uxh5cqVWFtb069fPwCuXr3K0qVLWbFihbRdu3aN/Px8VqxYQXV1tU5ZVlZWODo6YmFhobO/rYuyuro6veD7OIWFhWRnZ9O/f3/ZftfX1+Pk5CRd1B06dIivvvqKV155BW9vbz7//HNZMgKBQPC006EAbGNjQ1RUFM7Ozvj6+jJq1CiysrKMKmPv3r0EBAQQGhpKr169cHV1JSQkhBkzZhglM2TIEEJDQ0lOTqahoYFu3brRrVs3nQsEQ+VcvHhRmmrevn07lpaWbNmyhT/96U9cvnxZuiPOzc2loqKC5cuX4+XlhZOTE8OGDSM4OFjSZWJigqurK66urpibm2NtbY2rqyu9evUyqn7++9//4uPjQ0hICM7Ozvj7+zNkyBBpuhcefjoVGBhI7969cXBw4IUXXqC5uZlvvvkGeDjFXlpaqrNptVpp/+PPZ0NCQkhOTmbQoEFG2drKlClT8PX1xdHREYVCgYODA2PHjtV5f8AQx48fx9bWllmzZmFmZgbA0aNH6du3L9euXaOqqkqWjEAgEDztdOg74IsXL2Jubs7rr7/OvXv3yMzM5OTJk0aVkZ2djVarZfLkyYSHh6PVaikuLubw4cNGyXh5eaFUKvVWXnr0MyRD5Rw7doywsDDGjx/P0aNHSUpKatNmrVbLunXriIyMJC4uDpVKhUajYc+ePZKMSqXSmW7t2bMnI0eORKPREBcXJ7t+cnNzsbGxYdKkSURGRlJZWUlaWhrHjx+XZOrr6wkJCSEiIgJTU1M0Gg2bN282ajaiM9FoNAQHBzN79my6d+/Oxo0bycvLIz09XXYZlZWVrF+/npkzZ0oXVVVVVaSmphIdHY2vry//+9//ZMkIBALBU41SadYC/Oo3d3f3lu3bt7dERka29OzZs0WpVLbY29u3qFSqLrft57i9+uqrXW6D2MQmNrE9zZtIxvA9hYWFrFixAjMzM1atWkV6ejr//Oc/pWUpBcbRmS+rCQQCwS8RhVJp1tLUZPyqRwKBQCAQCDqOuAMWCAQCgaALEAFYIBAIBIIuQARggUAgEAi6ABGABQKB4BeEn5+fzgJCgqcXnQC8cOFCnWULf0zmz5+v9+2uQCAQGEtSUhIvvvhil+geMWIEGRkZdOvWrUv0t0VBQQFz5swxagU6Qdcg7oB/JHbs2EFAQEBXmyEQPFU8bePiabOnM9BoNCQkJLBgwQJ+85vftCkzefJk/u///o/33nuPpKQk+vbt2yEZAA8PDzIyMqRV6QTy6dBKWAKBQCB4eikqKiI2NrbNY25ubsyePZvExESuXLmCs7OzXrY0OTKCH45eAFYqlcTExDB27Fju3bvH4cOH2bdvn3S8X79+hIeH4+bmhkqloqysjAMHDki5dluZOHEiQUFB2Nvbc/fuXfLz89myZYueAWFhYQQHB6NQKMjOzmb37t16MiqVCktLS2pra3UyFRlDe/bY2NiQkpLC1q1bOXXqlHTOc889R2xsLPPnz6empob58+fj6OhISUkJY8aMwcTERMdmKysr0tLSpPPnzp3L3LlzAUhJSeHTTz+VVYdKpZINGzZQXl7O1q1bATAzM+Pvf/87JSUlT1wq80mMGzeOqVOnolarqaqqIjs7m4MHD+oslhEQEEBERASJiYlERUXh4uJCbW0tmzZtkvIVG5JRKBS8+OKLTJgwATs7O27dusW+fft0ls+Uq8sQhtpCru9y+3Nn2ezg4MA//vEPaV9CQgIXL15k165dneaX3P6zePFibG1tuX37NkOGDKGpqYmPP/6YDz/80Kg6hIcpPSMjI/Hx8cHS0pKSkhIyMjI4e/as7HEhR5epqSnR0dH84Q9/oLm5mY8//lhW3T+KXHvk9udHcXJyYu3atZw7d45///vfkt2G/JLb7p2BqakpLS0t5OXl0dDQIKUvNVZG8MPRC8De3t5kZWWxcuVKPDw8iImJoaysTEp4bm9vz/nz59m9ezd3797Fx8eHRYsWUVlZyVdffSWVERUVRWJiIlevXsXW1pahQ4fqKff09ESj0bBhwwa8vb2Jjo4mLy9Pb/H+SZMmMX36dFmpCdvCkD137tzhzJkz+Pn56QTg8ePH88UXX1BTUyPtGzhwIKdOnWLevHkMHDiQtWvXSjbX1dXxxz/+EXg4tfX+++/r5CZuxVAdNjU1kZiYyMaNG/Hz8+PIkSPMnj0bc3Nztm3bZpTv/v7+REVFkZqaSkFBAc7OzixYsIAHDx5w6NAhHVkLCwteeuklUlJSKCkpwdXVlYaGBtky48ePJzw8nG3btnH16lXpAqa8vJxr164ZrcsQ7bWFXN/l9OfOtPmn8MuY/jNo0CC2b99OcnIybm5urF+/Ho1GI40zOXVoYWHBa6+9xv3799m6dSuVlZW4ubmhVqsBZI8LObpCQ0MZO3YsSUlJVFRUMGvWLKOzk8m1x5j+DODs7MzatWs5duyYdEEl1y8w3O6dxddff83NmzeZNm2ajp3GyrTy4MEDysvLxep3HUAvAN+5c4d3332XpqYmNBoNPj4+BAYGSgG49W8rWVlZPP/88wwbNkz6wVKr1Wi1Wr788ku0Wi3V1dUUFRXpKa+rqyM9PZ2WlhZu3rzJxIkT8fDw6PQOJ8ee7Oxs1qxZwzPPPMN3332HnZ0dgwcPJiEhQUeuvLxcGqyXLl2irKzMaJvl1OG3335LcnIycXFx2NjY4Ofnx5o1a9BqtUb5Hh4ezv79+6U7uoqKCj766CP8/f31ArC5uTnp6enSHV1BQYFeee3JBAcHc/z4cSkRwv79+xkxYgTBwcF6P1hydBnCUFvI8V1OW3SmzT+VX3L7T0VFhaTr+vXrnDp1isDAQCkAy9E1ZswYevToQWxsrJRf+tatW0b7LUdXYGAghw4d4uzZswBs27aNt99+22hdcjCmP/fp04f4+HiysrLYu3ev0X5B5/y2yGHKlCk0NjYyZswYioqKpDHQs2dPTExMKC0tlSXTyo0bN1i8eHGn2vhrQS8AP56mrri4mIEDB0r/W1tbM3XqVLy9vbGzs0OpVGJlZaXTIc+cOcPUqVN56623uHDhAoWFheTm5upNY2g0Gp2rptraWqytrfWMzMzMJDMzs8NOyrHn0qVLVFZW4uvry4EDBxg3bhzV1dWcP39ep6zHE9g3NDS0aXN7yKlDgLNnz5KTk8OsWbPYvn07N2/eNEqPra0tDg4OREZGEhkZqXOsrUDe2NjI9evX2y2zPRm1Ws2RI0d09hUVFeHm5tYhXYZory3k+i63LTrLZjl0hl8gr/+UlZXp/d863uXqcnV1paKiQs9uY5Cjy8rKiu7du1NcXCwdq6qqMpiXuqMY059Xr16NSqXixo0bOvuNaa/O+G0xhKenJ6GhoSxZsgRHR0deffVVysvLKSwsJCgoiObmZk6dOmVQ5p133ulUu36t6AXgx6cRWpOet7JkyRKsra3ZuXMnt27doqmpiRUrVujI3b59m7i4OAYMGED//v0JCgoiLCyMZcuW6UzntpXo/XF9nYEce1paWjhy5Ah+fn4cOHAAX19fcnJy9OqjrWkWY22WU4fw8Fnws88+y4MHD+jfv3+b02RykDt139DQYHAayZCMof5jjC5DyGkLQ77LbYvOsLmtc01M9D9E6Ay/QF7/MTU11TvncQzpUigUnTb92J6uVh2NjY06+x//vzOR25/feecd1Go1L7/8MvHx8Xo5qeW0V2f8thhi+PDhFBQUUFNTQ01NDXv27GHFihW88sor2Nvbk5+fL0tG0DnojX4XFxedQdinTx8pv6xCocDLy4sDBw5w+fJl6erTyclJr+DGxkYuXLjAnj17WLlyJdbW1vTr169DRlpZWeHo6IiFhUWHzpdrz5EjR3ByciIkJAQXFxe9q19j9T3+4wbG1eHs2bOxtrZm9erVDBs2DH9/f6NsqKmpobq6Gm9v7w77YQy3bt3SuztwdXXt0HTkD0WO78a0RWdQV1en872oQqHAwcHBqDKMaVM5/efx8d63b1+pveTqKioqwsnJSdaz2CeNCzm66uvrqa2tlZ4tA1haWmJra2tQr7H2gHH9+eTJk2RkZFBWVkZsbKx0YfVTj0FD1NfX4+TkJAX2Q4cO8dVXX/HKK6/g7e3N559/LktG0DnoBWAbGxuioqJwdnbG19eXUaNGkZWVBTy8Qrt16xbe3t4oFAqUSqU0yB9l9OjRBAYG0rt3bxwcHHjhhRdobm7mm2++6ZCRISEhJCcnM2jQoA6dL9ee7777jnPnzjF79mwuXLigdxVrDBqNhqFDh2Jra4uZmZk0IOXW4ahRowgICODNN9+kuLiYlJQU/vKXvzzxW7wnsXfvXgICAggNDaVXr164uroSEhLCjBkzOuzbk8jKymLs2LH4+vrSs2dPpk2bhru7u96z5p8KQ77LbYvOorCwkN/+9re4uLigUCiYOHEiVlZWRpcjp03l9h8bGxuio6NxdnbGz8+P4cOH88knnxilKzc3l4qKCpYvX46XlxdOTk4MGzaM4OBgPdufNC7k6srKyiIwMJBnnnkGhULB9OnT25xFkEt79hjbn5uamti6dSuurq5Mnz7dKL9+Ko4fP46trS2zZs2Svts9evQoffv25dq1a1RVVcmSEXQOepd+Fy9exNzcnNdff5179+6RmZnJyZMnpeNbtmzhr3/9KykpKdy/f58TJ07oTUnU19cTEhJCREQEpqamaDQaNm/eLN1J/9QYY09OTg7Dhw/n6NGjP0jnzp07mTt3Lm+//TZmZmY6nzcYqkMnJycWLFjAe++9J70slpubi7e3N8uWLWPVqlWy377Nzs5Gq9UyefJkwsPD0Wq1FBcXc/jw4R/kX1vk5ORgZ2dHREQEdnZ2VFRUkJyczNWrVztdlxzk+C6nP3cWp0+fxsvLi7/97W/U19fz2Wef6T0zlIMhv4zpP+fPn0elUknjPSMjg9OnT8vWBQ+fZa5bt47IyEji4uJQqVRoNBr27NmjZ3t740KOrg8++ABbW1s2b97MnTt3OH36NBUVFUbXoRx7OtKfy8vLSU1NZdGiRVy6dInLly//pGPQEJWVlaxfv56ZM2eSnJxMQ0MDVVVVpKamEh0dja+vL//73/9kyQh+OCIf8GMEBAQwY8YMYmJiOvzNsUDwc2Dx4sV069aNTZs2dbUpAsGvErES1veoVCocHR0JDQ0lJydHBF+BQCAQ/KiIAPw9ixYtYujQoZw7d07vOz6BQCAQCDobMQUtEAgEAkEXILIhCQQCgUDQBYgALBAIBAJBFyACsEAgEAgEXYBOAJ4/fz5r1qxp94SFCxeyatWqH9Uowc8fQ/1IDu7u7gYTfcuREQgEgqcR8Rb0I3h6ejJt2jR+97vfAXDlyhXS0tKMWmTe0dGRmTNn4u7ujlqtJicnh3/9618dsufZZ59lxowZeHh4AA+X/EtISOhwCrznnnuOpUuXcu7cOb0sT53Nj7Gmt0AgEPySEAH4e0aPHs2cOXPYtWsXSUlJKBQKpkyZwurVq4mPj5e94Lu5uTm1tbVkZmbqLEdnLL1792b9+vV88cUXJCYmUl9fT58+fTpcXo8ePZg5c6bRGZWMobXOnn/+edRqNampqWg0Gnbs2KGTwUYgEAgETwjAYWFhBAcHo1AoyM7OZvfu3TrHlUolMTExjB07lnv37nH48GH27dunIxMQEEBERASJiYlERUXh4uJCbW0tmzZtkvKpjhs3jqlTp6JWq6mqqiI7O5uDBw/qZAUxJDN+/HhefvllPR927tzJwYMHZZVjY2NDTEwMCQkJOjled+3axeDBgxk4cKCUltDOzo7IyEh8fHywtLSkpKSEjIwMKT9paWkpaWlpwMO8m0/CUP2EhYVRUFDAm2++KZ3TVv7ZiRMnEhQUhL29PXfv3iU/P58tW7botdeSJUv4z3/+w4QJE55ok0qlwtLSktra2g4tROLn58ekSZNYt24df/7zn9m8eTMDBgzQSW8pEAgEgofoBWBPT080Gg0bNmzA29ub6Oho8vLydJJCe3t7k5WVxcqVK/Hw8CAmJoaysjK95OYWFha89NJLpKSkUFJSgqurqzR96u/vT1RUFKmpqRQUFODs7MyCBQt48OCBtNi5HJnPPvuMEydOSDpHjhzJwoULdew1VI6vry/5+fkUFBSgUqmIiopiwIABFBcXU1VVhVqt5vz581hYWPDaa69x//59tm7dSmVlJW5ubjrZWYyhvfrx8vLi0KFDxMfH4+npSXV1NZ988gnZ2dk67RAVFUViYiJXr17F1taWoUOH6umJiIigrKyM06dPtxuAJ02axPTp02WnL3wcd3d3rl+/Lq2x3dDQIF2YCAQCgUAXvQBcV1dHeno6LS0t3Lx5k4kTJ+Lh4aET0O7cucO7775LU1MTGo0GHx8fAgMD9QKwubk56enp0h3vo3dw4eHh7N+/n2PHjgFQUVHBRx99hL+/vxRc5cg0NzdLeYV79erFvHnzSEtL4+uvv5atq3///uTl5QEwZ84cLC0t2bhxI3369GHx4sVcunQJgDFjxtCjRw9iY2Ol58I/JNXek+pHqVTSvXt3Jk+ezIcffkhmZiYDBgxg7ty5NDQ0SBccarUarVbLl19+iVarpbq6Wlp8v5XBgwfz+9//nuXLl3fYztaMOT4+Pmi1Wo4dO8ann35KfX0948eP59KlSxQXF3P+/HmWLl1KaGgoVlZWKJVKcfcrEAgET0AvAGs0Gp0p4NraWr30bKWlpTo/rMXFxQwcOFCv8MbGRq5fv66339bWFgcHByIjI4mMjNQ5ptVqZcs8ikqlIj4+ntzcXJ3E43LKsbOz49tvv0WhUDBy5EhWrlyJRqOhtLSU0aNHS/Kurq5UVFQY9VJWezypflpTol27do0PPvgAgBs3bjB48GD8/PykAHzmzBmmTp3KW2+9xYULFygsLCQ3N5fbt28D0L17dxYuXEhSUhL19fUG7cnMzCQzM1Nvv4+PD1VVVbzxxhvY2toybtw4kpKSMDEx4eLFi1LmqM8//5zNmzczYcIE+vbtS1paGqdOnWLnzp3cuXOnQ3UkEAgEv1T0AnDr3eSjPP5G66MBuq3jrTQ0NOjJPoqcqU45MgqFgtjYWOrq6tixY0eHymkNegqFQuf55/3793X0tOePsTypfh48eEBDQwOlpaU6+8vLy3USe9++fZu4uDgGDBhA//79CQoKIiwsjGXLllFTU0Pfvn2xs7PT+WysNfn4rl27iIuLk3UxceLECZ1+cfr0aaysrFAoFNy9e1dH9syZM5w5c4Y1a9bw/vvvM2/ePBYsWMDGjRvlVYpAIBD8SujQQhwuLi4olUrp/z59+hiV67empobq6mqdYNIRmVamT5+Ou7s7b7zxht7bynLKqaysxMnJiZaWFs6ePcuUKVNQKpX07t2bESNGSHJFRUU4OTnh6Ogow8sfxvXr1+nZs6fOPkdHR71k2I2NjVy4cIE9e/awcuVKrK2t6devHwBXr15l6dKlrFixQtquXbtGfn4+K1asoLq6WqcsKysrHB0dsbCw0Nnf1kVZXV2dXvB9nMLCQrKzs+nfv79svwUCgeDXQocCsI2NDVFRUTg7O+Pr68uoUaPIysoyqoy9e/cSEBBAaGgovXr1wtXVlZCQEGbMmGGUzJAhQwgNDZUSR3fr1o1u3brpXCAYKufixYvSVPP27duxtLRky5Yt/OlPf+Ly5cvSHXFubi4VFRUsX74cLy8vnJycGDZsGMHBwZIuExMTXF1dcXV1xdzcHGtra1xdXenVq5dR9fPf//4XHx8fQkJCcHZ2xt/fnyFDhkjTvfDw06nAwEB69+6Ng4MDL7zwAs3NzXzzzTfAwyn20tJSnU2r1Ur7H38+GxISQnJyMoMGDTLK1lamTJmCr68vjo6OKBQKHBwcGDt2rM77AwKBQCB4SIe+A7548SLm5ua8/vrr3Lt3j8zMTE6ePGlUGdnZ2Wi1WiZPnkx4eDharZbi4mIOHz5slIyXlxdKpVJv5aVHP0MyVM6xY8cICwtj/PjxHD16lKSkpDZt1mq1rFu3jsjISOLi4lCpVGg0Gvbs2SPJqFQqnenWnj17MnLkSDQaDXFxcbLrJzc3FxsbGyZNmkRkZCSVlZWkpaVx/PhxSaa+vp6QkBAiIiIwNTVFo9GwefNmo2YjOhONRkNwcDCzZ8+me/fubNy4kby8PNLT07vEHoFAIHiqUSrNWoBf/ebu7t6yffv2lsjIyJaePXu2KJXKFotpYgAAIABJREFUFnt7+xaVStXltv0ct1dffbVT2iQjI6PFzOzJfVSOjNjEJjaxPY2bSMbwPYWFhaxYsQIzMzNWrVpFeno6//znP6VlKQXG0ZkvqwkEAsEvEbEU5SN89913pKeniynTTuAf//hHV5sgEAgETzVKExPl+pYW/bdcBYKngXv37pGfn9/uHbUcGYFAIHjaUCiVZi1NTcav+ysQCAQCgaDjiGfAAoFAIBB0ASIACwQCwS8IPz8/nQWEBE8vOgF44cKFOssW/pjMnz9f79tdgUAgMJakpCRefPHFLtE9YsQIMjIy6NatW5fob4uCggLmzJljcAU6d3d3MjIyMDMz+0Eygo4j7oB/JHbs2EFAQEBXmyEQPFU8bePiabOnM9BoNCQkJLBgwQJ+85vf/Oj6PDw8RJDuIOIzJIFAIPiFUVRURGxsbFebITCAXgBWKpXExMQwduxY7t27x+HDh9m3b590vF+/foSHh+Pm5oZKpaKsrIwDBw5IuXZbmThxIkFBQdjb23P37l3y8/PZsmWLngFhYWEEBwejUCjIzs5m9+7dejIqlQpLS0tqa2t1MhUZQ3v22NjYkJKSwtatWzl16pR0znPPPUdsbCzz58+npqaG+fPn4+joSElJCWPGjMHExETHZisrK9LS0qTz586dy9y5cwFISUnh008/lVWHSqWSDRs2UF5eztatWwEwMzPj73//OyUlJU9cKvNJjBs3jqlTp6JWq6mqqiI7O5uDBw/qfLYTEBBAREQEiYmJREVF4eLiQm1tLZs2bZLyFRuSUSgUvPjii0yYMAE7Oztu3brFvn37dJbPlKvLEIbaQq7vcvtzZ9ns4OCg8410QkICFy9eZNeuXZ3ml9z+s3jxYmxtbbl9+zZDhgyhqamJjz/+mA8//NCoOoSHKT0jIyPx8fHB0tKSkpISMjIyOHv2rOxxIUeXqakp0dHR/OEPf6C5uZmPP/5YVt0/ilx75PbnR3FycmLt2rWcO3eOf//735LdhvyS2+6CXxZ6Adjb25usrCxWrlyJh4cHMTExlJWVkZubC4C9vT3nz59n9+7d3L17Fx8fHxYtWkRlZSVfffWVVEZUVBSJiYlcvXoVW1tbhg4dqqfc09MTjUbDhg0b8Pb2Jjo6mry8PL3F+ydNmsT06dNlpSZsC0P23LlzhzNnzuDn56cTgMePH88XX3xBTU2NtG/gwIGcOnWKefPmMXDgQNauXSvZXFdXxx//+Efg4dTW+++/r5ObuBVDddjU1ERiYiIbN27Ez8+PI0eOMHv2bMzNzdm2bZtRvvv7+xMVFUVqaioFBQU4OzuzYMECHjx4wKFDh3RkLSwseOmll0hJSaGkpARXV1caGhpky4wfP57w8HC2bdvG1atXpQuY8vJyrl27ZrQuQ7TXFnJ9l9OfO9Pmn8IvY/rPoEGD2L59O8nJybi5ubF+/Xo0Go00zuTUoYWFBa+99hr3799n69atVFZW4ubmhlqtBpA9LuToCg0NZezYsSQlJVFRUcGsWbOMzk4m1x5j+jOAs7Mza9eu5dixY9IFlVy/wHC7P608ePCA8vJy8R1+B9ALwHfu3OHdd9+lqakJjUaDj48PgYGBUgBu/dtKVlYWzz//PMOGDZN+sNRqNVqtli+//BKtVkt1dTVFRUV6yuvq6khPT6elpYWbN28yceJEPDw8Or3DybEnOzubNWvW8Mwzz/Ddd99hZ2fH4MGDSUhI0JErLy+XBuulS5coKysz2mY5dfjtt9+SnJxMXFwcNjY2+Pn5sWbNGrRarVG+h4eHs3//fumOrqKigo8++gh/f3+9AGxubk56erp0R1dQUKBXXnsywcHBHD9+nP/9738A7N+/nxEjRhAcHKz3gyVHlyEMtYUc3+W0RWfa/FP5Jbf/VFRUSLquX7/OqVOnCAwMlAKwHF1jxoyhR48exMbGSvmlb926ZbTfcnQFBgZy6NAhzp49C8C2bdt4++23jdYlB2P6c58+fYiPjycrK4u9e/ca7Rd0zm9LV3Djxg0WL17c1Wb8LNELwI+nqSsuLmbgwIHS/9bW1kydOhVvb2/s7OxQKpVYWVnpdMgzZ84wdepU3nrrLS5cuEBhYSG5ubncvn1bR5dGo9G5aqqtrcXa2lrPyMzMTDIzMzvspBx7Ll26RGVlJb6+vhw4cIBx48ZRXV3N+fPndcp6PIF9Q0NDmza3h5w6BDh79iw5OTnMmjWL7du3c/PmTaP02Nra4uDgQGRkJJGRkTrH2grkjY2NXL9+vd0y25NRq9UcOXJEZ19RURFubm4d0mWI9tpCru9y26KzbJZDZ/gF8vpPWVmZ3v+t412uLldXVyoqKvTsNgY5uqysrOjevTvFxcXSsaqqKoN5qTuKMf159erVqFQqbty4obPfmPbqjN8Wwc8LvQD8+DSCQqHQ+X/JkiVYW1uzc+dObt26RVNTEytWrNCRu337NnFxcQwYMID+/fsTFBREWFgYy5Yt05nObSvR++P6OgM59rS0tHDkyBH8/Pw4cOAAvr6+5OTk6NVHW9Msxtospw7h4bPgZ599lgcPHtC/f/82p8nkIHfqvqGhweA0kiEZQ/3HGF2GkNMWhnyX2xadYXNb55qY6H+I0Bl+gbz+Y2pqqnfO4xjSpVAoOm36sT1drToaGxt19j/+f2citz+/8847qNVqXn75ZeLj46mqqtI5Lqe9OuO3RfDzQm/0u7i46AzCPn36SPllFQoFXl5eHDhwgMuXL0tXn05OTnoFNzY2cuHCBfbs2cPKlSuxtramX79+HTLSysoKR0dHLCwsOnS+XHuOHDmCk5MTISEhuLi46F39Gqvv8R83MK4OZ8+ejbW1NatXr2bYsGH4+/sbZUNNTQ3V1dV4e3t32A9juHXrlt7dgaura4emI38ocnw3pi06g7q6Op3vRRUKBQ4ODkaVYUybyuk/j4/3vn37Su0lV1dRURFOTk6ynsU+aVzI0VVfX09tba30bBnA0tISW1tbg3qNtQeM688nT54kIyODsrIyYmNjpQurn3oMCn5e6AVgGxsboqKicHZ2xtfXl1GjRpGVlQU8vEK7desW3t7eKBQKlEqlNMgfZfTo0QQGBtK7d28cHBx44YUXaG5u5ptvvumQkSEhISQnJzNo0KAOnS/Xnu+++45z584xe/ZsLly4oHcVawwajYahQ4dia2uLmZmZNCDl1uGoUaMICAjgzTffpLi4mJSUFP7yl7/Qt29fo+zYu3cvAQEBhIaG0qtXL1xdXQkJCWHGjBkd9u1JZGVlMXbsWHx9fenZsyfTpk3D3d1d71nzT4Uh3+W2RWdRWFjIb3/7W1xcXFAoFEycOBErKyujy5HTpnL7j42NDdHR0Tg7O+Pn58fw4cP55JNPjNKVm5tLRUUFy5cvx8vLCycnJ4YNG0ZwcLCe7U8aF3J1ZWVlERgYyDPPPINCoWD69OltziLIpT17jO3PTU1NbN26FVdXV6ZPn26UX4JfJ3qXfhcvXsTc3JzXX3+de/fukZmZycmTJ6XjW7Zs4a9//SspKSncv3+fEydOkJ+fr1NGfX09ISEhREREYGpqikajYfPmzdKd9E+NMfbk5OQwfPhwjh49+oN07ty5k7lz5/L2229jZmam83mDoTp0cnJiwYIFvPfee9LLYrm5uXh7e7Ns2TJWrVol++3b7OxstFotkydPJjw8HK1WS3FxMYcPH/5B/rVFTk4OdnZ2REREYGdnR0VFBcnJyVy9erXTdclBju9y+nNncfr0aby8vPjb3/5GfX09n332md4zQzkY8suY/nP+/HlUKpU03jMyMjh9+rRsXfDwWea6deuIjIwkLi4OlUqFRqNhz549era3Ny7k6Prggw+wtbVl8+bN3Llzh9OnT1NRUWF0HcqxpyP9uby8nNTUVBYtWsSlS5e4fPnyTzoGBT8zlEqzFkBs328BAQEt//73v1vMzES9iO2XvS1evLglPj6+y+0QW9ds7u7uLRkZGe3+1smREVvHN7ES1veoVCocHR0JDQ0lJyenwwt+CAQCgUAgBxGAv2fRokUMHTqUc+fO6X3HJxAIBAJBZ6NQKs1amprE3Z5AIBD8mnjmmWd44YUX2L9/v87aD8bKCDqOCMACgUAgEHQBIh2hQCAQCARdgAjAAoFAIBB0AToBeP78+axZs6bdExYuXMiqVat+VKMEP38M9SOBQCD4tSPegn4ET09Ppk2bxu9+9zsArly5QlpamlGLzDs6OjJz5kzc3d1Rq9Xk5OTwr3/9q0P2PPvss8yYMQMPDw/g4ZJ/CQkJHU6B99xzz7F06VLOnTunl+Wps/mha9hOnjyZkJAQbG1tqaqq4o033tBZhF8gEAh+7ogA/D2jR49mzpw57Nq1i6SkJBQKBVOmTGH16tXEx8fLXvDd3Nyc2tpaMjMzdZajM5bevXuzfv16vvjiCxITE6mvr6dPnz4dLq9Hjx7MnDnT6IxKxtBaZ88//zxqtZrU1FQ0Gg07duwwKni6ubkxe/ZsEhMTuXLlCs7OztTX1/9odgsEAkFX0GYADgsLIzg4GIVCQXZ2Nrt379Y5rlQqiYmJYezYsdy7d4/Dhw+zb98+HZmAgAAiIiJITEwkKioKFxcXamtr2bRpk5RPddy4cUydOhW1Wk1VVRXZ2dkcPHhQJyuIIZnx48fz8ssv6/mwc+dODh48KKscGxsbYmJiSEhI0MnxumvXLgYPHszAgQOltIR2dnZERkbi4+ODpaUlJSUlZGRkSPlJS0tLSUtLA2DKlClPrHhD9RMWFkZBQQFvvvmmdE5b+WcnTpxIUFAQ9vb23L17l/z8fLZs2aLXXkuWLOE///kPEyZMeKJNKpUKS0tLamtrO7QQiZ+fH5MmTWLdunX8+c9/ZvPmzQwYMMDozxdMTU1paWkhLy+PhoYGvTSWAoFA8EtALwB7enqi0WjYsGED3t7eREdHk5eXp5MU2tvbm6ysLFauXImHhwcxMTGUlZXpJTe3sLDgpZdeIiUlhZKSElxdXaXpU39/f6KiokhNTaWgoABnZ2cWLFjAgwcPpMXO5ch89tlnnDhxQtI5cuRIFi5cqGOvoXJ8fX3Jz8+noKAAlUpFVFQUAwYMoLi4mKqqKtRqNefPn8fCwoLXXnuN+/fvs3XrViorK3Fzc9PJzmIM7dWPl5cXhw4dIj4+Hk9PT6qrq/nkk0/Izs7WaYeoqCgSExO5evUqtra2DB06VE9PREQEZWVlnD59ut0APGnSJKZPny47feHjuLu7c/36dWmN7YaGBunCxBi+/vprbt68ybRp09i1a5fR5wsEAsHPAb0AXFdXR3p6Oi0tLdy8eZOJEyfi4eGhE9Du3LnDu+++S1NTExqNBh8fHwIDA/UCsLm5Oenp6dId76N3cOHh4ezfv59jx44BUFFRwUcffYS/v78UXOXINDc3S3mFe/Xqxbx580hLS+Prr7+Wrat///7k5eUBMGfOHCwtLdm4cSN9+vRh8eLFXLp0CYAxY8bQo0cPYmNjpefCPyTV3pPqR6lU0r17dyZPnsyHH35IZmYmAwYMYO7cuTQ0NEgXHGq1Gq1Wy5dffolWq6W6ulpafL+VwYMH8/vf/57ly5d32M7WjDk+Pj5otVqOHTvGp59+Sn19PePHj+fSpUsUFxdz/vx5li5dSmhoKFZWViiVyg59vD9lyhQaGxsZM2YMRUVFUr/q2bMnJiYmlJaWdtgXgUAgeFrQC8AajUZnCri2tlYvPVtpaanOD2txcTEDBw7UK7yxsZHr16/r7be1tcXBwYHIyEgiIyN1jmm1Wtkyj6JSqYiPjyc3N1cn8biccuzs7Pj2229RKBSMHDmSlStXotFoKC0tZfTo0ZK8q6srFRUVRr2U1R5Pqp/WlGjXrl3jgw8+AODGjRsMHjwYPz8/KQCfOXOGqVOn8tZbb3HhwgUKCwvJzc2Vpmy7d+/OwoULSUpKkvUMNTMzk8zMTL39Pj4+0otQtra2jBs3jqSkJExMTLh48aKUOerzzz9n8+bNTJgwgb59+5KWlsapU6fYuXMnd+7ckVUnnp6ehIaGsmTJEhwdHXn11VcpLy+nsLCQoKAgmpubeeedd2SVJRAIBE8zegG49W7yUR5/o/XRAN3W8VYaGhr0ZB9FzlSnHBmFQkFsbCx1dXXs2LGjQ+W0Bj2FQqHz/PP+/fs6etrzx1ieVD8PHjygoaFB706vvLxcJ7H37du3iYuLY8CAAfTv35+goCDCwsJYtmwZNTU19O3bFzs7O53PxlqTj+/atYu4uDhZFxMnTpzQ6RenT5/GysoKhULB3bt3dWTPnDnDmTNnWLNmDe+//z7z5s1jwYIFbNy4UVadDB8+nIKCAmpqaqipqWHPnj2sWLGCV155BXt7+x8tVaBAIBD81HRoIQ4XFxeUSqX0f58+fYzK9VtTU0N1dbVOMOmITCvTp0/H3d2dN954Q+9tZTnlVFZW4uTkREtLC2fPnmXKlCkolUp69+7NiBEjJLmioiKcnJxwdHSU4eUP4/r16/Ts2VNnn6OjI1VVVTr7GhsbuXDhAnv27GHlypVYW1vTr18/AK5evcrSpUtZsWKFtF27do38/HxWrFhBdXW1TllWVlY4OjpiYWGhs7+ti7K6ujq94Ps4hYWFZGdn079/f9l+19fX4+TkJF3UHTp0iK+++opXXnkFb29vPv/8c9llCQQCwdNMhwKwjY0NUVFRODs74+vry6hRo8jKyjKqjL179xIQEEBoaCi9evXC1dWVkJAQZsyYYZTMkCFDCA0NJTk5mYaGBrp160a3bt10LhAMlXPx4kVpqnn79u1YWlqyZcsW/vSnP3H58mXpjjg3N5eKigqWL1+Ol5cXTk5ODBs2jODgYEmXiYkJrq6uuLq6Ym5ujrW1Na6urvTq1cuo+vnvf/+Lj48PISEhODs74+/vz5AhQ6TpXnj46VRgYCC9e/fGwcGBF154gebmZr755hvg4RR7aWmpzqbVaqX9jz+fDQkJITk5mUGDBhllaytTpkzB19cXR0dHFAoFDg4OjB07Vuf9AUMcP34cW1tbZs2ahZmZGQBHjx6lb9++XLt2Te8CRCAQCH6udOg74IsXL2Jubs7rr7/OvXv3yMzM5OTJk0aVkZ2djVarZfLkyYSHh6PVaikuLubw4cNGyXh5eaFUKvVWXnr0MyRD5Rw7doywsDDGjx/P0aNHSUpKatNmrVbLunXriIyMJC4uDpVKhUajYc+ePZKMSqXSmW7t2bMnI0eORKPREBcXJ7t+cnNzsbGxYdKkSURGRlJZWUlaWhrHjx+XZOrr6wkJCSEiIgJTU1M0Gg2bN282ajaiM9FoNAQHBzN79my6d+/Oxo0bycvLIz09XXYZlZWVrF+/npkzZ0oXVVVVVaSmphIdHY2vry//+9//fjwnBAKB4KdCqTRrAX71m7u7e8v27dtbIiMjW3r27NmiVCpb7O3tW1QqVZfb9nPcXn311S63QWxiE5vYnuZNJGP4nsLCQlasWIGZmRmrVq0iPT2df/7zn9KylALj6MyX1QQCgeCXiMgHLBAIBAJBFyDugAUCgUAg6AJEABYIBAKBoAsQAVggEAgEgi5ABGCBQCD4BeHn56ezgJDg6UUnAC9cuFBn2cIfk/nz5+t9uysQCATGkpSUxIsvvtglukeMGEFGRgbdunXrEv1tUVBQwJw5c4xagU7QNYg74B+JHTt2EBAQ0NVmCARPFU/buHja7OkMNBoNCQkJLFiwgN/85jdtykyePJn/+7//47333iMpKYm+ffu2Kefh4UFGRoa0Kp2gc+nQSlgCgUAgeHopKioiNja2zWNubm7Mnj2bxMRErly5grOzs6xsaYLORy8AK5VKYmJiGDt2LPfu3ePw4cPs27dPOt6vXz/Cw8Nxc3NDpVJRVlbGgQMHpFy7rUycOJGgoCDs7e25e/cu+fn5bNmyRc+AsLAwgoODUSgUZGdns3v3bj0ZlUqFpaUltbW1OpmKjKE9e2xsbEhJSWHr1q2cOnVKOue5554jNjaW+fPnU1NTw/z583F0dKSkpIQxY8ZgYmKiY7OVlRVpaWnS+XPnzmXu3LkApKSk8Omnn8qqQ6VSyYYNGygvL2fr1q0AmJmZ8fe//52SkpInLpX5JMaNG8fUqVNRq9VUVVWRnZ3NwYMHdRbLCAgIICIigsTERKKionBxcaG2tpZNmzZJ+YoNySgUCl588UUmTJiAnZ0dt27dYt++fTrLZ8rVZQhDbSHXd7n9ubNsdnBw4B//+Ie0LyEhgYsXL7Jr165O80tu/1m8eDG2trbcvn2bIUOG0NTUxMcff8yHH35oVB3Cw5SekZGR+Pj4YGlpSUlJCRkZGZw9e1b2uJCjy9TUlOjoaP7whz/Q3NzMxx9/LKvuH0WuPXL786M4OTmxdu1azp07x7///W/JbkN+yW33zsDU1JSWlhby8vJoaGiQ0pcKfnr0ArC3tzdZWVmsXLkSDw8PYmJiKCsrk5Ki29vbc/78eXbv3s3du3fx8fFh0aJFVFZW8tVXX0llREVFkZiYyNWrV7G1tWXo0KF6yj09PdFoNGzYsAFvb2+io6PJy8vTW7x/0qRJTJ8+XVZqwrYwZM+dO3c4c+YMfn5+OgF4/PjxfPHFF9TU1Ej7Bg4cyKlTp5g3bx4DBw5k7dq1ks11dXX88Y9/BB5Obb3//vs6uYlbMVSHTU1NJCYmsnHjRvz8/Dhy5AizZ8/G3Nycbdu2GeW7v78/UVFRpKamUlBQgLOzMwsWLODBgwccOnRIR9bCwoKXXnqJlJQUSkpKcHV1paGhQbbM+PHjCQ8PZ9u2bVy9elW6gCkvL+fatWtG6zJEe20h13c5/bkzbf4p/DKm/wwaNIjt27eTnJyMm5sb69evR6PRSONMTh1aWFjw2muvcf/+fbZu3UplZSVubm6o1WoA2eNCjq7Q0FDGjh1LUlISFRUVzJo1y+jsZHLtMaY/Azg7O7N27VqOHTsmXVDJ9QsMt3tn8fXXX3Pz5k2mTZumY2dbPHjwgPLycrGy3Y+EXgC+c+cO7777Lk1NTWg0Gnx8fAgMDJQCcOvfVrKysnj++ecZNmyY9IOlVqvRarV8+eWXaLVaqqurKSoq0lNeV1dHeno6LS0t3Lx5k4kTJ+Lh4dHpHU6OPdnZ2axZs4ZnnnmG7777Djs7OwYPHkxCQoKOXHl5uTRYL126RFlZmdE2y6nDb7/9luTkZOLi4rCxscHPz481a9ag1WqN8j08PJz9+/dLd3QVFRV89NFH+Pv76wVgc3Nz0tPTpTu6goICvfLakwkODub48eNSsoT9+/czYsQIgoOD9X6w5OgyhKG2kOO7nLboTJt/Kr/k9p+KigpJ1/Xr1zl16hSBgYFSAJaja8yYMfTo0YPY2Fgpv/StW7eM9luOrsDAQA4dOsTZs2cB2LZtG2+//bbRuuRgTH/u06cP8fHxZGVlsXfvXqP9gs75bZHDlClTaGxsZMyYMRQVFUljoGfPnpiYmOjkIb9x4waLFy/uVP2C/49eAH48TV1xcTEDBw6U/re2tmbq1Kl4e3tjZ2eHUqnEyspKp0OeOXOGqVOn8tZbb3HhwgUKCwvJzc3Vm+rQaDQ6V1a1tbVYW1vrGZmZmUlmZmaHnZRjz6VLl6isrMTX15cDBw4wbtw4qqurOX/+vE5Zjyewb2hoaNPm9pBThwBnz54lJyeHWbNmsX37dm7evGmUHltbWxwcHIiMjCQyMlLnWFuBvLGxkevXr7dbZnsyarWaI0eO6OwrKirCzc2tQ7oM0V5byPVdblt0ls1y6Ay/QF7/KSsr0/u/dbzL1eXq6kpFRYWe3cYgR5eVlRXdu3enuLhYOlZVVWUwL3VHMaY/r169GpVKxY0bN3T2G9NenfHbYghPT09CQ0NZsmQJjo6OvPrqq5SXl1NYWEhQUBDNzc288847napT8GT0AvDjUw2tidFbWbJkCdbW1uzcuZNbt27R1NTEihUrdORu375NXFwcAwYMoH///gQFBREWFsayZct0pnPbSvT+uL7OQI49LS0tHDlyBD8/Pw4cOICvry85OTl69dHWVIyxNsupQ3j4LPjZZ5/lwYMH9O/fv81pMjnInbpvaGgwONVkSMZQ/zFGlyHktIUh3+W2RWfY3Na5Jib6HyJ0hl8gr/+YmprqnfM4hnQpFIpOm6JsT1erjsbGRp39j//fmcjtz++88w5qtZqXX36Z+Ph4vbzVctqrM35bDDF8+HAKCgqoqamhpqaGPXv2sGLFCl555RXs7e3Jz8/vVH2C9tEb/S4uLjqDsE+fPlJ+WYVCgZeXFwcOHODy5cvS1aeTk5NewY2NjVy4cIE9e/awcuVKrK2t6devX4eMtLKywtHREQsLiw6dL9eeI0eO4OTkREhICC4uLnpXv8bqe/zHDYyrw9mzZ2Ntbc3q1asZNmwY/v7+RtlQU1NDdXU13t7eHfbDGG7duqV3d+Dq6tqh6cgfihzfjWmLzqCurk7ne1GFQoGDg4NRZRjTpnL6z+PjvW/fvlJ7ydVVVFSEk5OTrGexTxoXcnTV19dTW1srPVsGsLS0xNbW1qBeY+0B4/rzyZMnycjIoKysjNjYWOnC6qceg4aor6/HyclJCuyHDh3iq6++4pVXXsHb25vPP/+8iy38daEXgG1sbIiKisLZ2RlfX19GjRpFVlYW8PAK7datW3h7e6NQKFAqldIgf5TRo0cTGBhI7969cXBw4IUXXqC5uZlvvvmmQ0aGhISQnJzMoEGDOnS+XHu+++47zp07x+zZs7lw4YLeVawxaDQahg4diq2tLWZmZtKAlFuHo0aNIiAggDfffJPi4mJSUlL4y1/+8sTv9Z7E3r17CQgIIDQ0lF69euHq6kpISAgzZszosG9PIisri7Fjx+Lr60vPnj2ZNm0a7u7ues+afyoM+S63LTqLwsJCfvvb3+Li4oJCoWDixIlYWVkZXY6cNpXbf2xsbIiOjsbqpRpyAAAMBklEQVTZ2Rk/Pz+GDx/OJ598YpSu3NxcKioqWL58OV5eXjg5OTFs2DCCg4P1bH/SuJCrKysri8DAQJ555hkUCgXTp09vcxZBLu3ZY2x/bmpqYuvWrbi6ujJ9+nSj/PqpOH78OLa2tsyaNUv6tvfo0aP07duXa9eu/aDfPIHx6F36Xbx4EXNzc15//XXu3btHZmYmJ0+elI5v2bKFv/71r6SkpHD//n1OnDihN21RX19PSEgIERERmJqaotFo2Lx5s3Qn/VNjjD05OTkMHz6co0eP/iCdO3fuZO7cubz99tuYmZnpfN5gqA6dnJxYsGAB7733nvSyWG5uLt7e3ixbtoxVq1bJfvs2OzsbrVbL5MmTCQ8PR6vVUlxczOHDh3+Qf22Rk5ODnZ0dERER2NnZUVFRQXJyMlevXu10XXKQ47uc/txZnD59Gi8vL/72t79RX1/PZ599pvfMUA6G/DKm/5w/fx6VSiWN94yMDE6fPi1bFzx8lrlu3ToiIyOJi4tDpVKh0WjYs2ePnu3tjQs5uj744ANsbW3ZvHkzd+7c4fTp01RUVBhdh3Ls6Uh/Li8vJzU1lUWLFnHp0iUuX778k45BQ1RWVrJ+/XpmzpxJcnIyDQ0NVFVVkZqaSnR0NL6+vtJLZ4IfH5EP+DECAgKYMWMGMTExHf7mWCD4ObB48WK6devGpk2butoUgeBXiVgJ63tUKhWOjo6EhoaSk5Mjgq9AIBAIflREAP6eRYsWMXToUM6dO6f3HZ9AIBAIBJ2NmIIWCAQCgaALEHfAgqeKjIwMgzKtywgKBALBzxmRjlAgEAgEgi5ABGCBQCAQCLoAnQA8f/581qxZ0+4JCxcuZNWqVT+qUYKfP4b6kUAgEPzaEc+AH8HT05Np06bxu9/9DoArV66QlpZm1CLzjo6OzJw5E3d3d9RqNTk5OfzrX//qkD3PPvssM2bMwMPDA3i45F9CQkKHU+A999xzLF26lHPnzulleepsfow1vQUCgeCXhAjA3zN69GjmzJnDrl27SEpKQqFQMGXKFFavXk18fLzsBd/Nzc2pra0lMzNTZzk6Y+nduzfr16/niy++IDExkfr6evr06dPh8nr06MHMmTONzqhkDK119vzzz6NWq0lNTUWj0bBjxw6dDDYCgUAgeEIADgsLIzg4GIVCQXZ2Nrt379Y5rlQqiYmJYezYsdy7d4/Dhw+zb98+HZmAgAAiIiJITEwkKioKFxcXamtr2bRpk5RPddy4cUydOhW1Wk1VVRXZ2dkcPHhQJyuIIZnx48fz8ssv6/mwc+dODh48KKscGxsbYmJiSEhI0MnxumvXLgYPHszAgQOltIR2dnZERkbi4+ODpaUlJSUlZGRkSPlJS0tLSUtLAx7m3XwShuonLCyMgoIC3nzzTemctvLPTpw4kaCgIOzt7bl79y75+fls2bJFr72WLFnCf/7zHyZMmPBEm1QqFZaWltTW1nZoIRI/Pz8mTZrEunXr+POf/8zmzZsZMGCATnpLgUAgEDxELwB7enqi0WjYsGED3t7eREdHk5eXp5MU2tvbm//X3t2HNLXGcQD/zpU63ybI8i11IVKa5CyyqEjDylpqiErGaPRHGSLJDN+gIIIgEjHK+iMqHEWQLIogKMtCMlcmkW8JalpWmzRzaKZranr/6HpwrZfNe2GX2/cD/uHZ43POHsXveZ6dc361tbUoLS1FVFQUDhw4gIGBAbvi5h4eHti1axfOnz+P9+/fQy6XC8unycnJUKvVuHjxIrq6uhASEoK8vDxMTk4KDzt3pM2jR4/Q2Ngo7DMhIQH5+fk2x/u7fhITE9HZ2Ymuri5IJBKo1WrExMSgv78fQ0NDCAoKQmtrKzw8PHDs2DFMTEzgzJkzGBwcxJIlS2yqszjjV+MTGxuLO3fuoLi4GEuXLoXZbMa9e/dQV1dn83tQq9U4deoUuru7IZVKsXLlSrv95OTkYGBgAE1NTb8M4NTUVGRnZztcvvB7kZGR6OvrE56xbbFYhBMTIiKyZRfAY2Nj0Gq1mJmZwdu3b7Fjxw5ERUXZBNro6CguX76Mr1+/wmg0QqFQICUlxS6A3d3dodVqhRnv3BlcVlYWbty4gYaGBgCAyWTC7du3kZycLISrI22mp6eFusKhoaHIzc1FdXU1Xr165fC+oqOj0dLSAgDYt28fvLy8UF5ejvDwcBw8eBAdHR0AgHXr1mHRokUoKCgQPhf+J6X2fjY+YrEYfn5+SEtLw61bt6DT6RATE4P9+/fDYrEIJxxBQUGwWq148eIFrFYrzGaz8PD9WXFxcVi/fj2KiormfZyzFXMUCgWsVisaGhrw4MEDjI+PIykpCR0dHejv70draysKCwuRkZEBb29viMVizn6JiH7CLoCNRqPNEvCnT5/syrMZDAabf6z9/f1Yvny5XedTU1Po6+uz2y6VShEQEACVSgWVSmXzmtVqdbjNXBKJBMXFxdDr9TaFxx3px9/fHx8/foRIJEJCQgJKS0thNBphMBiwdu1aob1cLofJZHLqoqxf+dn4zJZE6+npwc2bNwEAb968QVxcHDZt2iQEcHNzM3bu3ImzZ8+ira0Nvb290Ov1GB4eBgD4+fkhPz8fVVVVGB8f/+3x6HQ66HQ6u+0KhQJDQ0OoqKiAVCrFxo0bUVVVBTc3N7S3twuVo549e4bKykps3boVERERqK6uxtOnT3HlyhWMjo7Oa4yIiP6v7AJ4djY51/dXtM4N6B+9Pstisdi1ncuRpU5H2ohEIhQUFGBsbAyXLl2aVz+zoScSiWw+/5yYmLDZz6/ej7N+Nj6Tk5OwWCwwGAw22z98+GBT2Ht4eBgajQYxMTGIjo7Gtm3bkJmZiUOHDmFkZAQRERHw9/e3uW1stvj41atXodFoHDqZaGxstPm7aGpqgre3N0QiET5//mzTtrm5Gc3NzTh8+DCuXbuG3Nxc5OXloby83LFBISL6Q8zrQRyLFy+GWCwWvg8PD3eq1u/IyAjMZrNNmMynzazs7GxERkaioqLC7mplR/oZHBxEYGAgZmZm8Pz5c6Snp0MsFiMsLAyrV68W2r1+/RqBgYGQyWQOvMt/pq+vD8HBwTbbZDKZXcHsqakptLW1oaamBqWlpfDx8cGyZcsAAN3d3SgsLERJSYnw1dPTg87OTpSUlMBsNtv05e3tDZlMBg8PD5vtPzopGxsbswvf7/X29qKurg7R0dEOv28ioj/FvALY19cXarUaISEhSExMxJo1a1BbW+tUH9evX8eWLVuQkZGB0NBQyOVyKJVK7N6926k28fHxyMjIEIpLe3p6wtPT0+YE4Xf9tLe3C0vNFy5cgJeXF06fPo29e/fi5cuXwoxYr9fDZDKhqKgIsbGxCAwMxKpVq7B9+3ZhX25ubpDL5ZDL5XB3d4ePjw/kcjlCQ0OdGp/79+9DoVBAqVQiJCQEycnJiI+PF5Z7gW+3TqWkpCAsLAwBAQHYvHkzpqen8e7dOwDfltgNBoPNl9VqFbZ///msUqnEuXPnsGLFCqeOdVZ6ejoSExMhk8kgEokQEBCADRs22Fw/QERE38zrPuD29na4u7vj5MmT+PLlC3Q6HZ48eeJUH3V1dbBarUhLS0NWVhasViv6+/tx9+5dp9rExsZCLBbbPXlp7m1Iv+unoaEBmZmZSEpKQn19Paqqqn54zFarFUePHoVKpYJGo4FEIoHRaERNTY3QRiKR2Cy3BgcHIyEhAUajERqNxuHx0ev18PX1RWpqKlQqFQYHB1FdXY3Hjx8LbcbHx6FUKpGTk4MFCxbAaDSisrLSqdWIf5PRaMT27duxZ88e+Pn5oby8HC0tLdBqtS45HiKi/zKWI/xbZGQkysrKUF9fj4cPH8JkMkEqlcJiscz7yVN/siNHjuD48eNO/xyrIRHRn4LFGP7W29uLkpISLFy4EGVlZdBqtThx4oTwWEpyzr95sRoR0f8RZ8D0n8IZMBH9KTgDJiIicgHOgImIiFyAM2AiIiIXYAATERG5AAOYiIjIBRjARERELsAAJiIicgEGMBERkQswgImIiFyAAUxEROQCDGAiIiIXYAATERG5AAOYiIjIBRjARERELsAAJiIicgEGMBERkQswgImIiFzgLz3qBZadjd/sAAAAAElFTkSuQmCC;" vertex="1" parent="1">
                    <mxGeometry x="1370" y="1118.5" width="480" height="145" as="geometry"/>
                </mxCell>
                <mxCell id="184" value="unfixable errors" style="text;html=1;align=center;verticalAlign=middle;resizable=0;points=[];autosize=1;strokeColor=none;fillColor=none;fontSize=14;" vertex="1" parent="1">
                    <mxGeometry x="1380" y="1088.5" width="120" height="30" as="geometry"/>
                </mxCell>
                <mxCell id="185" value="" style="shape=image;verticalLabelPosition=bottom;labelBackgroundColor=default;verticalAlign=top;aspect=fixed;imageAspect=0;image=data:image/png,iVBORw0KGgoAAAANSUhEUgAAAf0AAAHFCAYAAAD45SBIAAAABHNCSVQICAgIfAhkiAAAABl0RVh0U29mdHdhcmUAZ25vbWUtc2NyZWVuc2hvdO8Dvz4AAAAtdEVYdENyZWF0aW9uIFRpbWUAVGh1IDA4IE1heSAyMDI1IDAxOjM3OjM4IFBNIEJTVKfx7e8AACAASURBVHic7N15VFRX2uj/b1kyFIPwQiOICniJQRBCKQkxthc0BlEcaIN2NETovh01xgldgq7Yq028yboOWRBj1KY1L9zQtlEymDZvKwkab1CizSuKAwRtIBAoFIQoo8VUvz9s62elUKpKiDE8n7XOclln197P2edQzzn7TAql0kp3srOLu42jk3s5hfKe8+7lOvArs78lhBBCiN40sLsPLUnsQgghhPh5G/CwAxBCCCHET0OSvhBCCNFPKJRKK11nZ/vDjkMIIYQQfUyO9IUQQoh+QpK+EEII0U9I0hdCCCH6CYOk/8orr7B+/fr7fmHp0qWsW7euT4MSj76etiNTubu7k5aWhqura6/UJ4QQ/Vm39+n3V35+fjz//PM8/vjjABQVFZGWlkZtba3Jdbi5ufHiiy/i6+uLh4cHx44d489//rNF8Tz22GPMnz+fkSNHAlBWVsamTZtobW21qL5nnnmGVatWkZ+fz6ZNmyyqw1QKhaJX6nnppZc4fvw4dXV1vVKfEEL0ZzK8/2/jxo0jMTGRU6dOsXz5clasWEFVVRWvvfYaAweavm9kbW1NQ0MDmZmZXL161eJ4hg8fzuuvv05jYyMpKSm89dZbnDhxwuL6Bg8ezIsvvkhFRYXFdfREoVAQHR3Ntm3bCAoKYs+ePWzcuBFvb2+L6nN3dyc0NJTs7OxejlQIIfqnbrNZTEwM06ZNQ6FQkJ2dzb59+wzmK5VKFi9ezIQJE7h16xZHjhzh448/NigTERHBvHnzSElJIS4ujmHDhtHQ0MDWrVspKSkBICwsjOjoaDw8PKirqyM7O5tDhw6h0+n09fRUZuLEibz66qtGy5CRkcGhQ4dMqsfR0ZHFixezadMmiouL9d/Zu3cvwcHBjB49moKCAgCcnZ2JjY1FrVZjZ2dHZWUlBw4c4MyZMwBUVVWRlpYGwKxZs+7Z8T31T0xMDMXFxbzzzjv679wd2x3Tp09n6tSpuLi40NTURGFhIdu2bTNaXytXruSvf/0rU6ZMuWdMKpUKOzs7GhoaaG83/zbOSZMmMWPGDDZs2MDvf/97kpOTCQgIoLPz3o91vp+wsDA0Gg1VVVUWfV8IIYQho6Tv5+eHRqNh48aNBAUFER8fz7lz5ygqKtKXCQoKIisri7Vr1zJy5EgWL15MdXU1ubm5BnXZ2NjwwgsvkJqaSmVlJT4+Pvqh6cmTJxMXF8eePXsoLi7G09OTJUuW0N7ezuHDh00u8/XXX3Py5El9m6GhoSxdutQg3p7qCQ8Pp7CwkOLiYlQqFXFxcQQEBFBeXk5dXR0eHh4UFBRgY2PDG2+8QVtbG++++y61tbWMGDECDw8Pizr/fv0TGBjI4cOHSUxMxM/Pj/r6er744guDo96goCDi4uJISUnh8uXLODk5MXbsWKN25s2bR3V1NadPn75v0p8xYwZz585l69at5OXlmb08vr6+lJaWotFoAGhtbdXvDFkiMDCQy5cvW/x9IYQQhoySfnNzM+np6eh0OioqKpg+fTojR440SKKNjY188MEHdHZ2otFoUKvVREZGGiV9a2tr0tPT9Uf2dx+pzpkzh08++YScnBwAampq+Pzzz5k8ebI+oZtSpquri66u2y8MGjp0KIsWLSItLY1//etfJrfl7+/PuXPnAHj55Zexs7Njy5YteHl5sXz5ci5evAjA+PHjGTx4MCtWrNCf53+QIfx79Y9SqWTQoEHMnDmTzz77jMzMTAICAli4cCGtra36nRwPDw+0Wi1nz55Fq9VSX19PWVmZQRvBwcH8+te/Zs2aNRbH6ejoSHx8PGq1Gq1WS05ODkePHqWlpYWJEydy8eJFysvLKSgoYNWqVcyePRt7e3uUSqXFR/lwe3j/0qVLFn9fCCGEIaOkr9FoDIbXGxoacHBwMChTVVVl8GNeXl7O6NGjjSrv6OigtLTU6HMnJydcXV2JjY0lNjbWYJ5WqzW5zN1UKhWJiYnk5uby5ZdfmtWWs7Mz169fR6FQEBoaytq1a/XDyuPGjdOX9/HxoaamxqwL++7nXv0zYMDtSy2uXLnCp59+CsB3331HcHAwkyZN0if9vLw8oqOjee+99zh//jwlJSXk5uZy48YNAAYNGsTSpUvZvn07LS0tPcaTmZlJZmam0edqtZq6ujrefvttnJycCAsLY/v27QwYMIALFy5w/PhxAP75z3+SnJzMlClT8Pb2Ji0tjVOnTpGRkUFjY6PZ/WNtbW3RaQYhhBDdM0r6d46a7/bjK7Hv3inobv4dra2tRmXvZsowsillFAoFK1asoLm5mffff9+ieu4kWoVCYZBo2traDNq53/KY6179097eTmtrq9G57GvXrhEUFKT//40bN0hISCAgIAB/f3+mTp1KTEwMq1ev5ubNm3h7e+Ps7Gxwi+WdixL37t1LQkKCSTswJ0+eNNguTp8+jb29PQqFgqamJoOyeXl55OXlsX79ej788EMWLVrEkiVL2LJli2mdcpebN28a7XAKIYSwnEVX7w8bNgyl8v9//a6Xl5f+PK4pbt68SX19vUECs6TMHXPnzsXX15e3336bjo4Os+upra3F3d0dnU7HmTNnmDVrFkqlkuHDh/PUU0/py5WVleHu7o6bm5sJS/lgSktLGTJkiMFnbm5uRreudXR0cP78efbv38/atWtxcHBg1KhRAFy+fJlVq1aRlJSkn65cuUJhYSFJSUnU19cb1GVvb4+bmxs2NjYGn3e3I9jc3GyU8H+spKSE7Oxs/P39TV7uu5WWluLl5WXRd4UQQhizKOk7OjoSFxeHp6cn4eHhPP3002RlZZlVx0cffURERASzZ89m6NCh+Pj4EBUVxfz5880qM2bMGGbPns2OHTtobW3F1tYWW1tbg52Snuq5cOGCfhh/9+7d2NnZsW3bNn73u99x6dIl/ZF/bm4uNTU1rFmzhsDAQNzd3QkJCWHatGn6tgYMGICPjw8+Pj5YW1vj4OCAj48PQ4cONat/vvzyS9RqNVFRUXh6ejJ58mTGjBmjH0qH27cZRkZGMnz4cFxdXXnuuefo6uri+++/B26fvqiqqjKYtFqt/vMfn2+Piopix44dPPHEE2bFesesWbMIDw/Hzc0NhUKBq6srEyZMMLgexBxnzpzh8ccfx8rKyqLvCyGEMGTRw3kuXLiAtbU1mzdv5tatW2RmZvLNN9+YVUd2djZarZaZM2cyZ84ctFot5eXlHDlyxKwygYGBKJVKoyfA3X3LXk/15OTkEBMTw8SJEzl+/Djbt2/vNmatVsuGDRuIjY0lISEBlUqFRqNh//79+jIqlcpgKHvIkCGEhoai0WhISEgwuX9yc3NxdHRkxowZxMbGUltbS1pamsG9+i0tLURFRTFv3jwGDhyIRqMhOTnZrFGX3qTRaJg2bRoLFixg0KBBbNmyhXPnzpGenm5RfadPnyY+Pp7Q0FCDOzSEEEJYSKm00gH9fvL19dXt3r1bFxsbqxsyZIhOqVTqXFxcdCqV6qHH9ihOf/zjH3ulnoiICN3mzZt1CoXioS+TTDLJJNOjPsljeP+tpKSEpKQkoqOjWbduHS4uLrS0tLBz5079g3mE6Xrrgsfs7Gzs7e1xdnbmhx9+6JU6hRCiv1IolVa6zk65LUoIIYT4pZNn7wshhBD9hCR9IYQQop+QpC+EEEL0E5L0hRBCiH6iz5K+v78/u3btMnq6mxBCCCEejj5L+kVFRVRWVhIdHd1XTQghhBDCDH06vJ+dnU1kZKQ8RlUIIYT4GdAn/WeeeYZly5YREBBwz7fmmSs/Px9bW1vGjh3bK/UJIYQQwnLKAQOUr+t0XbS3t+Pv788LL7zAs88+i0qloqamhtbWVosr7+rqIiQkBCsrK86ePduLYQshhBDCXPqk39zcTF5eHv/4xz+4ceMGTz75JPHx8fj5+dHe3k51dbVFj1ZVq9U4OzuTk5PTB+ELIYQQwlRG5/Tb2to4ceIEb731FomJiTg7O7N69Wp8fHwsaqCtrQ1ra+sHjVMIIYQQD8johTtKpRK1Wk1YWBghISGUlZWxa9cuKioqLGrA0dGRhoaGBw5UCCGEEA9Gn/Td3NyYNWsW48ePp6Ojg6+//prExESqq6sfqAEvLy/9e+uFEEII8fDok76fnx8uLi7s3LmTs2fP0tXV9cCVe3h44OrqSn5+/gPXJYQQQogHo0/6J06c4MSJE71aeXh4OEVFRXz//fe9Wq8QQgghzNdnD+dRqVRERETwt7/9ra+aEEIIIYQZFEqlla6zs73XK/b29uaxxx7j6NGjvV63EEIIIczXZ0lfCCGEED8v8mpdIYQQop+QpC+EEEL0E5L0hRBCiH5Ckr4QQvyCTJo0iaeeeuphhyF+pgyS/tKlS1m3bt1P0vArr7zC+vXrf5K2hBC/XNu3b+c3v/nNQ2n7qaee4sCBA9ja2j6U9rtTXFzMyy+/jL+//z3L+Pv7s2vXLmxsbH7CyMTPgRzp95H333+fiIiIhx2GED8rP7e/i59bPL1Bo9GwadMmlixZwq9+9atuyxQVFVFZWUl0dPR96xo5ciQHDhzAysqqL0IVD4EkfSGE+IUpKytjxYoVXL9+/Z5lsrOziYyMlITez3T7lr3FixczYcIEbt26xZEjR/j444/180eNGsWcOXMYMWIEKpWK6upqDh48SE5OjkE906dPZ+rUqbi4uNDU1ERhYSHbtm0zCiAmJoZp06ahUCjIzs5m3759RmVUKhV2dnY0NDTQ3m7ZMwXuF4+joyOpqam8++67nDp1Sv+dZ555hhUrVvDKK69w8+ZNXnnlFdzc3KisrGT8+PEMGDDAIGZ7e3vS0tL031+4cCELFy4EIDU1Vf+gop76UKlUsnHjRq5du8a7774LgJWVFW+++SaVlZVs377drGUPCwsjOjoaDw8P6urqyM7O5tChQ+h0On2ZiIgI5s2bR0pKCnFxcQwbNoyGhga2bt1KSUmJSWUUCgW/+c1vmDJlCs7Ozly9epWPP/7Y6PHOprTVk57WhanLbur23Fsxu7q68tZbb+k/27RpExcuXGDv3r29tlymbj/Lly/HycmJGzduMGbMGDo7O/mv//ovPvvsM7P6EMDZ2ZnY2FjUajV2dnZUVlZy4MABzpw5Y/LfhSltDRw4kPj4eP7n//yfdHV18V//9V8m9f3dTI3H1O35bu7u7vzpT38iPz+f//zP/9TH3dNymbree1N+fj62traMHTuW06dP91k74ufFKOkHBQWRlZXF2rVrGTlyJIsXL6a6uprc3FwAXFxcKCgoYN++fTQ1NaFWq1m2bBm1tbV8++23+jri4uJISUnh8uXLODk5MXbsWKPG/fz80Gg0bNy4kaCgIOLj4zl37hxFRUUG5WbMmMHcuXPZunUreXl5Zi9kT/E0NjaSl5fHpEmTDJL+xIkT+e///m9u3ryp/2z06NGcOnWKRYsWMXr0aP70pz/pY25ubua3v/0tcHvY8MMPP+TLL780iqenPuzs7CQlJYUtW7YwadIkvvrqKxYsWIC1tTV/+ctfzFr2yZMnExcXx549eyguLsbT05MlS5bQ3t7O4cOHDcra2NjwwgsvkJqaSmVlJT4+PrS2tppcZuLEicyZM4e//OUvXL58Wb/TdO3aNa5cuWJ2Wz2537owddlN2Z57M+afYrnM2X6eeOIJdu/ezY4dOxgxYgSvv/46Go1G/3dmSh/a2Njwxhtv0NbWxrvvvkttbS0jRozAw8MDwOS/C1Pamj17NhMmTGD79u3U1NTw0ksv4ebmZlb/mhqPOdszgKenJ3/605/IycnR78SZulzQ83rvbe3t7Xz33XcEBgbeM+m3t7dz7do1gx088WgzSvqNjY188MEHdHZ2otFoUKvVREZG6pP+nX/vyMrK4tlnnyUkJET/I+nh4YFWq+Xs2bNotVrq6+spKyszary5uZn09HR0Oh0VFRVMnz6dkSNH9vpGbko82dnZrF+/nv/4j//ghx9+wNnZmeDgYDZt2mRQ7tq1a/ofiIsXL1JdXW12zKb04fXr19mxYwcJCQk4OjoyadIk1q9fj1arNWvZ58yZwyeffKI/cq2pqeHzzz9n8uTJRknf2tqa9PR0/ZFrcXGxUX33KzNt2jROnDjB//t//w+ATz75hKeeeopp06YZ/Uia0lZPeloXpiy7KeuiN2P+qZbL1O2npqZG31ZpaSmnTp0iMjJSn/RNaWv8+PEMHjyYFStWUFtbC8DVq1fNXm5T2oqMjOTw4cOcOXMGgL/85S/s3LnT7LZMYc727OXlRWJiIllZWXz00UdmLxf0zm+Luerq6nB3d7/n/O+++47ly5f3Wfvip2eU9Kuqqujs7NT/v7y8nNGjR+v/7+DgQHR0NEFBQTg7O6NUKrG3tzf4I8jLyyM6Opr33nuP8+fPU1JSQm5uLjdu3DBoS6PRGOxBNjQ04ODgYBRkZmYmmZmZFi+kKfFcvHiR2tpawsPDOXjwIGFhYdTX11NQUGBQ150ftTtaW1u7jfl+TOlDgDNnznDs2DFeeukldu/eTUVFhVntODk54erqSmxsLLGxsQbzutt56OjooLS09L513q+Mh4cHX331lcFnZWVljBgxwqK2enK/dWHqspu6LnorZlP0xnKBadtPdXW10f/v/L2b2paPjw81NTVGcZvDlLbs7e0ZNGgQ5eXl+nl1dXU0NTVZ3O79mLM9v/baa6hUKr777juDz81ZX73x22KutrY2Bg0a1KdtiJ8Xo6T/42EchUJh8P+VK1fi4OBARkYGV69epbOzk6SkJINyN27cICEhgYCAAPz9/Zk6dSoxMTGsXr3aYKi8q6vLKKAft9cbTIlHp9Px1VdfMWnSJA4ePEh4eDjHjh0z6o/uhrnMjdmUPoTb5/Yfe+wx2tvb8ff373YI0hSmnhZpbW3tcRivpzI9bT/mtNUTU9ZFT8tu6rrojZi7++6AAcbX0vbGcoFp28/AgQONvvNjPbWlUCh6bfj3fm3daaOjo8Pg8x//vzeZuj3/3//7f/Hw8ODVV18lMTGRuro6g/mmrK/e+G0xl6OjIw0NDX3ahvh5MfrFGTZsmMEfvpeXFxqNBri9AQYGBnLw4EEuXbqk38vubnioo6OD8+fPs3//ftauXYuDgwOjRo2yKEh7e3vc3Nwe6J5SU+L56quvcHd3JyoqimHDhhnt5Zvb3o9/UMG8PlywYAEODg689tprhISEMHnyZLNiuHnzJvX19QQFBVm8HOa4evWq0VGQj4+PRUO9D8qUZTdnXfSG5uZmg/u5FQoFrq6uZtVhzjo1Zfv58d+7t7e3fn2Z2lZZWRnu7u4mnVu/19+FKW21tLTQ0NCgv1YAwM7ODicnpx7bNTceMG97/uabbzhw4ADV1dWsWLFCvzP3U/8NmsvLy8vkC1HFL4NR0nd0dCQuLg5PT0/Cw8N5+umnycrKAm7viV69epWgoCAUCgVKpVL/w3K3cePGERkZyfDhw3F1deW5556jq6uL77//3qIgo6Ki2LFjB0888YRF3zc1nh9++IH8/HwWLFjA+fPnjfbWzaHRaBg7dixOTk5YWVnpfwRM7cOnn36aiIgI3nnnHcrLy0lNTeV//a//hbe3t1lxfPTRR0RERDB79myGDh2Kj48PUVFRzJ8/3+Jlu5esrCwmTJhAeHg4Q4YM4fnnn8fX19fo2oGfSk/Lbuq66C0lJSX8j//xPxg2bBgKhYLp06djb29vdj2mrFNTtx9HR0fi4+Px9PRk0qRJPPnkk3zxxRdmtZWbm0tNTQ1r1qwhMDAQd3d3QkJCmDZtmlHs9/q7MLWtrKwsIiMj+Y//+A8UCgVz587tdrTEVPeLx9ztubOzk3fffRcfHx/mzp1r1nI9DB4eHri6upKfn/9Q4xA/LaNd3AsXLmBtbc3mzZu5desWmZmZfPPNN/r527Zt4w9/+AOpqam0tbVx8uRJCgsLDepoaWkhKiqKefPmMXDgQDQaDcnJyfoRg5+aOfEcO3aMJ598kuPHjz9QmxkZGSxcuJCdO3diZWVlcCtQT33o7u7OkiVL+Nvf/qa/4DA3N5egoCBWr17NunXrTL5qPDs7G61Wy8yZM5kzZw5arZby8nKOHDnyQMvXnWPHjuHs7My8efNwdnampqaGHTt2cPny5V5vyxSmLLsp23NvOX36NIGBgfzv//2/aWlp4euvvzY6B2yKnpbLnO2noKAAlUql/3s/cOCAwZXcpvShVqtlw4YNxMbGkpCQgEqlQqPRsH//fqPY7/d3YUpbn376KU5OTiQnJ9PY2Mjp06epqakxuw9NiceS7fnatWvs2bOHZcuWcfHiRS5duvST/g2aIzw8nKKiIosPxsQjSqm00gEy/XuKiIjQ/ed//qfOykr6RaZf9rR8+XJdYmLiQ49Dpp9+UqlUuj179uj8/Pweeiwy/bRT9yez+iGVSoWbmxuzZ8/m2LFjFj8ESAghfu4GDx7Mvn37+uy2U/HzJUn/35YtW8bYsWPJz883us9WCCF+ScrLyw1ufRT9h0KptNJ1dspRrRBCCPFLJy/cEUIIIfoJSfpCCCFEPyFJXwghhOgnDJL+K6+8wvr16+/7haVLl7Ju3bo+DUo8+nrajkzl7u5OWlqa2U+uE0IIYUyu3r+Ln58fzz//PI8//jgARUVFpKWlmfUiETc3N1588UV8fX3x8PDg2LFj/PnPf7Yonscee4z58+czcuRI4PbjTjdt2mTx61yfeeYZVq1aRX5+vtHbA3tbbz0z/KWXXuL48eMP9HREU9zvFatCCPFLIcP7/zZu3DgSExM5deoUy5cvZ8WKFVRVVfHaa6/d89nc3bG2tqahoYHMzMwHeub88OHDef3112lsbCQlJYW33nqLEydOWFzf4MGDefHFF81+U585FAoF0dHRbNu2jaCgIPbs2cPGjRvNfnTwHe7u7oSGhpKdnd3LkQohRP/UbTaLiYlh2rRpKBQKsrOz2bdvn8F8pVLJ4sWLmTBhArdu3eLIkSN8/PHHBmUiIiKYN28eKSkpxMXFMWzYMBoaGti6dav+BQ9hYWFER0fj4eFBXV0d2dnZHDp0yOBtUz2VmThxIq+++qrRMmRkZHDo0CGT6nF0dGTx4sVs2rTJ4GEVe/fuJTg4mNGjR+tfsevs7ExsbCxqtRo7OzsqKys5cOCA/v3eVVVVpKWlATBr1qx7dnxP/RMTE0NxcTHvvPOO/jvdPUhj+vTpTJ06FRcXF5qamigsLGTbtm1G62vlypX89a9/ZcqUKfeMSaVSYWdnR0NDg0UPJ5o0aRIzZsxgw4YN/P73vyc5OZmAgACDVzWbIywsDI1GQ1VVVbfze1oXo0aNYs6cOYwYMQKVSkV1dTUHDx7Uv9fc3t5ev64AFi5cyMKFCwEMHscqhBC/FEZJ38/PD41Gw8aNGwkKCiI+Pp5z585RVFSkLxMUFERWVhZr165l5MiRLF68mOrqanJzcw3qsrGx4YUXXiA1NZXKykp8fHz0Q9OTJ08mLi6OPXv2UFxcjKenJ0uWLKG9vV3/QgtTynz99decPHlS32ZoaChLly41iLenesLDwyksLKS4uBiVSkVcXBwBAQGUl5dTV1eHh4cHBQUF2NjY8MYbb9DW1sa7775LbW0tI0aMMHjrlznu1z+BgYEcPnyYxMRE/Pz8qK+v54svvjA46g0KCiIuLo6UlBQuX76Mk5MTY8eONWpn3rx5VFdXc/r06fsm/RkzZjB37lyTX8X7Y76+vpSWlurfadDa2qpPwJYIDAy853POTVkXLi4uFBQUsG/fPpqamlCr1Sxbtoza2lq+/fZbmpub+e1vfwvI8L4Qon8wSvrNzc2kp6ej0+moqKhg+vTpjBw50iCJNjY28sEHH9DZ2YlGo0GtVhMZGWmU9K2trUlPT9cf2d99pDpnzhw++eQT/VFXTU0Nn3/+OZMnT9YndFPKdHV10dXVBcDQoUNZtGgRaWlp/Otf/zK5LX9/f86dOwfAyy+/jJ2dHVu2bMHLy4vly5dz8eJFAMaPH8/gwYNZsWKF/jz/gwzh36t/lEolgwYNYubMmXz22WdkZmYSEBDAwoULaW1t1e/keHh4oNVqOXv2LFqtlvr6ev0LVu4IDg7m17/+NWvWrLE4zjtvYlOr1Wi1WnJycjh69CgtLS1MnDiRixcvUl5eTkFBAatWrWL27NnY29ujVCotPsqH28P7ly5d6naeKevix9tjVlYWzz77LCEhIXz77bcWxyWEEI8qo6Sv0WgMhtcbGhqMXjVaVVVl8GNeXl7O6NGjjSrv6OigtLTU6HMnJydcXV2JjY0lNjbWYJ5WqzW5zN1UKhWJiYnk5uYaHK2ZUo+zszPXr19HoVAQGhrK2rVr9cPK48aN05f38fGhpqbGrAv77ude/XPn9Z5Xrlzh008/BeC7774jODiYSZMm6ZN+Xl4e0dHRvPfee5w/f56SkhJyc3O5ceMGAIMGDWLp0qVs376dlpaWHuPJzMwkMzPT6HO1Wk1dXR1vv/02Tk5OhIWFsX37dgYMGMCFCxf0byT85z//SXJyMlOmTMHb25u0tDROnTpFRkYGjY2NZvePtbX1PU8zmLIuHBwciI6OJigoCGdnZ5RKJfb29ly5csXsWIQQ4pfAKOnfOWq+24+vxL57p6C7+Xe0trYalb2bKcPIppRRKBSsWLGC5uZm3n//fYvquZNoFQqFQaJpa2szaOd+y2Oue/VPe3s7ra2tRueyr127RlBQkP7/N27cICEhgYCAAPz9/Zk6dSoxMTGsXr2amzdv4u3tjbOzs8EtlncuSty7dy8JCQkm7cCcPHnSYLs4ffo09vb2KBQKmpqaDMrm5eWRl5fH+vXr+fDDD1m0aBFLlixhy5YtpnXKXW7evHnPd9ubsi5WrlyJg4MDGRkZXL16lc7OTpKSknrtzgIhhHjUWHT1/rBhw1Aqlfr/e3l5dftu+nu5efMm9fX1BgnMkjJ3zJ07F19fQDZ9rQAAIABJREFUX95++206OjrMrqe2thZ3d3d0Oh1nzpxh1qxZKJVKhg8fzlNPPaUvV1ZWhru7O25ubiYs5YMpLS1lyJAhBp+5ubkZ3brW0dHB+fPn2b9/P2vXrsXBwYFRo0YBcPnyZVatWkVSUpJ+unLlCoWFhSQlJVFfX29Ql729PW5ubtjY2Bh83t2OYHNzs1HC/7GSkhKys7Px9/c3ebnvVlpaipeXV7fzeloXCoWCwMBADh48yKVLl6irq6OpqQl3d/duy3d0dJh1l4YQQjyKLEr6jo6OxMXF4enpSXh4OE8//TRZWVlm1fHRRx8RERHB7NmzGTp0KD4+PkRFRTF//nyzyowZM4bZs2ezY8cOWltbsbW1xdbW1mCnpKd6Lly4oB/G3717N3Z2dmzbto3f/e53XLp0SX/kn5ubS01NDWvWrCEwMBB3d3dCQkKYNm2avq0BAwbg4+ODj48P1tbWODg44OPjw9ChQ83qny+//BK1Wk1UVBSenp5MnjyZMWPG6IfS4fZthpGRkQwfPhxXV1eee+45urq6+P7774Hbpy+qqqoMJq1Wq//8x+fbo6Ki2LFjB0888YRZsd4xa9YswsPDcXNzQ6FQ4OrqyoQJEwyuBzHHmTNnePzxx7GysjKa19O60Ol0XL16laCgIBQKBUqlkgULFtxz5ECj0TB27FicnJywsrLSj/wIIcQviUWHNhcuXMDa2prNmzdz69YtMjMz+eabb8yqIzs7G61Wy8yZM5kzZw5arZby8nKOHDliVpnAwECUSqXRE+DuvmWvp3pycnKIiYlh4sSJHD9+nO3bt3cbs1arZcOGDcTGxpKQkIBKpUKj0bB//359GZVKZTCUPWTIEEJDQ9FoNCQkJJjcP7m5uTg6OjJjxgxiY2Opra0lLS3N4F79lpYWoqKimDdvHgMHDkSj0ZCcnGzWqEtv0mg0TJs2jQULFjBo0CC2bNnCuXPnSE9Pt6i+06dPEx8fT2hoqMEdGmDauti2bRt/+MMfSE1Npa2tjZMnT1JYWNhtWxkZGSxcuJCdO3diZWUlt+wJIX6ZlEorHdDvJ19fX93u3bt1sbGxuiFDhuiUSqXOxcVFp1KpHnpsj+L0xz/+sVfqiYiI0G3evFmnUCge+jLJJJNMMj3qk5zE/LeSkhKSkpKIjo5m3bp1uLi40NLSws6dO/UP5hGm660LHrOzs7G3t8fZ2ZkffvihV+oUQoj+SqFUWuk6O81/+poQQgghHi1ytZIQQgjRT0jSF0IIIfoJSfpCCCFEPyFJXwghhOgn+izp+/v7s2vXLqOnuwkhhBDi4eizpF9UVERlZSXR0dF91YQQQgghzNCnw/vZ2dlERkZ2+xhVIYQQQvy09En/mWeeYdmyZQQEBPTaW8jy8/OxtbVl7NixvVKfEEIIISynHDBA+bpO10V7ezv+/v688MILPPvss6hUKmpqamhtbbW48q6uLkJCQrCysuLs2bO9GLYQQgghzKVP+s3NzeTl5fGPf/yDGzdu8OSTTxIfH4+fnx/t7e1UV1db9GhVtVqNs7MzOTk5fRC+EEIIIUxldE6/ra2NEydO8NZbb5GYmIizszOrV6/Gx8fHogba2tqwtrZ+0DiFEEII8YCMXrijVCpRq9WEhYUREhJCWVkZu3btoqKiwqIGHB0daWhoeOBAhRBCCPFg9Enfzc2NWbNmMX78eDo6Ovj6669JTEykurr6gRrw8vLSv7deCCGEEA+PPun7+fnh4uLCzp07OXv2LF1dXQ9cuYeHB66uruTn5z9wXUIIIYR4MPqkf+LECU6cONGrlYeHh1NUVMT333/fq/UKIYQQwnx99nAelUpFREQEf/vb3/qqCSGEEEKYQaFUWuk6O9t7vWJvb28ee+wxjh492ut1CyGEEMJ8fZb0hRBCCPHzIq/WFUIIIfoJSfpCCCFEPyFJXwghhOgnJOkLIYQQ/US3SX/p0qUcOHCAmTNn/tTxCCGEEKKPGD17f8aMGYSEhJCenk5sbCwVFRUUFBQYlHFxcWH+/Pmo1Wrs7Oyoqanh0KFDHDt27CcLXAghhBDmMUj6wcHBzJ07lzfffJMrV67Q2NjIypUrWb9+vf4Z/I6Ojrz55ps0NzeTmprK9evX8fb2xtPT86EsgBBCCCFMpFRa6QCdh4eHbvfu3brg4GAdoJ8iIyN1KSkpOjs7Ox2gW7BggS4jI0Pn6OhoUE4mmWSSSSaZZPp5T2Y/nOedd96hoqKC5ORkk78jhBBCiIfP7Kv33dzcuH79el/EIoQQQog+ZNEtezqdrrfjEEIIIUQfMzvpX79+HTc3t76IRQghhBB9yOykn5+fz5gxY3BwcOiLeIQQQgjRR5QDBihf1+m6TP7Cd999x8SJExk3bhz19fXY2NgQHBzM+PHjuXjxYh+GKoQQQogHYdGrdX/1q1/pH85ja2tLTU0Nf//73/nqq6/6KEwhhBBCPCiLkr4QQgghHj3ywh0hhBCin5CkL4QQQvQTkvSFEEKIfkKSvhBCCNFPSNIXQggh+glJ+kIIIUQ/YZD0X3nlFdavX3/fLyxdupR169b1aVDi0dfTdmQqd3d30tLScHV17ZX6hBCiPxv4sAP4OfHz8+P555/n8ccfB6CoqIi0tDRqa2tNrsPNzY0XX3wRX19fPDw8OHbsGH/+858tiuexxx5j/vz5jBw5EoCysjI2bdpEa2urRfU988wzrFq1ivz8fDZt2mRRHaZSKBS9Us9LL73E8ePHqaur65X67uX999/nww8/5Msvv+zTdoQQ4mGS4f1/GzduHImJiZw6dYrly5ezYsUKqqqqeO211xg40PR9I2traxoaGsjMzOTq1asWxzN8+HBef/11GhsbSUlJ4a233uLEiRMW1zd48GBefPFFKioqLK6jJwqFgujoaLZt20ZQUBB79uxh48aNeHt7W1Sfu7s7oaGhZGdn93KkQgjRP3WbzWJiYpg2bRoKhYLs7Gz27dtnMF+pVLJ48WImTJjArVu3OHLkCB9//LFBmYiICObNm0dKSgpxcXEMGzaMhoYGtm7dSklJCQBhYWFER0fj4eFBXV0d2dnZHDp0yODVvT2VmThxIq+++qrRMmRkZHDo0CGT6nF0dGTx4sVs2rSJ4uJi/Xf27t1LcHAwo0ePpqCgAABnZ2diY2NRq9XY2dlRWVnJgQMHOHPmDABVVVWkpaUBMGvWrHt2fE/9ExMTQ3FxMe+8847+O3fHdsf06dOZOnUqLi4uNDU1UVhYyLZt24zW18qVK/nrX//KlClT7hmTSqXCzs6OhoYG2tvNf0rjpEmTmDFjBhs2bOD3v/89ycnJBAQE0NnZaXZdcHudaTQaqqqqup3f07oYNWoUc+bMYcSIEahUKqqrqzl48CA5OTkA2Nvb69cVwMKFC1m4cCEAqampHD161KK4hRDi58oo6fv5+aHRaNi4cSNBQUHEx8dz7tw5ioqK9GWCgoLIyspi7dq1jBw5ksWLF1NdXU1ubq5BXTY2NrzwwgukpqZSWVmJj4+Pfmh68uTJxMXFsWfPHoqLi/H09GTJkiW0t7dz+PBhk8t8/fXXnDx5Ut9maGgoS5cuNYi3p3rCw8MpLCykuLgYlUpFXFwcAQEBlJeXU1dXh4eHBwUFBdjY2PDGG2/Q1tbGu+++S21tLSNGjMDDw8Oizr9f/wQGBnL48GESExPx8/Ojvr6eL774wuCoNygoiLi4OFJSUrh8+TJOTk6MHTvWqJ158+ZRXV3N6dOn75v0Z8yYwdy5c9m6dSt5eXlmL4+vry+lpaVoNBoAWltb9QnYEoGBgVy+fLnbeaasCxcXFwoKCti3bx9NTU2o1WqWLVtGbW0t3377Lc3Nzfz2t78FZHhfCNE/GCX95uZm0tPT0el0VFRUMH36dEaOHGmQRBsbG/nggw/o7OxEo9GgVquJjIw0SvrW1takp6frj+zvPlKdM2cOn3zyif6oq6amhs8//5zJkyfrE7opZbq6uujquv2WwKFDh7Jo0SLS0tL417/+ZXJb/v7+nDt3DoCXX34ZOzs7tmzZgpeXF8uXL9e/PXD8+PEMHjyYFStW6M/zP8gQ/r36R6lUMmjQIGbOnMlnn31GZmYmAQEBLFy4kNbWVv1OjoeHB1qtlrNnz6LVaqmvr6esrMygjeDgYH7961+zZs0ai+N0dHQkPj4etVqNVqslJyeHo0eP0tLSwsSJE7l48SLl5eUUFBSwatUqZs+ejb29PUql0uKjfLg9vH/p0qVu55myLn68PWZlZfHss88SEhLCt99+a3FcQgjxqDJK+hqNxmB4vaGhAQcHB4MyVVVVBj/m5eXljB492qjyjo4OSktLjT53cnLC1dWV2NhYYmNjDeZptVqTy9xNpVKRmJhIbm6uwdGaKfU4Oztz/fp1FAoFoaGhrF27Vj+sPG7cOH15Hx8fampqzLqw737u1T8DBty+1OLKlSt8+umnwO1XGgcHBzNp0iR90s/LyyM6Opr33nuP8+fPU1JSQm5uLjdu3ABg0KBBLF26lO3bt9PS0tJjPJmZmWRmZhp9rlarqaur4+2338bJyYmwsDC2b9/OgAEDuHDhAsePHwfgn//8J8nJyUyZMgVvb2/S0tI4deoUGRkZNDY2mt0/1tbW9zzNYMq6cHBwIDo6mqCgIJydnVEqldjb23PlyhWzYxFCiF8Co6R/56j5bj++EvvunYLu5t/R2tpqVPZupgwjm1JGoVCwYsUKmpubef/99y2q506iVSgUBommra3NoJ37LY+57tU/7e3ttLa2Gp3LvnbtGkFBQfr/37hxg4SEBAICAvD392fq1KnExMSwevVqbt68ibe3N87Ozga3WN65KHHv3r0kJCSYtANz8uRJg+3i9OnT2Nvbo1AoaGpqMiibl5dHXl4e69ev58MPP2TRokUsWbKELVu2mNYpd7l586bRDucdpqyLlStX4uDgQEZGBlevXqWzs5OkpKReu7NACCEeNRZdvT9s2DCUSqX+/15eXvrzuKa4efMm9fX1BgnMkjJ3zJ07F19fX95++206OjrMrqe2thZ3d3d0Oh1nzpxh1qxZKJVKhg8fzlNPPaUvV1ZWhru7O25ubiYs5YMpLS1lyJAhBp+5ubkZ3brW0dHB+fPn2b9/P2vXrsXBwYFRo0YBcPnyZVatWkVSUpJ+unLlCoWFhSQlJVFfX29Ql729PW5ubtjY2Bh83t2OYHNzs1HC/7GSkhKys7Px9/c3ebnvVlpaipeXV7fzeloXCoWCwMBADh48yKVLl6irq6OpqQl3d/duy3d0dJh1l4YQQjyKLEr6jo6OxMXF4enpSXh4OE8//TRZWVlm1fHRRx8RERHB7NmzGTp0KD4+PkRFRTF//nyzyowZM4bZs2ezY8cOWltbsbW1xdbW1mCnpKd6Lly4oB/G3717N3Z2dmzbto3f/e53XLp0SX/kn5ubS01NDWvWrCEwMBB3d3dCQkKYNm2avq0BAwbg4+ODj48P1tbWODg44OPjw9ChQ83qny+//BK1Wk1UVBSenp5MnjyZMWPG6IfS4fZthpGRkQwfPhxXV1eee+45urq6+P7774Hbpy+qqqoMJq1Wq//8x+fbo6Ki2LFjB0888YRZsd4xa9YswsPDcXNzQ6FQ4OrqyoQJEwyuBzHHmTNnePzxx7GysjKa19O60Ol0XL16laCgIBQKBUqlkgULFtxz5ECj0TB27FicnJywsrLSj/wIIcQviUWHNhcuXMDa2prNmzdz69YtMjMz+eabb8yqIzs7G61Wy8yZM5kzZw5arZby8nKOHDliVpnAwECUSqXRE+DuvmWvp3pycnKIiYlh4sSJHD9+nO3bt3cbs1arZcOGDcTGxpKQkIBKpUKj0bB//359GZVKZTCUPWTIEEJDQ9FoNCQkJJjcP7m5uTg6OjJjxgxiY2Opra0lLS3N4F79lpYWoqKimDdvHgMHDkSj0ZCcnGzWqEtv0mg0TJs2jQULFjBo0CC2bNnCuXPnSE9Pt6i+06dPEx8fT2hoqMEdGmDauti2bRt/+MMfSE1Npa2tjZMnT1JYWNhtWxkZGSxcuJCdO3diZWUlt+wJIX6ZlEorHdDvJ19fX93u3bt1sbGxuiFDhuiUSqXOxcVFp1KpHnpsj+L0xz/+sVfqiYiI0G3evFmnUCge+jLJJJNMMj3qk5zE/LeSkhKSkpKIjo5m3bp1uLi40NLSws6dO/UP5hGm660LHrOzs7G3t8fZ2ZkffvihV+oUQoj+SqFUWuk6O81/+poQQgghHi1ytZIQQgjRT0jSF0IIIfoJSfpCCCFEPyFJXwghhOgn+izp+/v7s2vXLqOnuwkhhBDi4eizpF9UVERlZSXR0dF91YQQQgghzNCnw/vZ2dlERkZ2+xhVIYQQQvy09En/mWeeYdmyZQQEBPTaW8jy8/OxtbVl7NixvVKfEEIIISynHDBA+bpO10V7ezv+/v688MILPPvss6hUKmpqamhtbbW48q6uLkJCQrCysuLs2bO9GLYQQgghzKVP+s3NzeTl5fGPf/yDGzdu8OSTTxIfH4+fnx/t7e1UV1db9GhVtVqNs7MzOTk5fRC+EEIIIUxldE6/ra2NEydO8NZbb5GYmIizszOrV6/Gx8fHogba2tqwtrZ+0DiFEEII8YCMXrijVCpRq9WEhYUREhJCWVkZu3btoqKiwqIGHB0daWhoeOBAhRBCCPFg9Enfzc2NWbNmMX78eDo6Ovj6669JTEykurr6gRrw8vLSv7deCCGEEA+PPun7+fnh4uLCzp07OXv2LF1dXQ9cuYeHB66uruTn5z9wXUIIIYR4MPqkf+LECU6cONGrlYeHh1NUVMT333/fq/UKIYQQwnx99nAelUpFREQEf/vb3/qqCSGEEEKYQaFUWuk6O9t7vWJvb28ee+wxjh492ut1CyGEEMJ8fZb0hRBCCPHzIq/WFUIIIfoJSfpCCCFEPyFJXwghhOgnJOkLIYQQ/US3SX/p0qUcOHCAmTNn/tTxCCGEEKKPGD17f8aMGYSEhJCenk5sbCwVFRUUFBQYlHFxcWH+/Pmo1Wrs7Oyoqanh0KFDHDt27CcLXAghhBDmMUj6wcHBzJ07lzfffJMrV67Q2NjIypUrWb9+vf4Z/I6Ojrz55ps0NzeTmprK9evX8fb2xtPT86EsgBBCCCFMpFRa6QCdh4eHbvfu3brg4GAdoJ8iIyN1KSkpOjs7Ox2gW7BggS4jI0Pn6OhoUE4mmWSSSSaZZPp5T2Y/nOedd96hoqKC5ORkk78jhBBCiIfP7Kv33dzcuH79el/EIoQQQog+ZNEtezqdrrfjEEIIIUQfMzvpX79+HTc3t76IRQghhBB9yOykn5+fz5gxY3BwcOiLeIQQQgjRR5QDBihf1+m6TP7Cd999x8SJExk3bhz19fXY2NgQHBzM+PHjuXjxYh+GKoQQQogHYdGrdX/1q1/pH85ja2tLTU0Nf//73/nqq6/6KEwhhBBCPCiLkr4QQgghHj3ywh0hhBCin5CkL4QQQvQTkvSFEEKIfkKSvhBCCNFPSNIXQggh+glJ+kIIIUQ/YZD0X3nlFdavX3/fLyxdupR169b1aVDi0dfTdmQqd3d30tLScHV17ZX6HjZ/f3927dqFjY3NfcstXbqUAwcOMHPmzJ8oMiFEfzDwYQfwc+Ln58fzzz/P448/DkBRURFpaWnU1taaXIebmxsvvvgivr6+eHh4cOzYMf785z9bFM9jjz3G/PnzGTlyJABlZWVs2rSJ1tZWi+p75plnWLVqFfn5+WzatMmiOkylUCh6pZ6XXnqJ48ePU1dX1yv13cv777/Phx9+yJdfftmn7RQVFVFZWUl0dDQHDhzotsyMGTMICQkhPT2d2NhYKioqKCgoMCjj4uKif0CWnZ0dNTU1HDp0iGPHjvVp/EKIR5sk/X8bN24cL7/8Mnv37mX79u0oFApmzZrFa6+9RmJiIh0dHSbVY21tTUNDA5mZmcydO9fieIYPH87rr7/Of//3f5OSkkJLSwteXl4W1zd48GBefPFFKioqLK6jJ3f67Nlnn8XDw4M9e/ag0Wh4//33KS8vN7s+d3d3QkNDWb16dR9E+/BkZ2ezaNEiPv30U9rbDR+MFRwczNy5c3nzzTe5cuUKjY2NrFy5kvXr11NdXQ2Ao6Mjb775Js3NzaSmpnL9+nW8vb3x9PR8GIsjhHiEdJv0Y2JimDZtGgqFguzsbPbt22cwX6lUsnjxYiZMmMCtW7c4cuQIH3/8sUGZiIgI5s2bR0pKCnFxcQwbNoyGhga2bt1KSUkJAGFhYURHR+Ph4UFdXR3Z2dkcOnTI4NW9PZWZOHEir776qtEyZGRkcOjQIZPqcXR0ZPHixWzatIni4mL9d/bu3UtwcDCjR4/WH2k5OzsTGxurP8KqrKzkwIEDnDlzBoCqqirS0tIAmDVr1j07vqf+iYmJobi4mHfeeUf/nbtju2P69OlMnToVFxcXmpqaKCwsZNu2bUbra+XKlfz1r39lypQp94xJpVJhZ2dHQ0ODUTIyxaRJk5gxYwYbNmzg97//PcnJyQQEBNDZ2Wl2XXB7nWk0Gqqqqrqd39O6GDVqFHPmzGHEiBGoVCqqq6s5ePAgOTk5ANjb2+vXFcDChQtZuHAhAKmpqRw9etSgvQftnzvy8/OxtbVl7NixnD59Wv+5h4cHy5YtIzk5mStXrgCQk5ODnZ0dSUlJrF+/npaWFn7zm9/g6OjI2rVraWxsBG6/E0MIIXpilPT9/PzQaDRs3LiRoKAg4uPjOXfuHEVFRfoyQUFBZGVlsXbtWkaOHMnixYuprq4mNzfXoC4bGxteeOEFUlNTqaysxMfHRz80PXnyZOLi4tizZw/FxcV4enqyZMkS2tvbOXz4sMllvv76a06ePKlvMzQ0lKVLlxrE21M94eHhFBYWUlxcjEqlIi4ujoCAAMrLy6mrq8PDw4OCggJsbGx44403aGtr491336W2tpYRI0bg4eFhUeffr38CAwM5fPgwiYmJ+Pn5UV9fzxdffEF2drbBeoiLiyMlJYXLly/j5OTE2LFjjdqZN28e1dXVnD59+r5Jf8aMGcydO5etW7eSl5dn9vL4+vpSWlqKRqMBoLW1VZ+ALREYGMjly5e7nWfKunBxcaGgoIB9+/bR1NSEWq1m2bJl1NbW8u2339Lc3Mxvf/tbwLTh/Qftnzva29v57rvvCAwMNEj6V69e1e903C0rK4usrCz9/0NCQjh79qw+4QshhKmMkn5zczPp6enodDoqKiqYPn06I0eONEiijY2NfPDBB3R2dqLRaFCr1URGRholfWtra9LT0/VH9ncfqc6ZM4dPPvlEf9RVU1PD559/zuTJk/UJ3ZQyXV1ddHXdfkvg0KFDWbRoEWlpafzrX/8yuS1/f3/OnTsHwMsvv4ydnR1btmzBy8uL5cuX698eOH78eAYPHsyKFSv05/mvXr1qWc/fp3+USiWDBg1i5syZfPbZZ2RmZhIQEMDChQtpbW3V7+R4eHig1Wo5e/YsWq2W+vp6ysrKDNoIDg7m17/+NWvWrLE4TkdHR+Lj41Gr1Wi1WnJycjh69CgtLS1MnDiRixcvUl5eTkFBAatWrWL27NnY29ujVCotPsqH28P7ly5d6naeKevix9tjVlYWzz77LCEhIXz77bcWx9Ub6urqcHd3t+i7bm5u5Ofn93JEQoj+wCjpazQag+H1hoYGHBwcDMpUVVUZ/JiXl5czevRoo8o7OjooLS01+tzJyQlXV1diY2OJjY01mKfVak0uczeVSkViYiK5ubkGR2um1OPs7Mz169dRKBSEhoaydu1a/bDyuHHj9OV9fHyoqakx68K++7lX/wwYcPumiitXrvDpp58Ct4dvg4ODmTRpkj7p5+XlER0dzXvvvcf58+cpKSkhNzeXGzduADBo0CCWLl3K9u3baWlp6TGezMxMMjMzjT5Xq9XU1dXx9ttv4+TkRFhYGNu3b2fAgAFcuHCB48ePA/DPf/6T5ORkpkyZgre3N2lpaZw6dYqMjAyLjkqtra3vOYxuyrpwcHAgOjqaoKAgnJ2dUSqV2Nvb64fOzXWv/rFEW1sbgwYNsvj7d/+NCiGEqYyS/p2j5rv9+ErsH//g3OtK7dbW1vv+OJkyTGpKGYVCwYoVK2hubub999+3qJ47iVahUBgkmra2NoN2evPH9l79097eTmtrq9G57GvXrhEUFKT//40bN0hISCAgIAB/f3+mTp1KTEwMq1ev5ubNm3h7e+Ps7Gxwi+XAgbdX+d69e0lISDBpB+bkyZMG28Xp06ext7dHoVDQ1NRkUDYvL4+8vDzWr1/Phx9+yKJFi1iyZAlbtmwxrVPucvPmTaMdzjtMWRcrV67EwcGBjIwMrl69SmdnJ0lJSb12Z8GDcHR0pKGhwaLvXr9+HTc3t16OSAjRH1j0cJ5hw4ahVCr1//fy8tKfxzXFzZs3qa+vN0hglpS5Y+7cufj6+vL2228bXWVvSj21tbW4u7uj0+k4c+YMs2bNQqlUMnz4cJ566il9ubKyMtzd3X+SH9zS0lKGDBli8Jmbm5vRrWsdHR2cP3+e/fv3s3btWhwcHBg1ahQAly9fZtWqVSQlJemnK1euUFhYSFJSEvX19QZ12dvb4+bmZnQPeXc7gs3NzUYJ/8dKSkrIzs7G39/f5OW+W2lp6T3vWOhpXSgUCgIDAzl48CCXLl2irq6Opqamew6pd3R06HeI7sXGxgZXV9ce77E3hZeXl/60jrny8/MZM2bMPXeIhBDiXixK+o6OjsTFxeHp6Ul4eDhPP/20wYVGpvjoo4+IiIhg9uzZDB06FB8fH6Kiopg/f75ZZcaMGcPs2bPZsWMHra2t2NraYmtra7BT0lM9Fy5c0A/j7969Gzs7O7Zt28bvfvc7Ll26pD/yz83NpaamhjVr1hAYGIi7uzshISFMmzZN39aAAQPw8fHBx8cHa2trHBzUk9lFAAAgAElEQVQc8PHxYejQoWb1z5dffolarSYqKgpPT08mT57MmDFj9EPpcPs2w8jISIYPH46rqyvPPfccXV1dfP/998Dt0xdVVVUGk1ar1X/+4/PtUVFR7NixgyeeeMKsWO+YNWsW4eHhuLm5oVAocHV1ZcKECQbXg5jjzJkzPP7441hZWRnN62ld6HQ6rl69SlBQEAqFAqVSyYIFC+6ZKDUaDWPHjsXJyQkrKyv9yM/dwsLC2LVrF2FhYRYtzx0eHh64urpafF7+4MGDtLS08Kc//YmQkBB8fHwIDw83+LsQQojuWHSf/oULF7C2tmbz5s3cunWLzMxMvvnmG7PqyM7ORqvVMnPmTObMmYNWq6W8vJwjR46YVSYwMBClUmn0BLi7b9nrqZ6cnBxiYmKYOHEix48fZ/v27d3GrNVq2bBhA7GxsSQkJKBSqdBoNOzfv19fRqVSGQxlDxkyhNDQUDQaDQkJCSb3T25uLo6OjsyYMYPY2Fhqa2tJS0vjxIkT+jItLS1ERUUxb948Bg4ciEajITk52axRl96k0WiYNm0aCxYsYNCgQWzZsoVz586Rnp5uUX2nT58mPj6e0NBQgzs0wLR1sW3bNv7whz+QmppKW1sbJ0+epLCwsNu2MjIyWLhwITt37sTKyqrbW/bs7OyA28PrDyI8PJyioiL9zpm5bt68yfr165k/fz6vvvoqtra21NTU8Pe///2B4hJC9ANKpZUO6PeTr6+vbvfu3brY2FjdkCFDdEqlUufi4qJTqVQPPbZHcfrjH//YK/VEREToNm/erFMoFA99mV577TXdW2+99UB1qFQq3Z49e3R+fn4PfXlkkkmm/jfJC3f+raSkhKSkJKysrFi3bh3p6en8n//zf/SP5BXm6a0LHrP/P/buPS7KKnH8+GcYAbkIk/MiQVGHEBERRS1XhRUVEcEKRVSKhHZdDb/lJdO0XFu17VXmpusS3rDFclsT02zNNVbWMozk5xIqXtEBFRhu6gJyG7n9/vDrfBsHmWdgwAvn/Xrx0pk5z3nO7Tlnnmee55yUFH766ScUCoVZ4mstuVyOl5cXf//739sUz5NPPsmuXbuanWhJEAShvcnkcsumhobWzy4mCIIgCMKjQZzpC4IgCEInIQZ9QRAEQegkxKAvCIIgCJ2EGPQFQRAEoZPQG/RjY2MNnne/16uvvqo3rasgNMdYO5KqR48eJCYmolQqzRLfvaS0eUEQhMdFqybneVx5enoSHh6ue0zv/PnzJCYmmrTAjpOTEy+++CLu7u44Oztz5MgRtmzZ0qr09OvXjxdeeAEPDw/gztSzH3zwgW75XVONGjWK119/nZ9//pkPPvigVXFIZa757V966SW+//57g+mHBUEQBNOJy/v/a+TIkSxdupTjx48zf/58FixYQEFBAW+//bbROdl/ycrKioqKCvbs2dOmZXd79+7NqlWruHXrFhs2bOC9997Tm43PVE8++SQvvvgi165da3UcxshkMsLCwti4cSM+Pj5s376dNWvW0Ldv31bF16NHD0aMGEFKSoqZUyoIgtA5NTuaTZs2jZCQEGQyGSkpKezatUvvc7lcziuvvIK/vz+1tbV8++237N27Vy9MUFAQkZGRbNiwgejoaFxdXamoqGDdunW6hUbGjBlDWFgYzs7O3Lhxg5SUFA4cOKA3sYuxMGPHjuV//ud/DPLwy2l4jcXTrVs3XnnlFT744AO9SVM+//xzhgwZgre3N6dOnQLuLMMbFRWFr68vtra25Ofnk5SUREZGBnBn2eHExETgzlz092OsfKZNm8bFixf585//rNumuQldJk+ezKRJk+jevTuVlZWcO3eOjRs3GtTXwoUL+dvf/sbEiRPvmyYbGxtsbW2pqKi475K2LRk3bhzPPvssf/jDH/jNb37D+vXrGThwoMEc/1KNGTNGt8Tx/T431n6M1dddLbV5mUzGlClTmDhxIgqFgqKiIvbu3dumL2GCIAgPgsGg7+npiUajYc2aNfj4+BATE8PJkyf1Fk3x8fEhOTmZZcuW4eHhwSuvvEJhYSFpaWl6cVlbWzNz5ky2bt1Kfn4+KpVKd2k6MDCQ6Ohotm/fzsWLF+nZsyfz5s2jrq6OQ4cOSQ7zww8/6M3LPmLECF599VW99BqLJyAggHPnznHx4kVsbGyIjo5m4MCBXL16lRs3buDs7MypU6ewtrZm9erV3L59m7/85S+Ulpbi5uaGs7Nzqwq/pfIZNGgQhw4dYunSpXh6enLz5k3+9a9/6Z31+vj4EB0dzYYNG8jOzsbR0ZFhw4YZ7CcyMpLCwkLS09NbHPSfffZZpk+fLmk54+a4u7uTk5Ojm/u/pqbGYHA1xaBBg8jOzm72MyltQ2p9GWvzY8eOJSIigm3btpGdnc2oUaNYsGABxcXFXLp0qdX5EwRB6GgGg35VVRU7duygqamJa9euMXnyZDw8PPQG0Vu3bvHZZ5/R0NCARqPB19eX4OBgg0HfysqKHTt26M7sf3mmGhERwb59+0hNTQWgpKSEb775hsDAQF2nLSVMY2OjbunXXr16MXfuXBITE7l8+bLkfXl5eXHy5EkAfve732Fra8uHH35Inz59mD9/PmfOnAFg9OjRPPnkkyxYsED3O39bLuHfr3zkcjkODg4899xzfP311+zZs4eBAwcyZ84campqdF9ynJ2d0Wq1ZGZmotVquXnzJrm5uXr7GDJkCH5+fixZsqTV6ezWrRsxMTH4+vqi1WpJTU3l3//+N9XV1YwdO5YzZ85w9epVTp06xeuvv87UqVOxs7NDLpe3+iwf7lzeP3v2bLOfSWkbUuvLWJsPCQnh2LFjHD16FIB9+/bxzDPPEBISIgZ9QRAeKQaDvkaj0bs8WlFRYbAc6b3Lsl69ehVvb2+DyOvr68nJyTF439HREaVSSVRUFFFRUXqfabVayWF+ycbGhqVLl5KWlsbhw4dN2pdCoeD69evIZDJGjBjBsmXLdJeV7y65C6BSqSgpKTHpxr6W3K987i7reunSJb766isArly5wpAhQxg3bpxu0D9x4gRhYWF8/PHHnD59GrVaTVpaGmVlZQA4ODjw6quvEhcXR3V1tdH07Nmzhz179hi87+vry40bN/jTn/6Eo6MjY8aMIS4uDgsLC7KysnTL/f6///f/WL9+PRMnTqRv374kJiZy/Phxdu7cya1bt0wuHysrq2Z/ZpDaNqTWl7E27+zszHfffae3TW5uLm5ubiblRxAE4UEzGPTvnjX/0r13Yt+7mMr97tSuqalpceEVKZeRpYSRyWQsWLCAqqoqPvnkk1bFc3eglclkegPN7du39fZjroVk4P7lU1dXR01NjcFv2cXFxfj4+Ohel5WVsWjRIgYOHIiXlxeTJk1i2rRpLF68mPLycvr27YtCodB7xPLuTYmff/45ixYtkvQF5scff9RrF+np6djZ2SGTyaisrNQLe+LECU6cOMGKFSv44osvmDt3LvPmzdNbbliq8vJygy+cv2SsTqXWlznbvCAIwsOsVXfvu7q6IpfLda/79Olj0hru5eXl3Lx5U28Aa02Yu6ZPn467uzt/+tOfqK+vNzme0tJSevToQVNTExkZGTz//PPI5XJ69+7NM888owuXm5tLjx49cHJykpDLtsnJycHFxUXvPScnJ4NH1+rr6zl9+jS7d+9m2bJl2NvbM2DAAACys7N5/fXXefPNN3V/ly5d4ty5c7z55pvcvHlTLy47OzucnJywtrbWe7+5QbGqqspgwL+XWq0mJSUFLy8vyfn+pZycHPr06WPwvtS2Ya76KioqMjirV6lUbfppRxAE4UFo1aDfrVs3oqOj6dmzJwEBAfzqV78iOTnZpDi+/PJLgoKCmDp1Kr169UKlUhEaGsoLL7xgUpihQ4cydepU4uPjqampoWvXrnTt2lXvS4mxeLKysnSX8RMSErC1tWXjxo28/PLLnD17Vnfmn5aWRklJCUuWLGHQoEH06NGD4cOHExISotuXhYUFKpUKlUqFlZUV9vb2qFQqevXqZVL5HD58GF9fX0JDQ+nZsyeBgYEMHTpUdykd7jxmGBwcTO/evVEqlUyYMIHGxkby8vKAO5e6CwoK9P60Wq3u/Xt/bw8NDSU+Pp7BgweblNa7nn/+eQICAnByckImk6FUKvH399e7H8QUGRkZ9O/fH0tLS4PPpLQNKfUlRXJyMv7+/gQEBODi4kJ4eDju7u66ewcEQRAeFa2anCcrKwsrKyvWrl1LbW0te/bs4aeffjIpjpSUFLRaLc899xwRERFotVquXr3Kt99+a1KYQYMGIZfLDWZV++Uje8biSU1NZdq0aYwdO5bvv/+euLi4ZtOs1Wr5wx/+QFRUFIsWLcLGxgaNRsPu3bt1YWxsbPQuZbu4uDBixAg0Gg2LFi2SXD5paWl069aNZ599lqioKEpLS0lMTNR7TKy6uprQ0FAiIyPp0qULGo2G9evXm3TVxZw0Gg0hISHMmjULBwcHPvzwQ06ePMmOHTtaFV96ejoxMTGMGDFC7wkNkNY2pNSXFEeOHEGhUBAZGYlCoaCkpIT4+Pj7PlkgCILw0JLLLZuATv/n7u7elJCQ0BQVFdXk4uLSJJfLm7p3795kY2PzwNP2KP79/ve/N0s8QUFBTWvXrm2SyWQPPE/iT/yJP/H3qP+JaXj/l1qt5s033yQsLIzly5fTvXt3qqur2bRpk25iHkE6c93wmJKSgp2dHQqFgv/+979miVMQBKGzksnllk0NDabPviYIgiAIwqNFzL0vCIIgCJ2EGPQFQRAEoZMQg74gCIIgdBJi0BcEQRCETqJd7t6PjY1FqVTy3nvvtSmeuLg4evToAdyZIKW5KXalhHkUtTZfcXFx/Pvf/2b//v3tmTxBEAThEfRQP7I3f/58AFauXNmmMI+ixzVfgiAIwoMjLu8LgiAIQiehO9MfNWoUw4cP58iRI5w/f94sk6tMmzaNkJAQZDIZKSkp7Nq1S+/zMWPGEBYWhrOzMzdu3CAlJYUDBw6YdSU7uLMi2pQpU5g4cSIKhYKioiL27t2rN6WtMZs3b2bfvn16y/beNXv2bJ588knef/99yfsKCgoiMjKSDRs2EB0djaurKxUVFaxbtw61Wi0pTV26dCEmJoZf//rXNDY2cvDgQcn5EQRBEDof3aCfk5PD0KFDWbZsGRUVFXz33XccPXrUYFU3qTw9PdFoNKxZswYfHx9iYmI4efKkbvGVwMBAoqOj2b59OxcvXqRnz57MmzePuro6sy9kMnbsWCIiIti2bRvZ2dmMGjWKBQsWUFxczKVLlyTFceHCBTw8PJod9D08PEhPTzd5X9bW1sycOZOtW7eSn5+PSqWipqZGcr6mTp2Kv78/cXFxlJSU8NJLL3XICoCCIAjCo0l3eb+4uJhNmzYxZ84cdu/ejZeXF3Fxcbz99tuMHDlSb9U6KaqqqtixYwfXrl3j4MGDXL9+HQ8PD93nERER7Nu3j9TUVEpKSjh58iTffPMNgYGB5svd/woJCeHYsWMcPXqUwsJC9u3bh1qtNmm1tbuDPkCvXr1YuHAh1tbWWFpa0rdvXy5cuGDyvqysrNixYwdqtRqtVsvFixdNWiwnODiYQ4cOkZGRQV5eHtu2bRPrvAuCIAj3ZXAj3+3btzl27BjHjh3TDW6LFy/mrbfeknzZGe6suPbLy/QVFRXY29sD4OjoiFKpJCoqiqioKL3ttFpta/NyX87Oznz33Xd67+Xm5hqskd6SCxcu8Nvf/hZbW1tGjBjB008/zcCBA6murqapqYnLly+bvK/6+npycnJakSOws7PDwcGBq1ev6t67ceOG0TXuBUEQhM7LYNCXy+X4+voyZswYhg8fTm5uLps3b+batWsmRdzY2Gjw3r1noevWrePEiRMmJrl17r1PwNQz4mvXrlFTU4OHhwe+vr7s378fX19frl+/jlqtpq7u/9YvkLqvmpqaVt+/cHe7+vp6vffvfS0IgiAId+kGfScnJ55//nlGjx5NfX09P/zwA0uXLqWwsNDsOy0vL+fmzZv4+PhIGvRra2uxsrJqdZiioiKDM22VSkVRUZHkNDc1NZGdnY2Pjw8ODg4cOnSId999l/z8fN2lfXPt65ful6/q6moqKipwdnbWvWdra4ujo2Or9iMIgiA8/nS/6Xt6etK9e3c2bdrEvHnz+Pzzz9tlwL/ryy+/JCgoiKlTp9KrVy9UKhWhoaG88MILBmEvXbqEr68vbm5uKBSKZgfBlsIkJyfj7+9PQEAALi4uhIeH4+7ubvINgxcuXCAoKIisrCyqq6spLy/H19dXb9A3176k5is4OJgnnngCmUzG9OnTsbAQT2EKgiAIzdOd6d/9Hb+jpKSkoNVqee6554iIiECr1XL16lW+/fZbg7CHDh2ib9++rF69mq5du5KQkGBwF31LYY4cOYJCoSAyMhKFQkFJSQnx8fFkZ2eblObz588TGRlJZmYmAD///DPe3t5cvHhRF8Zc+5KSr6+++gpHR0fWr1/PrVu3SE9Pp6SkpFX7EQRBEB5/Mrncsqmhoc54SEEQBEEQHmniWrAgCIIgdBJi0BcEQRCETkIM+oIgCILQSYhBXxAEQRA6CTHoC4IgCEInIQZ9QRAEQegk2m3Q9/LyYvPmzVhbW7fXLgRBEARBMEG7Dfrnz58nPz+fsLCw9tqFIAiCIAgmaNfL+ykpKQQHB2NpadmeuxEEQRAEQQLdoD9q1Chee+01Bg4caLY12X/++We6du3KsGHDzBKfIAiCIAitJ7ewkK9qamqkrq4OLy8vZs6cyfjx47GxsaGkpISamppWR97Y2Mjw4cOxtLTUzVcvCIIgCMKDoRv0q6qqOHHiBP/85z8pKyvj6aefJiYmBk9PT+rq6igsLGzV2u++vr4oFApSU1PbIfmCIAiCIEhl8Jv+7du3OXbsGO+99x5Lly5FoVCwePFiVCpVq3Zw+/bt+65zLwiCIAhCx+ly7xtyuRxfX1/GjBnD8OHDyc3NZfPmzVy7dq1VO+jWrRsVFRVtTqggCIIgCG2jG/SdnJx4/vnnGT16NPX19fzwww8sXbqUwsLCNu2gT58+fPvtt21OqCAIgiAIbaMb9D09PenevTubNm0iMzOTxsbGNkfu7OyMUqnk559/bnNcgiAIgiC0jW7QP3bsGMeOHTNr5AEBAZw/f568vDyzxisIgiAIgunabXIeGxsbgoKC+Pvf/95euxAEQRAEwQQyudyyqaGhzuwR9+3bl379+vHvf//b7HELgiAIgmC6dhv0BUEQBEF4uIildQVBEAShkxCDviAIgiB0EmLQFwRBEIROQgz6giAIgtBJiEFfEARBEDoJMegLgiAIQichBn1BEARB6CTEoC8IgiAInYQY9AVBEAShkxCDviAIgiB0EmLQFwRBEIROQgz6giAIgtBJiEFfEARBEDoJMegLgiAIQichBn1BEARB6CTEoC8IgiAInYQY9AVBEAShkxCDviAIgiB0EmLQFwRBEIROQgz6giAIgtBJiEFfEARBEDoJMegLgiAIQicht7CQr2pqanzQ6ehwcXFxWFtbc+HCBbPGGxsbS3BwMKmpqW2KJy4ujt/85jdMnz4dBwcHMjMzWxVGAJlMxty5c3n11VeJiopCqVTyn//850EnC2i/dvjqq68SGBjIsWPHzBrv4+JBlI9SqeTTTz/l559/5r///W+H7bc1HnT/017HxV1trQtz9fMPgsGZfvfu3Xn11VdJSEjg888/Z8OGDYwfP/5BpO2h5eHhQVJSEpaWlu22j/nz5zNjxgyysrLaFMYUHZEvU3zyyScEBQW1OZ7hw4cTEBDAH//4R37zm9/w17/+1Qyp61zMVRedWW1tLUePHqWioqLd99XW+noQ/U9HklIXj2ub7/LLF926deOPf/wjVVVVbN26levXr9O3b1969uz5oNInCG3m4uLCzZs3ycnJedBJETqxqqoq4uPjH3QyBDp3XegN+lOmTKFbt24sW7aMW7duAXDlyhW9DWQyGVOmTGHixIkoFAqKiorYu3ev7jKZh4cH7777LqmpqQwfPpyDBw/y1FNPMXDgQL7++mv2798vKQzAgAEDiIiIwM3NDRsbGwoLC9m/f7/eJZXY2FicnJzIz89n9OjRWFhYkJKSwq5du/4vk126EBMTw69//WsaGxs5ePBguxTmL02bNo2QkBBkMplBegDGjBlDWFgYzs7O3Lhxg5SUFA4cOEBTU5NZ02GsvsxJSl0YS4+dnR2JiYm68HPmzGHOnDkAbN26lX//+98mpeeXV6mSkpIAOHLkCFu2bJGUnrvxKJVK3nvvPd17H3zwAVlZWXz++eeS897R7VAul/PKK6/g7+9PbW0t3377LXv37pWcL3PWBYBCoSAqKgpfX19sbW3Jz88nKSmJjIwMwHzHu7nKB8xznPbu3ZuPPvpI9/qtt95CrVbrhZGar8mTJzNp0iS6d+9OZWUl586dY+PGjYD0Y0dKOZuTsTI0x3GxefNm9u3bx+HDhw0+mz17Nk8++STvv/++0bowtc0b6+cBbGxssLW1paKigrq6OpPzZm56g/7w4cPJzMzUDfjNGTt2LBEREWzbto3s7GxGjRrFggULKC4u5tKlSwBYWFhw4sQJ8vPziYqKYvPmzZw4cYLZs2fz9ddfSwrT1NRE9+7dOXXqFLt27aKyshJfX19ee+01SktL9X7r8fb25vjx48ydOxdvb2/eeecdTp48yfnz5wGYOnUq/v7+xMXFUVJSwksvvYSTk1OrC62uro7i4uL7Hvienp5oNBrWrFmDj48PMTExeukJDAwkOjqa7du3c/HiRXr27Mm8efOoq6vj0KFDrU5Xc6TUl9R8SWGsLoylp6qqihkzZgB3Lq998cUXzR7IUmzZsoUtW7YwZcoUAgMDmT9/vkEYU8qnrXk3dzs0xsfHh+TkZJYtW4aHhwevvPIKhYWFpKWlSdrenHVhbW3N6tWruX37Nn/5y18oLS3Fzc0NZ2dnXRhzHe9SGSsfcx2neXl5zJgxA6VSyebNm+8bzli+fHx8iI6OZsOGDWRnZ+Po6MiwYcN020utL6nlbA5SytAcx8WFCxfw8PBoNr8eHh6kp6cDxuvClDZvrJ+/69lnn2X69OmsW7eOEydOmJSv9qD3m76TkxPXr19vcYOQkBCOHTvG0aNHKSwsZN++fajVakJCQvTCZWRkcOrUKd3/s7KysLa2xsHBQXKYtLQ0Dhw4gFqtpri4mOTkZK5cucLw4cP19lVcXMzhw4dpamrizJkzFBYW4uHhofs8ODiYQ4cOkZGRQV5eHtu2bUMmk5laVjpXrlxh/vz51NfXN/t5VVUVO3bs4Nq1axw8eJDr16/rpSciIoJ9+/aRmppKSUkJJ0+e5JtvviEwMLDVabofqfUlJV9SGKsLU9LTEcyZno5uh8bcunWLzz77DI1Gw9GjR0lPTyc4OLjd9teS0aNH8+STT/Lhhx+SlZVFUVERP/30k95ZnbmOd6mMlU9HHqdgPF/Ozs5otVoyMzO5efMmubm5BlcmpJBazuYgpQzNcVzcHfQBevXqxcKFC7G2tsbS0pK+ffu2yw2Bxvr5h1WXe98wdpbn7OzMd999p/debm4ubm5uuteNjY00NDToLmXcvn1bF6+VlZXkMPb29oSFheHj44NCoUAul2NnZ2dwBlZaWqr3uqamBnt7e+DO5RoHBweuXr2q+/zGjRtUVla2mM+20Gg0euVYUVGhS4+joyNKpZKoqCiioqL0ttNqtWZPi5T6MqeW6uJBpMcYc6bnYWuHBQUFNDQ06F5fvXoVb2/vdttfS1QqFSUlJQZl9EvmON5N0VL5dPRxCsbzdeLECcLCwvj44485ffo0arWatLQ0ysrKTNqP1HJuKyllaK7j4sKFC/z2t7/F1taWESNG8PTTTzNw4ECqq6tpamri8uXLbc/QPVrq539pz5497Nmzx+z7by29Qf/69euSLqvc+8Wgvc5WFi5ciL29PTt37qSoqIiGhgbefPNNg/0190Xlbpi7n9179tqWs1ljGhsNH4G8N80deamno+qruX01t7+OTI8UxtLTXJ4sLAynuHjY2qG58mUOMpnM6AmFOY53U0hphw/yOAX9NJWVlbFo0SIGDhyIl5cXkyZNYtq0aSxevJjy8nLJ+5FazubSUhma67i4du0aNTU1eHh44Ovry/79+/H19eX69euo1ep2+S1dSj//MNI7wn/++WeGDh3a4rfmoqIig7MglUpFUVGRWRMmk8kYNGgQ+/fv5+zZs7pvfz169DApnurqaioqKvR+O7S1tcXR0dGs6ZWqvLycmzdv4uPjIyl8bW2t7spHa8J0VH1JZUp66uvr6dLF4GJUh6enqqqKrl276l7LZDKUSqVJ+zG1HVpbW6NUKrG2tjZpP7/k6uqKXC7Xve7Tpw8ajUb32pR8tbUucnNz6dGjx31PKsx1vJuipfIx9TjtKPX19Zw+fZrdu3ezbNky7O3tGTBgQLPhmqsvU8u5Lf2PlDI0V//c1NREdnY2Pj4+ODg4cOjQIQYNGkS/fv1afWnfXP2PnZ0dTk5ObTqWzUlv0N+/fz/V1dW88847DB8+HJVKRUBAAC+88IIuTHJyMv7+/gQEBODi4kJ4eDju7u5mvwGtqamJoqIifHx8kMlkyOVyZs2a1arLeMnJyQQHB/PEE08gk8mYPn16u53RSPHll18SFBTE1KlT6dWrFyqVitDQUL1yvuvSpUv4+vri5uaGQqFo9uBqKUxH1ZdUpqRHo9EwbNgwHB0dsbS0bJc6k5IetVrNU089haurKzKZjMmTJ2NnZ9eqfUlth2PGjGHz5s2MGTOm1Xnr1q0b0dHR9OzZk4CAAH71q1+RnJzcqny1tS7S0tIoKSlhyZIlDBo0iB49ejB8+HDdvRPmPN6lMlY+phynHWHkyJEEBwfTu3dvlEolEyZMoLGxkby8PIOw9/3x8gcAACAASURBVKsvU8u5rf2PlDI0V/984cIFgoKCyMrKorq6mvLycnx9fVs96Jur/wkNDSU+Pp7Bgwe3antz0/saU15ezooVK3jhhRf4n//5H7p27UpJSQn/+Mc/dGGOHDmCQqEgMjIShUJBSUkJ8fHxZGdnmz1xGzduZPbs2WzdupXbt2/z448/cu7cOZPj+eqrr3B0dGT9+vXcunWL9PR0SkpKzJ5eqVJSUtBqtTz33HNERESg1Wq5evUq3377rUHYQ4cO0bdvX1avXk3Xrl1JSEgwuJu0pTAdWV9SmJKenTt3MmfOHDZt2oSlpWWrHhMzR3rS09MZNGgQ7777LtXV1fzwww8Gj7JKYUo7tLW1BTB6Y21LsrKysLKyYu3atdTW1rJnzx5++ukn3eem5KutdaHVavnDH/5AVFQUixYtwsbGBo1Gw+7du3VhzHW8S2WsfEw5TluyYsUKhgwZonv9/vvvA3fuJH/jjTckx1NdXU1oaCiRkZF06dIFjUbD+vXr9a7e3NVSfZlSzm3tf6SUobn65/PnzxMZGambGfDnn3/G29ubixcv6sKYUhcd0f88CDK53LKpoeHBPzsoCML/efvtt7Gzs2PFihUPOimCIDxGxII7gvCQkcvleHl58fe///1BJ0UQhMeMONMXBEEQhE5CnOkLgiAIQichBn1BEARB6CTEoC8IgiAInYQY9AVBEAShk2jf6c460N1Vk5pbtvJhExcXp5sBKzk5mU8++aRVYaRobvnU1ujINAvC4+hR6qOEx9djM+jX1tZy9OhRKioq2n1fbV1m9O4SrytXrmxTmI70KKZZeDQFBAQwceJEVqxYwZQpU/Dw8GDdunUPOllt1pF9VEvGjRvH+PHjcXV1Be6srrl7926TZ65zcnLixRdfxN3dHWdnZ44cOcKWLVua3V94eDhKpZKCggI+++wzsrKyzJIXwXSPzeX9qqoq4uPjW1zFSxCEh5+Xl5duhrhf/v9R97D0UaNHj+b06dP8+c9/5k9/+hNarZbf//739OrVy6R4rKysqKioYM+ePfddy2Po0KHMmzeP77//nrfeeoucnByWL1+Oi4uLObIitILBmf7kyZOZNGkS3bt3p7KyknPnzrFx40bd57GxsTg5OZGfn8/o0aOxsLAgJSWFXbt26cIMGDCAiIgI3NzcsLGxobCwkP3795OamqoLM3/+fBwdHSkrK2Po0KE0NDRw8OBBvv76a5My0Lt3bz766CPd6+YunUlJs7G829nZkZiYqAs7Z84c5syZA6A3PaOUvD8I06ZNIyQkBJlM1mzex4wZQ1hYGM7Ozty4cYOUlBQOHDhgdGU0U8lkMqZMmcLEiRNRKBQUFRWxd+9ejh07Ztb9CI8uLy8vduzYgYWFBQMGDOCLL76QvK1SqWTTpk2sXr1a78tCSEgI4eHhxMbG6pbTldLmg4KCiIyMZMOGDURHR+Pq6kpFRQXr1q3T9TPG+kwpfZSU40JqP2bMvT/15ebmkpiYyLBhwygoKJAcT0FBga5PfP7555sNExoaytmzZ9m7dy8A27ZtY+jQoUyYMIGdO3ealG5jpPYtUur0caY36Pv4+BAdHc2GDRvIzs7G0dGRYcOGGWzk7e3N8ePHmTt3Lt7e3rzzzjucPHmS8+fPA9C9e3dOnTrFrl27qKysxNfXl9dee43S0lK9S0iDBw8mISGB+Ph43NzcWLVqFRqNxqSlLPPy8pgxY4bu97L7MZZmY3mvqqpixowZQMuX96XmvSN5enqi0WhYs2YNPj4+xMTE6OU9MDCQ6Ohotm/fzsWLF+nZsyfz5s2jrq7O7AvzjB07loiICLZt20Z2djajRo1iwYIFFBcXm309b+HR4eLiopsH3dbWlkWLFgFgY2PDqlWryMnJYfXq1UbjuXHjBufPn8fPz09v0Pfz8yMtLU034JvS5q2trZk5cyZbt24lPz8flUpFTU0NIK3PlNJHST0ujPVjrWFra4tMJmuXnx369eunN89+Q0MDly5dol+/fmbflyl9S0t1+rjTu7zv7OyMVqslMzOTmzdvkpubq/uG9kvFxcUcPnyYpqYmzpw5Q2FhIR4eHrrP09LSOHDgAGq1muLiYpKTk7ly5QrDhw/Xi6ekpEQXT05ODsePHyc4OLhdMmoszVLzbozUvHekqqoqduzYwbVr1zh48CDXr1/Xy3tERAT79u0jNTWVkpISTp48yTfffENgYKDZ0xISEsKxY8c4evQohYWF7Nu3D7VarVttTeicSkpKWLp0KV999RWXLl1iyZIlHDlyhIyMDJYsWcJf/vIXyXGlpqYycuRI3bK5Tk5O9O/fX++Mz5Q2b2VlxY4dO1Cr1Wi1Wi5evKhb5MZc/YbU48JYP9YaM2fOpKCggLS0tDbFcy+5XI6dnR3l5eX4+fmRmJjIU089RVlZGQqFwqz7AtP6lpbq9HGnd6Z/4sQJwsLC+Pjjjzl9+jRqtZq0tDTKysr0Nrr3N6mamhq9pRnt7e0JCwvDx8cHhUKhq/x7v20VFhYavPb29jZLxu5lLM1S826M1Lx3JI1Go3fJsqKiQpd3R0dHlEolUVFRREVF6W2n1WrNnhZnZ2e+++47vfdyc3MN1rQXOpeGhgZKS0vp378/6enpuv8nJyeb/Bv48ePHmT17NoMHDyYzMxN/f3+9sz1T23x9fT05OTnN7stc/YbU48JYP2aq6dOnM2TIEFauXEldnXmnY5fJZMCdwb+2tpbr169z+/Zts6xR3xxT+paW6vRxp1f6ZWVlLFq0iIEDB+Ll5cWkSZOYNm0aixcvpry8XBeuud9571YwwMKFC7G3t2fnzp0UFRXR0NDAm2++qRcGMKj8u9/M24OxNEvNuzFS896RGhsbDd67Nz3r1q0z6WeVtri3Lh5k2QgPh08++QS5XI6NjQ2DBw8mPDwcW1tbevfuTUxMDLNnz5YcV1VVFZmZmfj5+en+be6eGqltvqam5r73tpir3wBpx4WxfswUM2fOZPz48axevZri4uJWxdGS+vp6qqqqcHBw4ODBg2RkZADg4OBg8pciqaT2LS3V6ePO4O79+vp6Tp8+ze7du1m2bBn29vYMGDBAcoQymYxBgwaxf/9+zp49y40bN6isrNQ9v/1Lrq6uegN9375973sXaEeQmvf6+vpmv62akne48wiPlZVVi2mSEqYtysvLuXnzJj4+PpLCtzXNRUVFBt+8VSrVA6134cFbvnw5CQkJVFRUsHjxYnbv3s3Vq1d54403WL58ucnxpaam8swzz+Du7k6fPn30Lu2b2uaNaWufCR1/XMyaNYuxY8eyatWqFm/es7Ozw8nJCWtr61bt5/LlywwcOFD3Wi6X4+npyeXLlw3CWltbo1QqW70v0bdIozfojxw5kuDgYHr37o1SqWTChAk0NjaSl5cnOcKmpiaKiorw8fFBJpMhl8uZNWtWs5egunXrRkxMDD179mTcuHE8/fTT/Otf/2p7rlrBlLxrNBqGDRuGo6MjlpaWWFjcKUZT8g5w6dIlfH19cXNzQ6FQNDtQSgnTVl9++SVBQUFMnTqVXr16oVKpCA0N5YUXXjB7mpOTk/H39ycgIAAXFxfCw8Nxd3c3+w2DwqOltLQUFxcXzpw5Q2lpKa6urmRlZVFaWtqqR9wyMjJoampi3rx5qNVqg99rTWnzLTFHnwkde1y8/PLLTJgwgcTERKytrVGpVKhUKpRKpUHY0NBQ4uPjGTx4sMFnFhYWum2trKywt7dHpVLpPfr3z3/+E09PT6ZOnUqfPn343e9+h7W1NSkpKQbxjRkzhs2bNzNmzJhW5Uv0LdLona5WV1cTGhpKZGQkXbp0QaPRsH79epNvcNi4cSOzZ89m69at3L59mx9//LHZZ21PnTqFjY0Na9eupba2lqSkJNLT003a14oVKxgyZIju9d07gPPy8njjjTckx2NK3nfu3MmcOXPYtGkTlpaWeo/sSc07wKFDh+jbty+rV6+ma9euJCQkGDwRICVMW6WkpKDVannuueeIiIhAq9Vy9epVvbtuzZXmI0eOoFAoiIyMRKFQUFJSQnx8PNnZ2WbNk/Do8fb25ocffgDu3BX/6aeftjquuro60tPTGTduXLPxmNLmWyKl35DSR3XkceHn54eNjQ1LlizRe//w4cMkJCRIjsfGxoYPP/xQ99rFxYURI0ag0Wh0T19kZmayZcsWpk6dyvTp0ykoKGDt2rUG93PBnacIAK5fv96abIm+RSKZXG7Z1NBg3hs4pJg/fz5du3Z9LGbaEgRBENrm7bffxs7OjhUrVjzopDzWHpsZ+QRBEIRHk1wux8vLi7///e8POimPvcdm7n1BEATh0dTQ0MCsWbMedDI6hQd2eV8QBEEQhI4lLu8LgiAIQichBn1BEARB6CTEoC8IgiAIncRjM+grlUqSkpJwd3d/0EkxKi4ujqSkJJKSku47vaiUMFLExsaa5RGYjkyzIDyOHqU+6nH16quvtmqGx8dJu96939IStOZWW1vL0aNH22V5yHu1NV/z588HYOXKlW0K05EexTQLj6aAgAAmTpzIihUrmDJlCh4eHo/FfB4d2Ue1ZNy4cYwfPx5XV1cArly5wu7du01e+tvJyYkXX3wRd3d3nJ2dOXLkCFu2bGl2f+Hh4SiVSgoKCvjss8/Iysp6IGl+EMw5Do4aNYrXX3+dn3/+mQ8++KBVcTw2Z/pVVVXEx8e3aspOQRAeHl5eXrpZLH/5/0fdw9JHjR49mtOnT/PnP/+ZP/3pT2i1Wn7/+9/rTZ8rhZWVFRUVFezZs+e+89sPHTqUefPm8f333/PWW2+Rk5PD8uXLcXFxeSBpfpQ9+eSTvPjii1y7dq1N8eid6Q8YMICIiAjc3NywsbGhsLCQ/fv3661QNX/+fBwdHSkrK2Po0KE0NDRw8OBBvv76a+DOAg2JiYm68HPmzGHOnDkAetPVmkvv3r356KOPdK/feust1Gq1XpjY2FicnJzIz89n9OjRWFhYkJKSwq5du/TCTZ48mUmTJtG9e3cqKys5d+4cGzduNClfUsrwQZg2bRohISHIZLJm8z5mzBjCwsJwdnbmxo0bpKSkcODAAbOvRCWTyZgyZQoTJ05EoVBQVFTE3r179RZEETo3Ly8vduzYgYWFBQMGDOCLL76QvK1SqWTTpk2sXr1a78tCSEgI4eHhxMbG0tDQAEhr80FBQURGRrJhwwaio6NxdXWloqKCdevW6fqZlvoNkNZHSTkupPZjxrz33nt6r3Nzc0lMTGTYsGEtLr5zr4KCAl2f+PzzzzcbJjQ0lLNnz7J3714Atm3bxtChQ5kwYQI7d+40a5pjY2NRKpV6YT/44AOysrL4/PPPde/J5XJeeeUV/P39qa2t5dtvv9WlT2o8xupC6nhhSpoXLlzI3/72NyZOnCi53JqjN+h3796dU6dOsWvXLiorK/H19eW1116jtLRU7zLK4MGDSUhIID4+Hjc3N1atWoVGo+HEiRNUVVUxY8YMoGMu7+fl5TFjxgyUSiWbN2++bzhvb2+OHz/O3Llz8fb25p133uHkyZOcP38euDPXd3R0NBs2bCA7OxtHR0eGDRum215qvqSWYUfy9PREo9GwZs0afHx8iImJ0ct7YGAg0dHRbN++nYsXL9KzZ0/mzZtHXV2d2RerGDt2LBEREWzbto3s7GxGjRrFggUL9NY7FzofFxcX3Zz0tra2urnbbWxsWLVqFTk5OaxevdpoPDdu3OD8+fP4+fnpDfp+fn6kpaXpBnxT2ry1tTUzZ85k69at5Ofno1KpqKmpAYz3GyCtj5J6XBjrx1rD1tYWmUzWLj879OvXT289g4aGBi5dukS/fv3aFG9b0uzj40NycjLLli3Dw8ODV155hcLCQtLS0kyKp6W6MPc4GBkZSWFhIenp6W0e9PUu76elpXHgwAHUajXFxcUkJydz5coVhg8frrdRSUkJhw8fpqmpiZycHI4fP05wcHCbEtLeiouLdWk+c+YMhYWFeHh46D53dnZGq9WSmZnJzZs3yc3N1fv2J5XUMuxIVVVV7Nixg2vXrnHw4EGuX7+ul/eIiAj27dtHamoqJSUlnDx5km+++YbAwECzpyUkJIRjx45x9OhRCgsL2bdvH2q1mpCQELPvS3h0lJSUsHTpUr766isuXbrEkiVLOHLkCBkZGSxZsoS//OUvkuNKTU1l5MiRumW7nZyc6N+/v95Zsylt3srKih07dqBWq9FqtVy8eFG3oI65+g2px4Wxfqw1Zs6cSUFBgcmDnjFyuRw7OzvKy8vx8/MjMTGRp556irKyMhQKRZvibkuab926xWeffYZGo+Ho0aOkp6e3avxqj7pozpAhQ/Dz8+Ovf/2rWeLTO9O3t7cnLCwMHx8fFAqFrtLuPQO7d4WkwsJCvL29zZKg9nLv72g1NTV6S96eOHGCsLAwPv74Y06fPo1arSYtLY2ysjKT9iO1DDuSRqPRu2RZUVGhy7ujoyNKpZKoqCiioqL0ttNqtWZPi7OzM999953ee7m5uQbrYAudS0NDA6WlpfTv35/09HTd/5OTk03+Dfz48ePMnj2bwYMHk5mZib+/v94Zs6ltvr6+npycnGb3Za5+Q+pxYawfM9X06dMZMmQIK1eupK7OvDOzymQy4M7gX1tby/Xr17l9+zZduhjeP/7ss8/y0ksv6V6///77nDp1ql3SXFBQoLviA3D16tVWjV/mrovmODg48OqrrxIXF0d1dbVZ4tQr/YULF2Jvb8/OnTspKiqioaGBN998U1d5uo3uqbS736gfZs39Nv3LfJWVlbFo0SIGDhyIl5cXkyZNYtq0aSxevJjy8nLJ+5Fahh2psbHR4L1707Nu3TpOnDjRIem5ty4eZNkID4dPPvkEuVyOjY0NgwcPJjw8HFtbW3r37k1MTIxJj4BWVVWRmZmJn5+f7t/m7qmR2uZramrue2+LufoNkHZcGOvHTDFz5kzGjx/P6tWrKS4ublUcLamvr6eqqgoHBwcOHjxIRkYGcGcgu/dL0ffff09mZqbu9f2W120pzc2VjYWF4b3qxsq5tfE0F5cxxvbVt29fFAqF3mOGd8ffzz//nEWLFpn8pVg3estkMgYNGsSf//xnzp49q4u8R48e5Obm6m3k6uqKXC7XfVvq27dvs3dv1tfXN/ut7mFVX1/P6dOnOX36NP/4xz/YsWMHAwYMID093SBcc/kypQzhziM8VlZWLaZJSpi2KC8v5+bNm/j4+EjqANua5qKiIoOzF5VKdd+7f4XOYfny5fTv35+XX36Zt99+m6effprx48frrdduitTUVObNm4e7uzt9+vRh/fr1us9MbfPGSO03WtLRx8WsWbMYPXo0q1atanZt+7vs7OywtbWloqKiVVf+Ll++zMCBA3Wv5XI5np6eBlc1KisrqaysbFOaq6qqdI/0wZ3+WKlUGoS7d/zq06eP7ucaU+KRqqVx0Ni+srOzef311/W2uXvvyfbt27l586bJ6dF9pWhqaqKoqAgfHx9kMhlyuZxZs2Y1e7miW7duxMTE0LNnT8aNG8fTTz/Nv/71L4NwGo2GYcOG4ejoiKWlZbPflh4WI0eOJDg4mN69e6NUKpkwYQKNjY3k5eUZhL1fvkwpQ4BLly7h6+uLm5sbCoWi2YFSSpi2+vLLLwkKCmLq1Kn06tULlUpFaGgoL7zwgtnTnJycjL+/PwEBAbi4uBAeHo67u7vZbxgUHi2lpaW4uLhw5swZSktLcXV1JSsri9LS0lY94paRkUFTUxPz5s1DrVbrdepgWptviSn9Rks68rh4+eWXmTBhAomJiVhbW6NSqVCpVM0ObKGhocTHxzN48GCDzywsLHTbWllZYW9vj0ql0nuM7p///Ceenp5MnTqVPn368Lvf/Q5ra2tSUlLMnma1Ws1TTz2Fq6srMpmMyZMnY2dnZxBXt27diI6OpmfPngQEBPCrX/2K5ORkk+ORqqVx0Ni+tFotBQUFen9arVb3/i9/ppBK7+vHxo0bmT17Nlu3buX27dv8+OOPzT4je+rUKWxsbFi7di21tbUkJSU1+612586dzJkzh02bNmFpadkuj+ytWLGCIUOG6F7fvQM4Ly+PN954Q3I81dXVhIaGEhkZSZcuXdBoNKxfv96gs4CW8yW1DAEOHTpE3759Wb16NV27diUhIcHgDk8pYdoqJSUFrVbLc889R0REBFqtlqtXr+rddWuuNB85cgSFQkFkZCQKhYKSkhLi4+PJzs42a56ER4+3tzc//PADcOcO608//bTVcdXV1ZGens64ceOajceUNt8SKf2GlD6qI48LPz8/bGxsWLJkid77hw8fJiEhQXI8NjY2eldiXFxcGDFiBBqNRvf0RWZmJlu2bGHq1KlMnz6dgoIC1q5d2+LVhdamOT09nUGDBvHuu+9SXV3NDz/8wJUrVwziysrKwsrKSjd+7dmzh59++kn3udR4pGppvDD3vqQweWnd+fPn07Vr18dihixBEARB6Ewe3uvtgiAIgiCYlRj0BUEQBKGTMPnyviAIgiAIjyZxpi8IgiAInYQY9AVBEAShkxCDviAIgiB0Eo/NoK9UKklKSsLd3f1BJ8WouLg4kpKSSEpKuu/0olLCSBEbG8uKFStavb0p6TFXmh8FcXFxTJkyxeB9c7XDh6U9d6Y6bW8PS50KnVu7zpHbEUvr3lVbW8vRo0fbZXnIe7U1X/Pnzwdg5cqVbQrTkR7WNHdkG5NCSjuUkuaObM8teRB1GhAQwMSJE1mxYgVTpkzBw8PjsZgX5GGp03HjxjF+/Hjd9K9Xrlxh9+7dJi/97eTkxIsvvoi7uzvOzs4cOXKELVu2NLu/8PBwlEolBQUFfPbZZ2RlZZm0r8jISMLDw/XeKy8v161RL0j36EyMb0RVVRXx8fEPOhlCJ2eudtiZ27OXl5duFksvLy9Onz79gFNkHg9LnY4ePZrTp0/z5ZdfUl9fz3PPPcfvf/97li1bRkFBgeR4rKysqKioYM+ePUyfPr3ZMEOHDmXevHns3r2b//znP4SGhrJ8+XKWLFli8qx8+fn5eksst2YKWuGeQX/AgAFERETg5uaGjY0NhYWF7N+/X2+Fqvnz5+Po6EhZWRlDhw6loaGBgwcP8vXXXwN3FmhITEzUhZ8zZ47u21h7TMPbu3dvPvroI93rt956C7VarRcmNjYWJycn8vPzGT16NBYWFqSkpLBr1y69cJMnT2bSpEl0796dyspKzp07x8aNG03Kl5QyfBCmTZtGSEgIMpms2byPGTOGsLAwnJ2duXHjBikpKRw4cOC+q4u1lkwmY8qUKUycOBGFQkFRURF79+7VW+vcGFPaWFBQEJGRkWzYsIHo6GhcXV2pqKhg3bp1qNVqSfXVpUsXYmJi+PWvf01jYyMHDx40SJOxdig1zVLas5QylNLmH9a26uXlxY4dO7CwsGDAgAF88cUXkrdVKpVs2rSJ1atX601/HRISQnh4OLGxsbrBQkqbN9Z+oOV+Azq2TqV477339F7n5uaSmJjIsGHDTBr0CwoKdG36+eefbzZMaGgoZ8+eZe/evQBs27aNoUOHMmHCBHbu3GlSum/fvt3uU9R2BnqDfvfu3Tl16hS7du2isrISX19fXnvtNUpLS/Uu/QwePJiEhATi4+Nxc3Nj1apVaDQaTpw4QVVVFTNmzAA65tJrXl4eM2bMQKlUsnnz5vuG8/b25vjx48ydOxdvb2/eeecdTp48yfnz54E7c31HR0ezYcMGsrOzcXR0ZNiwYbrtpeZLahl2JE9PTzQaDWvWrMHHx4eYmBi9vAcGBhIdHc327du5ePEiPXv21K3kZO4FP8aOHUtERATbtm0jOzubUaNGsWDBAr31zo0xtY1ZW1szc+ZMtm7dSn5+PiqVipqaGkBafU2dOhV/f3/i4uIoKSnhpZdewsnJSW8fxtqh1DRLac9Sy9BYm3+Y2qqLi4tuTnpbW1vd3O02NjasWrWKnJwcVq9ebTSeGzducP78efz8/PQGfT8/P9LS0nQDviltvqX2Y6zfgI6t09awtbVFJpO1y88O/fr101vPoKGhgUuXLtGvXz+T4+rVqxd//etfaWhoQK1W8/nnn5u8sJFwz418aWlpHDhwALVaTXFxMcnJyVy5coXhw4frbVRSUsLhw4dpamoiJyeH48ePExwc3KEJN1VxcbEuzWfOnKGwsBAPDw/d587Ozmi1WjIzM7l58ya5ubm6b6emkFqGHamqqoodO3Zw7do1Dh48yPXr1/XyHhERwb59+0hNTaWkpISTJ0/yzTffEBgYaPa0hISEcOzYMY4ePUphYSH79u1DrVYTEhJi9n3dZWVlxY4dO1Cr1Wi1Wi5evKhbEEVKfQUHB3Po0CEyMjLIy8tj27ZtrV7D3ByklqGxNv8wtdWSkhKWLl3KV199xaVLl1iyZAlHjhwhIyODJUuW6F3WNSY1NZWRI0cil8uBO7899+/fX++s2ZQ231L7MVe/Ya46bY2ZM2dSUFBAWlpam+K5l1wux87OjvLycvz8/EhMTOSpp56irKwMhUJhUlyXL19my5YtvPfee2zbtg1HR0fWrFnDE088YdY0dwZ6Z/r29vaEhYXh4+ODQqHQVdq9Z2D3/hZTWFiIt7d3+6e2De5dnrOmpkZvydsTJ04QFhbGxx9/zOnTp1Gr1aSlpVFWVmbSfqSWYUfSaDR6lywrKip0eXd0dESpVBIVFUVUVJTedq1ZP9sYZ2dng7W0c3NzDdYSf/bZZ3nppZd0r99//31OnTrVqn3W19eTk5PT7GfG6svOzg4HBweuXr2q2+bGjRtG1/5uT1LL0Fibf5jaakNDA6WlpfTv35/09HTd/5OTk01eWvf48ePMnj2bwYMHk5mZib+/v94Zs6ltvqX2Y65+w1x1aqrp06czZMgQVq5cSV2deWdmvfvFWC6XU1tby/Xr17l9+3aza8sbO97/85//6P6vVqu5rSLaxgAAIABJREFUcOECmzdvZty4cezbt8+s6X7c6ZX+woULsbe3Z+fOnRQVFdHQ0MCbb75pcFZzb6Xd/Ub9MGvut+lf5qusrIxFixYxcOBAvLy8mDRpEtOmTWPx4sWUl5dL3o/UMuxIjY2NBu/dm55169Zx4sSJDknPvXXRXNl8//33ZGZm6l5fv3691furqam5770Jxurr7nb19fV62937uqNJKUNjbf5haquffPIJcrkcGxsbBg8eTHh4OLa2tvTu3ZuYmBiTHhesqqoiMzMTPz8/3b/N3acgtc231H7M1W+AeerUFDNnzmT8+PGsXr2a4uLiVsXRkvr6eqqqqnBwcODgwYNkZGQA4ODgYPClyNTj/datW5SWluLs7Gz2dD/udJf3ZTIZgwYNYv/+/Zw9e1Z3NtOjRw+DjVxdXfUG+r59+1JUVGQQrr6+vtlvdQ+r+vp6Tp8+ze7du1m2bBn29vYMGDCg2XDN5cuUMoQ7j/BYWVm1mCYpYdqivLycmzdv4uPjIyl8W9NcVFRkcPaiUqkM2k9lZSUFBQW6v/tddWhLG5NSX9XV1VRUVOh1Lra2tjg6OrZqn21NM0gvw5a0R1tti+XLl5OQkEBFRQWLFy9m9+7dXL16lTfeeIPly5ebHF9qairPPPMM7u7u9OnTR+/Svqlt3hip/UZLzFGnppg1axZjx45l1apVLd68Z2dnh5OTE9bW1q3az+XLlxk4cKDutVwux9PTk8uXL+uFk3q832Vvb4+TkxP//e9/W5Wuzkw36Dc1NVFUVISPjw8ymQy5XM6sWbOavXTUrVs3YmJi6NmzJ+PGjePpp5/mX//6l0E4jUbDsGHDcHR0xNLSEguLh3cuoJEjRxIcHEzv3r1RKpVMmDCBxsbGZm8UuV++TClDgEuXLuHr64ubmxsKhaLZTlVKmLb68ssvCQoKYurUqfTq1QuVSkVoaCgvvPCC2dOcnJyMv78/AQEBuLi4EB4ejru7e6tvGGxLG5NaX8nJyQQHB/PEE08gk8mYPn16m9pyW48Lc5Rhe7TVtigtLcXFxYUzZ85QWlqKq6srWVlZlJaWmnx5HyAjI4OmpibmzZuHWq3W/QZ/lyltviWm9BstMfdx0ZKXX36ZCRMmkJiYiLW1NSqVCpVKhVKpNAgbGhpKfHw8gwcPNvjMwsJCt62VlRX29vaoVCp69eqlC/PPf/4TT09Ppk6dSp8+ffjd736HtbU1KSkpJqV54cKF+Pv7079/f5555hneeustGhoazP40WGegd7qxceNGZs+ezdatW7l9+zY//vij3h2wd506dQobGxvWrl1LbW0tSUlJpKenG4TbuXMnc+bMYdOmTVhaWrbLI3srVqxgyJAhutd37wDOy8vjjTfekBxPdXU1oaGhREZG0qVLFzQaDevXrzfoLKDlfEktQ4BDhw7Rt29fVq9eTdeuXUlISDC4o1tKmLZKSUlBq9Xy3HPPERERgVar5erVq3p33ZorzUeOHEGhUBAZGYlCoaCkpIT4+Hiys7Nblfa2tjEp9fXVV1/h6OjI+vXruXXrFunp6ZSUlOiFMaUdtpRmKfGYqwzN3Vbbytvbmx9++AG4c1f8p59+2uq46urqSE9PZ9y4cc3GY0qbb4mUfqMj61QKPz8/bGxsWLJkid77hw8fJiEhQXI8NjY2fPjhh7rXLi4ujBgxAo1Go3v6IjMzky1btjB16lSmT59OQUEBa9euNfkZfQsLC2bNmkW3bt2oqqoiOzubTZs2GRyHgnEmL607f/58unbt+ljMkCUIgiAIncnDe71dEARBEASzEoO+IAiCIHQSJl/eFwRBEATh0STO9AVBEAShkxCDviAIgiB0EmLQFwRBEIROQgz6D5BSqSQpKQl3d/c2xSOTyZg7dy5//etfSUpKIjY21kwp/D+xsbGsWLGizfHExcWRlJREUlLSfadWlRLmQeiIcm5PcXFxTJkypVVhzNVWzRVPWz2sbcxcHpZyFh4+epPzWFpaEh4ejr+/P927d6eiooLs7Gz+9re/tWpWLHPx8PDgvffeIyoqyuyLQjxItbW1HD16tM1LWg4fPpyAgABWrlxJcXHxQ11G8+fPB2DlypVtCmMKc7WfR6mczU1KW5WyzLG52nxbmbuNPWwelnIWHj56g/5vfvMbhg8fzqeffkpeXh5PPPEETz/9NA4ODg900H9cVVVVER8f3+Z4XFxcuHnz5n1XAhPMozOXs7naqrniEVomylm4H71Bf+TIkezdu1e3rnJeXh6nT5822GjMmDGEhYXh7OzMjRs3SElJ4cCBA3orQEkJYy6TJ09m0qRJdO/encrKSs6dO8fGjRt1n8fGxuLk5ER+fj6jR4/GwsKClJQUdu3apQszYMAAIiIicHNzw8bGhsLCQvbv36+3Otf8+fNxdHSkrKyMoUOH0tDQwMGDB/n6669NSm/v3r356KOPdK/feust1Gq1XhgpaY6NjWX8+PG610lJScCdKT23bNkC3LkkPWXKFCZOnIhCoaCoqIi9e/fqLUBiimnTphESEoJMJjNID3RcvZs7Xy0xZzkHBQURGRnJhg0biI6OxtXVlYqKCtatW2fQBu5HSlvt0qULMTEx/PrXv6axsZGDBw8axCMljLG2amdnR2Jiou71nDlzmDNnDoDe9MJS2ryUMjTXsWwOSqWSTZs2sXr1ar3pi0NCQggPDyc2NpaGhgZA2nEhpW0Y6+s6spylpEd4+OgN+pWVlXh5eXH48GFu377d7AaBgYFER0ezfft2Ll68SM+ePZk3bx51dXW6xSGkhDFFXV0dxcXFzQ4cPj4+REdHs2HDBrKzs3F0dGTYsGEG4by9vTl+/Dhz587F29ubd955h5MnT3L+/HkAunfvzqlTp9i1axeVlZX4+vry2muvUVpayoULF3TxDB48mISEBOLj43Fzc2PVqlVoNBqTlqXNy8tjxowZKJVKNm/efN9wxtK8ZcsWtmzZwpQpUwgMDNRdsvylsWPHEhERwbZt28jOzmbUqFEsWLBAb31xqTw9PdFoNKxZswYfHx9iYmL00mPuem+JKflqqf1IYe5ytra2ZubMmWzdupX8/HxUKhU1NTWS0/P/27vzsCiO/PHj73HkvibyIHiCX0IUBEFZXTWsaAgieCACCYaIyRqvGBXdqNmYXdds9tFogjGEJEYN7Lr+jGDUXc2DJBOPoESCB4oXGkA8BhyECAo4ivD7wzCP7XD04HhkqdfzzKP01FRXVVf3p7unp0pOX42IiCAgIIDExES0Wi0vv/wyTk5OknzkpGmtr1ZXV/PCCy8ALd/el9Pn5bahqfblB1VeXs7p06d59tlnJUH/2WefJSsrSx/wjdkvWuobco51j7Kd5R57hSeL5EG+NWvW4OHhwbp16/jzn//MmDFjeOqppyQfiIqKYuvWrWRmZqLVasnNzWXnzp0EBQUZlcYY58+fZ/bs2U3OYe7i4oJOp+Po0aNUVFRQVFTE119/bZDuypUrfPfddzQ0NHDixAlKSkrw8PDQv5+VlcWOHTsoKCjgypUrZGRkcP78efz9/SX5aLVafT6FhYUcPHiQkJCQNtWrNa2VWY7Q0FD279/Pvn37KCkpYevWrRQUFBAaGmp0eaqrq0lJSeHChQt88803XL16VVIeU2/3lhhTr5b6z+Moj7m5OSkpKRQUFKDT6cjPz29yYqfmyOmrISEhpKenc/jwYS5evMgXX3xhMO+6nDSPktw2NNW+bAqZmZkMHjxYP9W4k5MTzzzzjOSq2Zj9oqW+IfdY1xpTtbOpyiM8WpIr/ZMnTzJr1iw8PT3p06cPf/jDH4iOjmb58uWcPn0aBwcHHB0diY2NJTY2VpJR4/zHctKYUk5ODuHh4XzyySccP36cgoICsrKyuHbtmiTd/c8k1NbWSqYRtbW1JTw8HB8fH1QqFUqlEhsbG4OrtPtnhyopKaFv374mrpW8Msvh4uLCnj17JMuKiooM5u6WQ6PRSK6Wq6qq9OV51NvdlPV61OWpq6t7oOcCWuurNjY22NvbU1xcrP9MeXk5N27c0P8tJ82jJrcNTbUvm8LBgweZMmUK/fr14+jRowQEBEiumI3dL1rqG3KPda0xVTubqjzCo9Xx/gV1dXXk5eWRl5fHli1bePvtt4mKiuLvf/+7Ps3KlStbvZ0tJ40pXLt2jfj4eLy8vPD09GTUqFFERkYyf/58Kisr9emaurV771XN3LlzsbW1ZcOGDZSWlnLnzh0WLlxocOXTsaO0yRrP8B+G1src1nzaejVXX1/fanke1XYH09XLVOSWp7a29oGecWitrzbmff+djXv/lpPmcZDThqbal02hurqao0eP8uyzz+r/berZAbn7RUt9Q+6xTg5TtLMpyyM8Oi3+Tr+hoQGtVou1tTUAlZWVVFRU4OPj0+xn5KQxtbq6Oo4fP87mzZtZtGgRtra29OnTR/bnFQoF3t7ebN++nZMnT+qveJydnQ3Sdu/eXRLoXV1dKS0tNUk9HobS0lKDM3g3NzeTl9nY7X7z5k3Mzc3bnOZR1UuuR1UeOX21pqaGqqoqXFxc9Musra1xcHAwKo2x6urqDE6KjWGKNjRmXwZ5/bA1mZmZDBw4EHd3d3r27Cm5tW/q4+GDHuvAtH1VbnlsbGxwcnLCwsLC6HUIpiUJ+n/5y18YO3Ysnp6euLq6EhISwvDhwzl06JA+zZYtWwgODiYiIoJu3brh5uZGWFgYEydONCqNqQwePJiQkBB69OiBo6Mjzz//PPX19Vy8eFF2Hg0NDZSWluLj44NCoUCpVDJp0qQmb6Xb2dkxefJkunbtyogRI/jd737Ht99+a8oqmVRGRgYBAQEEBgbSpUsXJkyYgLu7u8kfrAPjtvu5c+fw8/OjV69eqFSqJg+8LaV5lPWS41GVR25fzcjIICQkhKeeegqFQkF0dDQdOnQwOo0xNBoNAwYMwMHBATMzM6PzMkUbGrMvg7x+2JrDhw/T0NDAzJkzKSgoMHg+w1THQ1Mc68B0fdWY8oSFhZGUlES/fv2MWodgepLT8qNHjzJkyBAmTJhAx44duXr1KmlpaZKfpKnVanQ6HWPHjiUqKgqdTkdxcTG7du0yKo2p1NTUEBYWRkxMDB07dkSj0ZCQkGDUg1EAq1evZsqUKaxZs4Zbt25x4MAByRO5jY4dO4aVlRXvv/8+N2/eJDU1lezsbKPWtXjxYnx9ffV/L1u2DLj75O2f/vQno/Jqze7du1GpVMTExKBSqdBqtSQlJXH27FmTrgeM2+7p6em4urqydOlSLC0tWbt2rcFT3y2leZT1kuNRlkdOX922bRsODg4kJCRw/fp1srOz0Wq1Rqcxpq9u2LCBqVOn8umnn2JmZib5yZ6cfEzVhnL3ZZDXD1tz+/ZtsrOzGTFiBP/85z8N3jfV8VDOse5RtrOpjr3CoyWm1jXC7NmzsbS0ZOXKlY+7KIIgCIJgNDH2viAIgiC0EyLoC4IgCEI7IW7vC4IgCEI7Ia70BUEQBKGdEEFfEARBENoJEfQFQRAEoZ2QBP0ZM2awePHiFj8wa9Ys3nrrrYdaKOG3r7V+JJezszPJyck4OjqaJL/7yenzj5KpypOYmEhqaiqpqalMmTKlzWl+i9par8TERMaPH/9QyuTp6clnn33W6oh0s2bNIjU1lbFjxz6UcghC28fM/B/Uu3dvJkyYwDPPPAPA6dOnSU5ONph4oiVOTk689NJLuLu74+LiIplz3VhPP/00EydO1M9sVVRUxPLly42ahvVeQ4YMYd68eRw5coTly5e3KQ+5TDXO+csvv8zevXspLy83SX7tReP0v3/5y18eKM1v0ZNYr9OnT3Pp0iXCw8NJTU1tMs2YMWPw9/cnJSWF2NhYLly4wLFjxyRpOnXqxMSJE/Hz88Pa2hqtVsuOHTvYvXv3o6iG8D9ABP1fDR48mNdee42NGzeSmJiIQqFg3LhxvP322yxYsED2RCTm5uZUVVWRlpZGdHR0m8vTo0cP/va3v3Ho0CFWrVpFTU0NPXv2bHN+nTt35qWXXuLChQttzqM1jW323HPP4eLiwrp169BoNKxfv14ym5tczs7ODBo0iPnz5z+E0grCo6VWq5k2bRrbtm3j9m3pL6Z8fX2Jjo7mvffe49y5c1y/fp25c+eyePFi/cyednZ2vPfee1RXV7NmzRquXr2Kq6srXbt2fRzVEX6jmgz6kZGRhIaGolAoUKvVbNq0SfK+Uqlk+vTpBAQEcPPmTXbt2mUwj3JwcDAxMTGsWrWKuLg4unfvTlVVFStXrqSgoACAYcOGER4ejouLC+Xl5ajVanbs2CGZ3am1NMOHD+f11183qMOGDRvYsWOHrHzs7OyYPn06y5cvJz8/X/+ZjRs34uvrS9++ffVn3CqVitjYWP2Z9qVLl0hNTeXw4cMAXL58meTkZADGjRvXbMO31j6RkZHk5+fz0Ucf6T9zb9kajR49mlGjRtGpUydu3LjBqVOnWL16tcH2mjt3Lv/+978ZOXJks2WysrLC2tqaqqoqg4OSHCNGjGDMmDEsWbKEV199lYSEBLy8vLhz547RecHdbabRaLh8+XKz77fWf1rbXo1a6vMKhYLx48czcuRIVCoVpaWlfP3115KJVRo9aBvKKY/cupuCMXVvzmeffcbWrVubHN52ypQpdO7cmWXLlslel5xjS2s6duzI5MmT+cMf/kB9fT3ffPNNs2lNtU2PHDmCpaUlAwYMkAzd7eLiwhtvvEFCQoJ+St7MzEysra1ZuHAhixcvpqamhvHjx2NnZ8eiRYu4fv06AOfPn29zeYT2ySDo9+7dG41Gw7vvvouPjw+TJ08mNzeX06dP69P4+PiQkZHBokWL8PDwYPr06ZSUlJCVlSXJy8LCghdffJE1a9Zw6dIl3Nzc9Lemg4KCiIuLY926deTn59O1a1dmzpzJ7du39RM/yEnzww8/cODAAf06Bw0axKxZsyTlbS2fwMBATp06RX5+PlZWVsTFxeHl5UVxcTHl5eW4uLhw7NgxLCwsWLp0Kbdu3eLjjz+mrKyMXr16SWYqM0ZL7ePt7U16ejoLFiygd+/eVFRU8O2336JWqyXbIS4ujlWrVnH27FkcHBwYMGCAwXpiYmIoKSkhOzu7xaA/ZswYoqOj2zw9rru7O4WFhfqxt2traw2CqzG8vb2bHQ9cTt+Qu71a6/PDhw8nKiqKL774grNnzzJkyBDmzJkjmTe90YO2oZzyyKm7qRhT9+acOXMGDw+PJoO+h4eHPgAas66W9h05IiIiCAgIIDExEa1Wy8svv4yTk1OTaU2xTeHuGP3nz5/H29tbEvRLS0uZOnWqQfqMjAwyMjL0f/v7+3P06FF9wBeEtjB4er+6upqUlBQuXLjAN998w9WrV/XfKTe6fv06//rXv9BoNOzbt4/s7GxCQkIMMjc3NyclJYWCggJ0Oh35+fn6gBAVFcXWrVvJzMxEq9WSm5vLzp07CQoK0n9eTpr6+npu377N7du36dy5M9OmTSM5OZmff/5Zdj6enp7k5uYC8Nprr6FSqVixYgU//vgjvr6++ulChw4dSufOnVmxYgV5eXmUlpby448/tniV0JLm2kepVGJvb8/YsWP5+eefee+999i7dy9Tp07l2Wef1X/excUFnU7H0aNHqaiooKioyOCOi6+vL88++yxffvllm8oId28rvvHGG6xbt46kpCRiYmJwcnLCxsaG0aNH4+rqCtydjKhfv35ERERgY2MjmYK4LZydnZv9Ll9O35C7vVrr86Ghoezfv599+/ZRUlLC1q1bKSgoIDQ09IHq15zWyiOn7qZiiro3Bn2Abt26MXfuXCwsLDAzM8PV1ZUzZ84Yva6Wji1yhISEkJ6ezuHDh7l48SJffPGFyZ5DaUl5eXmz0/y2xsnJiatXr5q4REJ7Y3Clr9FoJLcIq6qqDKalvHz5suSWbXFxMX379jXIvK6ujsLCQoPlDg4OODo6EhsbS2xsrOQ9nU4nO829rKysWLBgAVlZWZIrCjn5qFQqrl69ikKhYNCgQSxatEh/W3nw4MH69G5ubmi1WqMe7GtJc+3TOCXpuXPn2LZtG3D3Np6vry8jRozQ39nIyckhPDycTz75hOPHj1NQUEBWVhbXrl0DwN7enlmzZpGYmEhNTU2r5UlLSyMtLc1guZ+fH+Xl5XzwwQc4ODgwbNgwEhMT6dChA3l5eezduxeAn376iYSEBEaOHImrqyvJyckcPHiQDRs2tOnqxNzcvMnbqXL7htzt1Vqfd3FxYc+ePZLPFBUVGcxJDs23oTFaKo+x+8WDMqbuzTlz5gx//OMfsba2ZtCgQfzud7/Dy8uLmpoaGhoa9CfoxqyruX1HDhsbG+zt7SXPmZSXl3Pjxo0m05timza6desW9vb2bf68qb++Edofg6BfX19vkOj+M+D7O15zZ8i1tbUtdlI5t8vkpFEoFMyZM4fq6mrWr1/fpnwaA61CoZAEmlu3bknWY8qdrrn2uX37NrW1tQbfZV+5cgUfHx/939euXSM+Ph4vLy88PT0ZNWoUkZGRzJ8/n8rKSlxdXVGpVJKfWDbetdi4cSPx8fGyTmAOHDgg6RfZ2dnY2NigUCgMDpQ5OTnk5OSwePFivvrqK6ZNm8bMmTNZsWKFvEa5R2VlZbPzoEPr21Tu9jJlnzcFOeV50FvNxnjQul+4cIHa2lo8PDzw8/Nj+/bt+Pn5cfXqVQoKCiT7m6mOLS1p/Nz9D+fKfVj3QdjZ2VFVVdWmz169erXZryAEQa42Dc7TvXt3ya3bnj17GnVrrbKykoqKCkkAa0uaRtHR0bi7u/PBBx8Y7Lhy8ikrK8PZ2ZmGhgYOHz7MuHHjUCqV9OjRg4EDB+rTFRUV4ezs/Eh2vMLCQrp06SJZ5uTkZHC7u66ujuPHj7N582YWLVqEra0tffr0AeDs2bPMmzePhQsX6l/nzp3j1KlTLFy4kIqKCkleNjY2ODk5GfyWuKkgVF1d3eyVUaOCggLUajWenp6y632vwsLCJn+xILdvmGp7lZaWGlxturm5UVpaapDWwsICR0fHVn+P3VbG7BcAN2/exNzcvM1pjKl7cxoaGjh79iw+Pj7Y29uTnp6Ot7c3Tz/9tP7WvqnWda/m6lVTU0NVVZXk2Q5ra2scHByazMeU27Rnz56yHza835EjR+jfv3+LJ8KC0Jo2BX07Ozvi4uLo2rUrgYGB/P73v5c8cCLHli1bCA4OJiIigm7duuHm5kZYWBgTJ040Kk3//v2JiIggKSmJ2tpaLC0tsbS0lJyUtJZPXl6e/jb+2rVrsba2ZvXq1bzyyiucPHlSfyWSlZWFVqvlzTffxNvbG2dnZ/z9/SXfOXbo0AE3Nzfc3NwwNzfH1tYWNzc3unXrZlT7fPfdd/j5+REWFkbXrl0JCgqif//++lvpcPdnhiEhIfTo0QNHR0eef/556uvruXjxInD3du/ly5clL51Op19+/1P1YWFhJCUl0a9fP6PK2mjcuHEEBgbi5OSEQqHA0dGRgIAAyUOVxjh8+DDPPPMMZmZmBu/J6RtytpccGRkZBAQEEBgYSJcuXZgwYQLu7u5NPjQ3bNgwPvvsM4YNG2Z8hWWSU/dG586dw8/Pj169eqFSqZoMgi2lMabuLTlz5gzBwcHk5eVRU1NDZWUlfn5+kqBvqnXJrVdISAhPPfUUCoWC6Oho/d2++5lqm7q4uODo6MiRI0fa9Pnt27dTU1PDX//6V/z9/XFzcyMwMLDJ7S4IzWnT7/Tz8vIwNzfn/fff5+bNm6SlpfHjjz8alYdarUan0zF27FiioqLQ6XQUFxeza9cuo9J4e3ujVCoNRjG79yd7reWTmZlJZGQkw4cPZ+/evSQmJjZZZp1Ox5IlS4iNjSU+Ph4rKys0Gg2bN2/Wp7GyspLcyu7SpQuDBg1Co9EQHx8vu32ysrKws7NjzJgxxMbGUlZWRnJysuTnSzU1NYSFhRETE0PHjh3RaDQkJCQYddfFlDQaDaGhoUyaNAl7e3tWrFhBbm4uKSkpbcovOzubyZMnM2jQIMkvNEBe35CzveTYvXs3KpWKmJgYVCoVWq2WpKSkJn9ZYG1tDfBQH7iSU/dG6enpuLq6snTpUiwtLVm7dq3BU/QtpTGm7i05ffo0MTExHD16FLh71dq3b1/Jz1BNtS459dq2bRsODg4kJCRw/fp1srOz0Wq1TeZjqm0aGBjI6dOn9SflxqqsrGTx4sVMnDiR119/HUtLS7RaLf/9738fqFxCO6NUmjUA7f7l7u7esHbt2obY2NiGLl26NCiVyoZOnTo1WFlZPfay/RZf77zzjknyCQ4Obnj//fcbFArFY6+TnNfbb7/d8I9//OOxl0O8nqxtamVl1bBu3bqG3r17P/b6iFf7fokJd35VUFDAwoULMTMz46233iIlJYVly5bph+QVjGOqBx7VajU//vgjKpXKJPk9TEqlEk9PT/7f//t/j7sogomYapt27tyZTZs2NTnAliA8Sgql0qzhzp22jzIlCIIgCMJvg7jSFwRBEIR2QgR9QRAEQWgnRNAXBEEQhHZCBH1BEARBaCckQX/GjBkGv3e/36xZsyTDugpCU1rrR4IgCMKj16bBef5X9e7dmwkTJuh/pnf69GmSk5ONmmDHycmJl156CXd3d1xcXNi9ezeff/55m8rz9NNPM3HiRP0MZUVFRSxfvtyoKUTvNWTIEObNm8eRI0dYvnx5m/KQ61HMWCbX+vXr+eqrr5qc2lWuKVOmoFKp+PDDD/nwww/ZtWvXA+UnCILwOIig/6vBgwfz2muvsXHjRhITE1EoFIwbN463336bBQsWyJ6Mw9zcnKqqKtLS0oiOjm5zeXr06MHf/vY3Dh06xKpVq6ipqWlyHHq5OnfuzEsvvcSFCxfanEdrGtvsueeew8XFhXXr1qHRaFi/fr1kRjNBEATh8Wgy6EdGRhIaGopCoUCtVrNp0ybJ+0oPPfjxAAAgAElEQVSlkunTpxMQEMDNmzfZtWuXwTzuwcHBxMTEsGrVKuLi4ujevTtVVVWsXLlSP+HEsGHDCA8Px8XFhfLyctRqNTt27JAM7NJamuHDh/P6668b1OHeYXhby8fOzo7p06ezfPlyyeAZGzduxNfXl759+3Ls2DHg7jS8sbGx+Pn5YW1tzaVLl0hNTeXw4cPA3WmHk5OTgbtj0TentfaJjIwkPz+fjz76SP+Zpgb2GD16NKNGjaJTp07cuHGDU6dOsXr1aoPtNXfuXP79738zcuTIZstkZWWFtbU1VVVVTU5p25oRI0YwZswYlixZwquvvkpCQgJeXl4GY/zL0Vo79+nTh6ioKHr16oWVlRUlJSVs376dzMxM4O7kQY3bAWDq1KlMnToVgDVr1vD9998bXSZBEITfOoOg37t3bzQaDe+++y4+Pj5MnjyZ3NxcyaQpPj4+ZGRksGjRIjw8PJg+fTolJSVkZWVJ8rKwsODFF19kzZo1XLp0CTc3N/2t6aCgIOLi4li3bh35+fl07dqVmTNncvv2bf0EG3LS/PDDD5Jx2QcNGsSsWbMk5W0tn8DAQE6dOkV+fj5WVlbExcXh5eVFcXEx5eXluLi4cOzYMSwsLFi6dCm3bt3i448/pqysjF69eklm6zJGS+3j7e1Neno6CxYsoHfv3lRUVPDtt9+iVqsl2yEuLo5Vq1Zx9uxZHBwcGDBggMF6YmJiKCkpITs7u8WgP2bMGKKjo9s8bau7uzuFhYX6sf9ra2v1QdoYctq5U6dOHDt2jE2bNnHjxg38/Px44403KCsr48yZM1RXV/PCCy8Aprm9X1VVpT/RvHr1KjU1NW3OSxAE4XExCPrV1dWkpKTQ0NDAhQsXGD16NB4eHpIgev36df71r39x584dNBoNfn5+hISEGAR9c3NzUlJS9Ff2916pRkVFsXXrVv2VmVarZefOnQQFBekDupw09fX1+qlfu3XrxrRp00hOTubnn3+WvS5PT09yc3MBeO2117C2tmbFihX07NmT2bNnc+LECQCGDh1K586dmTNnjv57/rZO+9lS+yiVSuzt7Rk7diz/+c9/SEtLw8vLi6lTp1JbW6s/yXFxcUGn03H06FF0Oh0VFRUUFRVJ1uHr68uzzz7Lm2++2eZy2tnZMXnyZPz8/NDpdGRmZvL9999TU1PD8OHDOXHiBMXFxRw7dox58+YRERGBjY0NSqWyTVf5ctr5/r6WkZHBc889h7+/v2TmNlNJS0vT/3/ZsmUmz18QBOFRMAj6Go1Gcnu9qqrKYP7m+6dlLS4upm/fvgaZ19XVUVhYaLDcwcEBR0dHYmNjiY2Nlbyn0+lkp7mXlZUVCxYsICsrS3JFJycflUrF1atXUSgUDBo0iEWLFqHRaLh8+bJ+yl24O7e3Vqs16sG+ljTXPo1TfJ47d45t27YBcP78eXx9fRkxYoQ+6Ofk5BAeHs4nn3zC8ePHKSgoICsri2vXrgFgb2/PrFmzSExMlHVlmpaWJglujfz8/CgvL+eDDz7AwcGBYcOGkZiYSIcOHcjLy9NP9/vTTz+RkJDAyJEjcXV1JTk5mYMHD7JhwwauX78uu13ktLOtrS3h4eH4+PigUqlQKpXY2Nhw7tw52esRBEFobwyCfuNV873ufxL7/slUmntSu7a2tsWJV+TcRpaTRqFQMGfOHKqrq1m/fn2b8mkMtAqFQvJ99q1btyTrMdVEMtB8+9y+fZva2louX74sWX7lyhV8fHz0f1+7do34+Hi8vLzw9PRk1KhRREZGMn/+fCorK3F1dUWlUkl+Ytmx491NvnHjRuLj42WdwBw4cEDSL7Kzs7GxsUGhUHDjxg1J2pycHHJycli8eDFfffUV06ZNY+bMmZLphlsjp53nzp2Lra0tGzZsoLS0lDt37rBw4cIn6lcDgiAIT5o2Dc7TvXt3lEql/u+ePXsaNYd7ZWUlFRUVkgDWljSNoqOjcXd354MPPjB4yl5OPmVlZTg7O9PQ0MDhw4cZN24cSqWSHj16MHDgQH26oqIinJ2dcXJyklHLB1NYWEiXLl0ky5ycnCgvL5csq6ur4/jx42zevJlFixZha2tLnz59ADh79izz5s1j4cKF+te5c+c4deoUCxcupKKiQpKXjY0NTk5OWFhYSJY3dSJYXV1tEPDvV1BQgFqtxtPTU3a9ofV2VigUeHt7s337dk6ePEl5eTk3btzA2dm5yfR1dXX6kx1BEIT2rE1B387Ojri4OLp27UpgYCC///3vycjIMCqPLVu2EBwcTEREBN26dcPNzY2wsDAmTpxoVJr+/fsTERFBUlIStbW1WFpaYmlpKTkpaS2fvLw8/W38tWvXYm1tzerVq3nllVc4efKk/so/KysLrVbLm2++ibe3N87Ozvj7+xMaGqpfV4cOHXBzc8PNzQ1zc3NsbW1xc3OjW7duRrXPd999h5+fH2FhYXTt2pWgoCD69++vv5UOd39mGBISQo8ePXB0dOT555+nvr6eixcvAne/vrh8+bLkpdPp9Mvv/749LCyMpKQk+vXrZ1RZG40bN47AwECcnJxQKBQ4OjoSEBAgeR5EjtbauaGhgdLSUnx8fFAoFCiVSiZNmmTwNVQjjUbDgAEDcHBwwMzMTH9XRxAEob1p0+VPXl4e5ubmvP/++9y8eZO0tDR+/PFHo/JQq9XodDrGjh1LVFQUOp2O4uJidu3aZVQab29vlEqlwQhw9/5kr7V8MjMziYyMZPjw4ezdu5fExMQmy6zT6ViyZAmxsbHEx8djZWWFRqNh8+bN+jRWVlaSW9ldunRh0KBBaDQa4uPjZbdPVlYWdnZ2jBkzhtjYWMrKykhOTmb//v36NDU1NYSFhRETE0PHjh3RaDQkJCQYddfFlDQaDaGhoUyaNAl7e3tWrFhBbm4uKSkpRuUjp51Xr17NlClTWLNmDbdu3eLAgQOcOnWqyfw2bNjA1KlT+fTTTzEzMxM/2RMEof1SKs0agHb/cnd3b1i7dm1DbGxsQ5cuXRqUSmVDp06dGqysrB572X6Lr3feeeexl0G8xEu8xEu8pC9xn/NXBQUFLFy4EDMzM9566y1SUlJYtmyZfkhewTimfOBREARBMA2FUmnWcOeO8aOvCYIgCILw2yKu9AVBEAShnRBBXxAEQRDaCRH0BUEQBKGdEEFfEARBENqJhzJM2YwZM3B0dOQf//jHA+WTmJioH2UtIyOjySF25aQRBEEQBOEJv9KfPXs2L7zwAnl5eQ+URq4pU6bwpz/9CYAPP/yQ4ODgB85TEARBEJ4UT3TQFwRBEATBdPS394cMGYK/vz+7d+/m9OnTJhlcJTIyktDQUBQKBWq1mk2bNkneHzZsGOHh4bi4uFBeXo5arWbHjh0mH9hFoVAwfvx4Ro4ciUqlorS0lK+//loypK0gCIIg/K/TB/3CwkL69+/PokWLqKqqYs+ePezbt89gVje5evfujUaj4d1338XHx4fJkyeTm5urn3wlKCiIuLg41q1bR35+Pl27dmXmzJncvn2b9PR009TuV8OHDycqKoovvviCs2fPMmTIEObMmcOVK1ck869XVVXpTziuXr0qaw56QRAEQfit0Af9K1eu8Omnn7Ju3ToGDRpEYGAgUVFRnDhxgt27d5OTk2MwK1tLqqurSUlJoaGhgQsXLjB69Gg8PDz0QT8qKoqtW7eSmZkJgFarZefOnQQFBZk86IeGhrJ//3727dsHwNatWxk4cCChoaGSoJ+Wlqb//7Jly0xaBkEQBEF43Aye3r916xb79+9n//79dOvWjblz5zJ//nz+/Oc/U1BQIDtjjUYjuU1fVVWln/rUwcEBR0dHYmNjiY2NlXxOp9O1tS7NcnFxYc+ePZJlRUVF9OrVy+TrEgRBEIQnlUHQVyqV+Pn5MWzYMPz9/SkqKuKzzz7jwoULRmVcX19vsEyhUEj+XrlyJTk5OUYWuW3uf07g/rIIgiAIwv86fdB3cnJi3LhxDB06lLq6On744QcWLFhASUmJyVdaWVlJRUUFPj4+soL+zZs3MTc3b3Oa0tJSg6t6Nzc3SktL5RdaEARBEH7j9EG/d+/edOrUiU8//ZSjR482eaVuSlu2bGHKlCn88ssv/PTTT5iZmeHl5YWDg4PBU/7nzp0jNDSUXr168csvv1BTU8OtW7dkp8nIyOCPf/wjp06d0j/I5+7uTnJy8kOtoyAIgiA8SfRBv/F7/EdFrVaj0+kYO3YsUVFR6HQ6iouL2bVrl0Ha9PR0XF1dWbp0KZaWlqxdu5bvvvtOdprdu3ejUqmIiYlBpVKh1WpJSkri7Nmzj6SugiAIgvAkUCiVZg137tx+3OUQBEEQBOEhEyPyCYIgCEI7IYK+IAiCILQTIugLgiAIQjshgr4gCIIgtBMi6AuCIAhCOyGCviAIgiC0EyLoN2Hx4sWPuwgmM2PGDJPUJzExkdTUVFJTU5kyZUqb0wiPhqm2eyOFQsG0adP48ssvSU1NZcaMGQZpHB0dSU1Nxd3d3eC99tQ3EhMTGT9+vMHyltpHEB6Vhxr0169fT3Bw8MNchZ6HhwepqamYmZk9UBpofVz+5vKxtbXln//8J0OGDJFf8FaYsl4PYvbs2bzwwgvk5eU9UBpjPIp6paamsnHjRuzs7PTLXnnlFT766KOHts7fIn9/fwIDA3nvvfd49dVX+fLLLw3S3Lx5k3379lFVVWXwnqn7xm9RS+3zODzK47Pw5BBX+r9SKBSEh4ezevVqfHx8WLduHe+++y6urq6y87hx4wbffvstkZGRYkKf3xClUsnIkSMfdzGeaF26dKGiooLCwkKqq6sNhsGGu9NpJyUlUVZW9hhK+OQT7SM8CQxm2VOpVMTGxuLn54e1tTWXLl0iNTWVw4cPA9CnTx+ioqLo1asXVlZWlJSUsH37djIzMwGwsbGRjGk/depUpk6dCsCaNWv4/vvvJeuzsrLC2tqaqqoqbt9+fCMDjhgxgjFjxrBkyRJeffVVEhIS8PLy4s6dO0bls2PHDkaNGsXAgQP56aefmkwzY8YMnJycuHTpEkOHDqVDhw6o1WqDOQdMKTIyktDQUBQKRZPrGjZsGOHh4bi4uFBeXo5arWbHjh0GsxM+KIVCwfjx4xk5ciQqlYrS0lK+/vrrNg8BbYr+c+jQIUaOHMn27dub3N6mLPPo0aMZNWoUnTp14saNG5w6dYrVq1fr358xYwaOjo784x//0C9bvnw5eXl5bNy4Ub+stf20UWvbvTUzZszgueee0/+dmpoK3B3a+vPPPwegR48efPjhh/o0xk7DfS9T9EO52ys4OJiYmBhWrVpFXFwc3bt3p6qqipUrV8ouf8eOHZk8eTJ/+MMfqK+v55tvvjFII7d95JRHTvu01DfkHp9N0YZarZY1a9bw8ccfc/DgQf1nhgwZwpw5c5gxYwaVlZWy2lkwHUnQt7CwYOnSpdy6dYuPP/6YsrIyevXqhYuLiz5Np06dOHbsGJs2beLGjRv4+fnxxhtvUFZWxpkzZ6iuruaFF14A7t4++uqrrwzGyb/XmDFjiI6OfuBpdm/fvs2VK1daPDi0lMbd3Z3CwkI0Gg0AtbW1BgdQOflUVVXx3XffERkZ2WzQB+jbty8HDx5k2rRp9O3bl7/+9a/k5uZy+vRpk9YL7k6mpNFoePfdd/Hx8WHy5MmSdQUFBREXF8e6devIz8+na9euzJw5k9u3b5Oent7setti+PDhREVF8cUXX+gnP5ozZw5Xrlzh3LlzRtULTNN/jh49Svfu3Rk6dKj+5LWtZW6Jj48PcXFxrFq1irNnz+Lg4MCAAQOMLq+c/RRa3+5yfP7553z++eeMHz+eoKAgZs+ebZDm4sWLvPDCCzg6OvLZZ58ZXZ9GpuqHxmwvCwsLXnzxRdasWcOlS5dwc3OjtrZW9roiIiIICAggMTERrVbLyy+/jJOTkySNMe3TUnnktE9rfUPu8dkUbXj9+nVycnIYMWKEJOgPHz6cQ4cOiYD/mEiC/tChQ+ncuTNz5szR34K6f/rZrKwsyd8ZGRk899xz+Pv7c+bMmYdc3OadP3++yQOS3DTHjh1j3rx5REREYGNjg1KpbPYqv7V1/fe//yUkJAR/f/9mTxyuXLmi39lOnDhBSUkJHh4eBgfkB60X3N3RU1JSaGho4MKFC4wePVqyrqioKLZu3aoPeFqtlp07dxIUFGTyoB8aGsr+/fvZt28fAFu3bmXgwIGEhoYaHEzk1N1U0tPTGT16dJNB35gyt8TFxQWdTsfRo0fR6XRUVFRQVFRkdFnl7KfQ+nZ/0piqHxqzvczNzUlJSdFfSefn5xtV5pCQENLT0/X7+RdffMGnn35qVB5yyyOnfeT2jdaYqg3VajWLFy/mqaee4pdffkGlUuHr68vy5cuNLpNgGpKg7+bmhlarbfE7J1tbW8LDw/Hx8UGlUqFUKrGxsTHq4HevtLQ00tLS2vRZU/rpp59ISEhg5MiRuLq6kpyczMGDB9mwYQPXr183Kq9r166hVquJjIxsNujf38a1tbXY2tq2ufwt0Wg0kqvlqqoq/bocHBxwdHQkNjaW2NhYyed0Op3Jy+Li4sKePXsky4qKiujVq1eb8jNV/9m7dy8xMTF4enoavGeqMufk5BAeHs4nn3zC8ePHKSgoICsri2vXrhmVj5z9FFre7k8aU/ZDY7ZXXV0dhYWFxheYu19l2tvbU1xcrF9WXl7OjRs32pRfS+WR2z5y+0ZrTNWGJ06coKysjMDAQLZv386wYcOoqKjg2LFjD1Q+oe0kQV+hULT63dncuXOxtbVlw4YNlJaWcufOHRYuXPg/8eBaTk4OOTk5LF68mK+++opp06Yxc+ZMVqxYYXRe//nPf0hMTMTX17fJDt5UOz+sNqyvr291XQ/69Yox7q/7k9B3dDodarWasLAwysvLDd43RZmvXbtGfHw8Xl5eeHp6MmrUKCIjI5k/f77+VmdT/aJDB+nztnL2U5C33Z80puqHcrdXbW1tm59bafxcXV2dZPn9fxujtfK01j5y+4YcpmjDhoYG9uzZw4gRI9i+fTuBgYHs3r3b5M8KCfJJjiZFRUU4OzsbfCfVSKFQ4O3tzfbt2zl58qT+rNbZ2bnJ9HV1dXTsaPCsoISNjQ1OTk5YWFi0sQoPR0FBAWq1uskrPzkqKirYu3cvUVFRJi6ZaVVWVlJRUYGPj4+s9Ddv3sTc3LzNaUpLSw2uFtzc3Np0CxJM23927drFgAEDDPq/KctcV1fH8ePH2bx5M4sWLcLW1pY+ffro36+ursbS0lL/t0KhwNHRUZJHa/vpk6y5vmFsP2yJqftYc2pqaqiqqpI8S2FtbY2Dg4NJ1wPy28eYvtHS8dmUbbhnzx6cnZ0JCwuje/fuBncQhEdLEvSzsrLQarW8+eabeHt74+zsjL+/P6GhocDds7bS0lJ8fHxQKBQolUomTZrU7C1DjUbDgAEDcHBwwMzMzOCKBSAsLIykpCT69ev3EKon37hx4wgMDMTJyUl/oA0ICHig7z+3bdvG008/bZID2cO0ZcsWgoODiYiIoFu3bri5uREWFsbEiRMN0p47dw4/Pz969eqFSqVq8gDeUpqMjAwCAgIIDAykS5cuTJgwAXd39zY/O2DK/lNeXs6hQ4fw9/eXLDdVmQcPHkxISAg9evTA0dGR559/nvr6ei5evKhPU1BQwP/93//RvXt3FAoFo0ePxsbGRpJPa/vpk6ylvmFMP2yJqftYa+sKCQnhqaeeQqFQEB0d3eRxzhTktI8xfaOl47Mp2/CXX37hyJEjTJo0iePHjzd5J014dCSneTqdjiVLlhAbG0t8fDxWVlZoNBo2b96sT7N69WqmTJnCmjVruHXrFgcOHODUqVNNZr5hwwamTp3Kp59+ipmZWZM/2XtSaDQaQkNDmTRpEvb29qxYsYLc3FxSUlLanOfVq1fZu3cvkZGRT/SgJGq1Gp1Ox9ixY4mKikKn01FcXMyuXbsM0qanp+Pq6srSpUuxtLRk7dq1Bk//tpRm9+7dqFQqYmJiUKlUaLVakpKSOHv27COpa2t27txpMLiSqcpcU1NDWFgYMTExdOzYEY1GQ0JCgv4XIwDZ2dl4e3vz97//nZqaGn744QfOnz8vyUfOfvooLV68GF9fX/3fy5YtA+4+tf6nP/1JkralvmFMP2zJo+xj27Ztw8HBgYSEBK5fv052djZarVaSxpj2aYmc9jGmb7R0fDZ1G+7evZvf/e537N27t02fF0xIqTRrAMTrntc777xjsrycnZ0bNm3a1ODp6fnY6yVe4iVe4vU4XsHBwQ1ffvllg5mZiDeP+9XyF+7tlCkfMrly5Qqff/65wS1aQRCE/3VWVlY4OTkRERHB7t27H+sAbMJdCqXSrOHOHbEhBEEQBNNasGABAwYM4MiRIyQmJnLz5s3HXaR2TwR9QRAEQWgnxO194YnSOLZ7SxqHERUEQRCMI2bZEwRBEIR2QgR9QRAEQWgnJEF/xowZLF68uMUPzJo1i7feeuuhFkr47WutHwmCIAiPnvhO/x69e/dmwoQJPPPMMwCcPn2a5ORkoyavcHJy4qWXXsLd3R0XFxfJvOPGevrpp5k4cSIeHh7A3SE2ly9fbtTUn/caMmQI8+bN48iRIw99lqsnfYx3QRCE9kgE/V8NHjyY1157jY0bN5KYmIhCoWDcuHG8/fbbLFiwQPYkGubm5lRVVZGWlkZ0dHSby9OjRw/+9re/cejQIVatWkVNTQ09e/Zsc36dO3fmpZde4sKFC23OozWNbfbcc8/h4uLCunXr0Gg0rF+/XjITmSAIgvB4NBn0IyMjCQ0NRaFQoFar2bRpk+R9pVLJ9OnTCQgI4ObNm+zatYuvv/5akiY4OJiYmBhWrVpFXFwc3bt3p6qqipUrV+rnXR42bBjh4eG4uLhQXl6OWq1mx44dksFxWkszfPhwXn/9dYM6bNiwgR07dsjKx87OjunTp7N8+XLJXNAbN27E19eXvn376mfKU6lUxMbG4ufnh7W1NZcuXSI1NVU/he7ly5dJTk4G7o7n35zW2icyMpL8/Hw++ugj/Weamut79OjRjBo1ik6dOnHjxg1OnTrF6tWrDbbX3Llz+fe//83IkSObLZOVlRXW1tZUVVW1aRCNESNGMGbMGJYsWcKrr75KQkICXl5e3Llzx+i8BEEQBNMzCPq9e/dGo9Hw7rvv4uPjw+TJk8nNzZVMPOPj40NGRgaLFi3Cw8OD6dOnU1JSQlZWliQvCwsLXnzxRdasWcOlS5dwc3PT35oOCgoiLi6OdevWkZ+fT9euXZk5cya3b9/WT+ogJ80PP/zAgQMH9OscNGgQs2bNkpS3tXwCAwM5deoU+fn5WFlZERcXh5eXF8XFxZSXl+Pi4sKxY8ewsLBg6dKl3Lp1i48//piysjJ69eolmWXLGC21j7e3N+np6SxYsIDevXtTUVHBt99+i1qtlmyHuLg4Vq1axdmzZ3FwcGDAgAEG64mJiaGkpITs7OwWg/6YMWOIjo5u8/Sm7u7uFBYW6seSr62t1Z8MCYIgCI+fQdCvrq4mJSWFhoYGLly4wOjRo/Hw8JAE0evXr/Ovf/2LO3fuoNFo8PPzIyQkxCDom5ubk5KSor+yv/dKNSoqiq1bt5KZmQmAVqtl586dBAUF6QO6nDT19fX6ecO7devGtGnTSE5O5ueff5a9Lk9PT3JzcwF47bXXsLa2ZsWKFfTs2ZPZs2dz4sQJAIYOHUrnzp2ZM2eO/nv+B5mus7n2USqV2NvbM3bsWP7zn/+QlpaGl5cXU6dOpba2Vn+S4+Ligk6n4+jRo+h0OioqKigqKpKsw9fXl2effZY333yzzeW0s7Nj8uTJ+Pn5odPpyMzM5Pvvv6empobhw4dz4sQJiouLOXbsGPPmzSMiIgIbGxuUSqW4yhcEQXiCGAR9jUYjub1eVVVlMHXu5cuXJQfz4uJi+vbta5B5XV0dhYWFBssdHBxwdHQkNjaW2NhYyXs6nU52mntZWVmxYMECsrKyJLO+yclHpVJx9epVFAoFgwYNYtGiRWg0Gi5fvszgwYP16d3c3NBqtUY92NeS5tqncYrLc+fOsW3bNgDOnz+Pr68vI0aM0Af9nJwcwsPD+eSTTzh+/DgFBQVkZWVx7do1AOzt7Zk1axaJiYnU1NS0Wp60tDTS0tIMlvv5+VFeXs4HH3yAg4MDw4YNIzExkQ4dOpCXl6efOeunn34iISGBkSNH4urqSnJyMgcPHmTDhg1cv369TW0kCIIgmI5B0G+8ar7X/U9i3z8hTXNPatfW1rY4eY2c28hy0igUCubMmUN1dTXr169vUz6NgVahUEi+z75165ZkPaacjKe59rl9+za1tbVcvnxZsvzKlSv4+Pjo/7527Rrx8fF4eXnh6enJqFGjiIyMZP78+VRWVuLq6opKpZL8xLJjx7ubfOPGjcTHx8s6gTlw4ICkX2RnZ2NjY4NCoeDGjRuStDk5OeTk5LB48WK++uorpk2bxsyZM1mxYoW8RhEEQRAemjYNztO9e3eUSqX+7549e0rmBG9NZWUlFRUVkgDWljSNoqOjcXd354MPPjB4yl5OPmVlZTg7O9PQ0MDhw4cZN24cSqWSHj16MHDgQH26oqIinJ2dcXJyklHLB1NYWEiXLl0ky5ycnCgvL5csq6ur4/jx42zevJlFixZha2tLnz59ADh79izz5s1j4cKF+te5c+c4deoUCxcupKKiQpKXjY0NTk5OWFhYSJY3dSJYXV1tEPDvV1BQgFqtxtPTU3a9BUEQhIenTUHfzs6OuLg4unbtSmBgIL///e/JyMgwKo8tW7YQHBxMREQE3bp1w83NjbCwMCZOnGhUmv79+xMREUFSUhK1tbVYWlpiaWkpOSlpLZ+8vDz9bfy1a9dibW3N6tWreeWVVzh58qT+yj8rKwutVsubb76Jt7c3zs7O+Pv7ExoaqmYwq7EAAAJbSURBVF9Xhw4dcHNzw83NDXNzc2xtbXFzc6Nbt25Gtc93332Hn58fYWFhdO3alaCgIPr376+/lQ53f2YYEhJCjx49cHR05Pnnn6e+vp6LFy8Cd7++uHz5suSl0+n0y+//vj0sLIykpCT69etnVFkbjRs3jsDAQJycnFAoFDg6OhIQECB5HkQQBEF4fNr0O/28vDzMzc15//33uXnzJmlpafz4449G5aFWq9HpdIwdO5aoqCh0Oh3FxcXs2rXLqDTe3t4olUqDEeDu/clea/lkZmYSGRnJ8OHD2bt3L4mJiU2WWafTsWTJEmJjY4mPj8fKygqNRsPmzZv1aaysrCS3srt06cKgQYPQaDTEx8fLbp+srCzs7OwYM2YMsbGxlJWVkZyczP79+/VpampqCAsLIyYmho4dO6LRaEhISDDqrospaTQaQkNDmTRpEvb29qxYsYLc3FxSUlIeS3kEQRAEKTG17q/c3d1566232Lt3L7t370ar1eLg4EBtbW2bR8Brz9555x3ee+89oz8nZtkTBEF4eMSEO78qKChg4cKFmJmZ8dZbb5GSksKyZcv0Q/IKxjHlA4+CIAiCaYgrfeGJIq70BUEQHh5xpS8IgiAI7YS40hcEQRCEdkJc6QuCIAhCOyGCviAIgiC0EyLoC4IgCEI7IYK+IAiCILQTIugLgiAIQjshgr4gCIIgtBMi6AuCIAhCOyGCviAIgiC0EyLoC4IgCEI7IYK+IAiCILQTIugLgiAIQjshgr4gCIIgtBMi6AuCIAhCOyGCviAIgiC0EyLoC4IgCEI78f8BjPXFYahORr0AAAAASUVORK5CYII=;" vertex="1" parent="1">
                    <mxGeometry x="1355.5" y="1330" width="509" height="453" as="geometry"/>
                </mxCell>
                <mxCell id="186" value="Fixable errors&lt;div&gt;&lt;br&gt;&lt;/div&gt;" style="text;html=1;align=center;verticalAlign=middle;resizable=0;points=[];autosize=1;strokeColor=none;fillColor=none;fontSize=13;" vertex="1" parent="1">
                    <mxGeometry x="1350" y="1300" width="100" height="40" as="geometry"/>
                </mxCell>
                <mxCell id="175" value="" style="rounded=0;whiteSpace=wrap;html=1;container=1;dropTarget=1;recursiveResize=0;collapsible=0;" vertex="1" parent="1">
                    <mxGeometry x="-680" y="460" width="860" height="310" as="geometry"/>
                </mxCell>
                <mxCell id="180" value="There are a few different kinds of errors that we can run into, we can catagories them as &#39;fixable&#39; and &#39;non-fixable&#39;" style="text;html=1;align=center;verticalAlign=middle;whiteSpace=wrap;rounded=0;" vertex="1" parent="175">
                    <mxGeometry x="40" y="41" width="310" height="39" as="geometry"/>
                </mxCell>
                <mxCell id="181" value="loop through token list" style="rounded=0;whiteSpace=wrap;html=1;" vertex="1" parent="175">
                    <mxGeometry x="20" y="100" width="140" height="60" as="geometry"/>
                </mxCell>
                <mxCell id="182" value="check token type" style="rounded=0;whiteSpace=wrap;html=1;" vertex="1" parent="175">
                    <mxGeometry x="200" y="100" width="120" height="60" as="geometry"/>
                </mxCell>
                <mxCell id="183" value="different tokens can produce different errors. &#xa;I should be able to make a list of all the token errors, but in the code we may need a function per token type to check for errors." style="rounded=0;fontColor=default;whiteSpace=wrap;" vertex="1" parent="175">
                    <mxGeometry x="410" y="70" width="320" height="160" as="geometry"/>
                </mxCell>
                <mxCell id="177" style="edgeStyle=none;html=1;exitX=0;exitY=1;exitDx=0;exitDy=0;entryX=1;entryY=1;entryDx=0;entryDy=0;dashed=1;" edge="1" parent="1" source="172" target="175">
                    <mxGeometry relative="1" as="geometry"/>
                </mxCell>
                <mxCell id="176" style="edgeStyle=none;html=1;exitX=0;exitY=0;exitDx=0;exitDy=0;entryX=1;entryY=0;entryDx=0;entryDy=0;dashed=1;" edge="1" parent="1" source="172" target="175">
                    <mxGeometry relative="1" as="geometry"/>
                </mxCell>
            </root>
        </mxGraphModel>
    </diagram>
</mxfile>